<svg width="199" height="171" viewBox="0 0 199 171" fill="none" xmlns="http://www.w3.org/2000/svg">
<g clip-path="url(#clip0_246:463)">
<path d="M83.4068 0L125.023 21.4185L166.814 42.6629L125.023 64.0815L83.4068 85.5L41.7904 64.0815L0 42.6629L41.7904 21.4185L83.4068 0Z" fill="#F6F6F6"/>
<path d="M135.471 78.1866V58.8577L114.576 69.4799V88.8087L126.068 74.7039L135.471 78.1866Z" fill="#B81331"/>
<path d="M83.4072 85.5002V171L166.814 128.337V42.6631L135.471 58.8577L134.775 59.2059V78.0125L126.068 74.7039L114.576 88.8088V69.4799L83.4072 85.5002Z" fill="#D8E2E8"/>
<path d="M83.4068 171V85.5002L41.7904 64.0817L0 42.6631V128.337L83.4068 171Z" fill="#C6C8C9"/>
<path d="M31.3428 26.6427L114.575 69.4797L134.774 59.2058L135.471 58.8575L52.2379 16.0205L41.7904 21.4187L31.3428 26.6427Z" fill="#DE1A3E"/>
<path d="M170.256 76.6552C186.131 76.6552 199 63.7854 199 47.9095C199 32.0336 186.131 19.1638 170.256 19.1638C154.38 19.1638 141.511 32.0336 141.511 47.9095C141.511 63.7854 154.38 76.6552 170.256 76.6552Z" fill="#5BC43A"/>
<path d="M186.756 43.0613L168.702 61.1167C167.94 61.8781 166.915 62.3132 165.827 62.3132C164.739 62.3132 163.713 61.8781 162.953 61.1167L153.755 51.918C152.992 51.1568 152.558 50.1312 152.558 49.0435C152.558 47.9558 152.978 46.9303 153.755 46.1689C154.515 45.4077 155.541 44.9725 156.629 44.9725C157.717 44.9725 158.741 45.392 159.503 46.1689L165.827 52.493L181.007 37.3121C181.768 36.5507 182.794 36.1157 183.882 36.1157C184.97 36.1157 185.994 36.5353 186.756 37.3121C188.341 38.8971 188.341 41.4764 186.756 43.0613Z" fill="white"/>
</g>
<defs>
<clipPath id="clip0_246:463">
<rect width="199" height="171" fill="white"/>
</clipPath>
</defs>
</svg>
