<svg width="40" height="40" viewBox="0 0 40 40" fill="none" xmlns="http://www.w3.org/2000/svg">
<circle cx="20" cy="20" r="20" fill="white"/>
<path d="M14.0474 31.36L8.07981 34.6151C7.72962 34.806 7.4149 35.0407 7.12207 35.2966C10.6013 38.2302 15.0926 40 19.9998 40C24.8707 40 29.3334 38.2566 32.8028 35.363C32.4828 35.0928 32.1356 34.8498 31.7507 34.6581L25.3606 31.4634C24.5349 31.0505 24.0134 30.2068 24.0134 29.2837V26.7766C24.193 26.572 24.3983 26.3094 24.6179 25.9992C25.4889 24.769 26.1477 23.4158 26.6043 21.9962C27.424 21.7434 28.0277 20.9864 28.0277 20.0868V17.4105C28.0277 16.8218 27.7658 16.2958 27.359 15.9275V12.0588C27.359 12.0588 28.1538 6.03845 20.0006 6.03845C11.8474 6.03845 12.6421 12.0588 12.6421 12.0588V15.9275C12.2345 16.2958 11.9734 16.8218 11.9734 17.4105V20.0868C11.9734 20.7917 12.344 21.412 12.8987 21.7705C13.5674 24.6815 15.3183 26.7766 15.3183 26.7766V29.2219C15.3175 30.1124 14.83 30.9328 14.0474 31.36Z" fill="#E7ECED"/>
<path d="M20.3418 0.00303927C9.29807 -0.18564 0.191659 8.61436 0.00298021 19.6581C-0.10419 25.92 2.68675 31.5479 7.13053 35.2906C7.42109 35.037 7.73279 34.8046 8.07921 34.6159L14.0468 31.3608C14.8294 30.9336 15.3169 30.1132 15.3169 29.2212V26.7759C15.3169 26.7759 13.5652 24.6808 12.8973 21.7698C12.3434 21.4113 11.972 20.7917 11.972 20.0861V17.4098C11.972 16.8212 12.2339 16.2951 12.6407 15.9268V12.0581C12.6407 12.0581 11.846 6.03776 19.9992 6.03776C28.1524 6.03776 27.3577 12.0581 27.3577 12.0581V15.9268C27.7652 16.2951 28.0264 16.8212 28.0264 17.4098V20.0861C28.0264 20.9857 27.4226 21.7427 26.603 21.9955C26.1464 23.4151 25.4875 24.7683 24.6166 25.9985C24.3969 26.3087 24.1917 26.5713 24.012 26.7759V29.283C24.012 30.2061 24.5336 31.0506 25.3592 31.4627L31.7494 34.6574C32.1328 34.8491 32.4792 35.0913 32.7985 35.3608C37.1079 31.7668 39.892 26.3932 39.9954 20.3419C40.1856 9.29813 31.3864 0.191719 20.3418 0.00303927Z" fill="#AFB5C0"/>
</svg>
