<svg width="149" height="50" viewBox="0 0 149 50" fill="none" xmlns="http://www.w3.org/2000/svg">
<g clip-path="url(#clip0)">
<path d="M12.4879 6.51129e-06H52.0308V37.9995C52.0308 39.5748 51.7077 41.1347 51.08 42.59C50.4523 44.0453 49.5322 45.3674 48.3724 46.4807C47.2127 47.5941 45.8359 48.4769 44.3209 49.0786C42.8058 49.6803 41.1823 49.9892 39.5429 49.9875H6.77576e-06V12.0005C-0.00170288 10.4241 0.32014 8.86288 0.947111 7.40617C1.57408 5.94946 2.49387 4.62588 3.65382 3.51121C4.81377 2.39653 6.19111 1.51264 7.70699 0.910144C9.22286 0.307644 10.8475 -0.00163642 12.4879 6.51129e-06ZM42.6591 10.0375C42.6493 9.7693 42.5385 9.51367 42.3472 9.31819C42.2836 9.25842 42.2119 9.20717 42.1341 9.16584H42.1185C42.0361 9.12503 41.9488 9.094 41.8586 9.07343H41.8274C41.7598 9.05988 41.6911 9.05153 41.6221 9.04846C41.5817 9.04101 41.5409 9.03601 41.4999 9.03347C41.4583 9.03347 41.4116 9.03347 41.37 9.03347C41.3284 9.03347 41.214 9.03347 41.1283 9.04846H41.0815C40.8156 9.08996 40.5545 9.15603 40.3018 9.24576C40.1563 9.29571 40.0055 9.35315 39.8522 9.41559L39.6937 9.48552C39.5949 9.53048 39.4961 9.57293 39.3922 9.62288C35.4132 11.516 29.3447 17.2228 29.3447 17.2228L11.9915 16.7657L9.364 19.8352L21.4569 24.9875L16.324 31.1189L10.7336 31.2288L9.364 32.8721L13.5743 35.1973V37.2578H15.5833L17.8132 40.9915L19.5285 39.6828L19.6428 34.3132L26.0258 29.3706L31.3874 40.9915L34.5815 38.4715L34.1241 21.8082C34.1241 21.8082 40.0601 15.979 42.0379 12.1579C42.0821 12.0704 42.1211 11.988 42.1627 11.9081C42.2042 11.8282 42.225 11.7807 42.2536 11.7208C42.3134 11.5834 42.368 11.4511 42.4174 11.3212L42.4304 11.2862C42.4823 11.1514 42.5265 11.0115 42.5655 10.8716C42.5918 10.7687 42.6126 10.6645 42.6279 10.5594C42.6279 10.5345 42.6409 10.507 42.6435 10.4845C42.6515 10.4174 42.6559 10.3498 42.6565 10.2822C42.6565 10.2323 42.6565 10.1773 42.6565 10.1274C42.6565 10.0774 42.6591 10.0674 42.6591 10.0375Z" fill="#DE1A3E"/>
<path d="M67.3906 11.7882V13.5364H69.8232V14.6353H67.3906V16.476H70.1351V17.6123H65.9404V10.6543H70.1351V11.7882H67.3906Z" fill="#0B132A"/>
<path d="M76.2894 12.6374C76.5107 12.8736 76.6805 13.15 76.789 13.4502C76.8974 13.7505 76.9423 14.0685 76.9209 14.3857V17.6324H75.4707V14.5655C75.4933 14.2026 75.3705 13.8452 75.1276 13.5665C75.0082 13.4465 74.8633 13.3528 74.7027 13.2916C74.5421 13.2304 74.3697 13.2032 74.1972 13.2119C74.022 13.2028 73.8467 13.2297 73.6831 13.2908C73.5195 13.352 73.3714 13.446 73.2486 13.5665C73.0029 13.8439 72.8781 14.2018 72.9003 14.5655V17.6124H71.4501V12.098H72.9003V12.7848C73.0979 12.5435 73.3516 12.3502 73.641 12.2203C73.9516 12.0836 74.2897 12.0146 74.6312 12.018C74.9372 12.0055 75.2425 12.0541 75.5279 12.1607C75.8133 12.2673 76.0726 12.4296 76.2894 12.6374Z" fill="#0B132A"/>
<path d="M80.692 16.3287L82.1422 12.0979H83.686L81.56 17.6124H79.8005L77.6876 12.0979H79.247L80.692 16.3287Z" fill="#0B132A"/>
<path d="M86.4201 10.6643L84.0368 11.7083V10.7093L86.4201 9.52295V10.6643ZM86.0146 12.0979V17.6124H84.5644V12.0979H86.0146Z" fill="#0B132A"/>
<path d="M88.5642 17.3477C88.1267 17.1154 87.7663 16.7691 87.5246 16.3487C87.2652 15.8893 87.1353 15.3727 87.1478 14.8502C87.1362 14.3265 87.2699 13.8093 87.535 13.3517C87.7856 12.9301 88.1538 12.5841 88.598 12.3527C89.0621 12.1213 89.5773 12.0005 90.1002 12.0005C90.6231 12.0005 91.1383 12.1213 91.6024 12.3527C92.0464 12.5835 92.4138 12.9297 92.6627 13.3517C92.93 13.8086 93.0646 14.3262 93.0526 14.8502C93.065 15.3756 92.9265 15.894 92.6523 16.3487C92.3963 16.7706 92.024 17.1164 91.5764 17.3477C91.11 17.5877 90.5876 17.7098 90.0586 17.7023C89.5369 17.711 89.0218 17.5887 88.5642 17.3477ZM90.7967 16.3037C91.034 16.1754 91.2266 15.9825 91.3503 15.7493C91.4963 15.4726 91.5677 15.1652 91.5582 14.8552C91.5745 14.6347 91.5447 14.4132 91.4706 14.2039C91.3965 13.9946 91.2796 13.8017 91.1268 13.6364C90.9927 13.5015 90.8313 13.3944 90.6525 13.3218C90.4737 13.2492 90.2813 13.2126 90.0872 13.2143C89.8928 13.2109 89.6999 13.2468 89.5208 13.3195C89.3418 13.3922 89.1806 13.5001 89.0476 13.6364C88.7493 13.9724 88.5992 14.407 88.6292 14.8477C88.5984 15.2861 88.7445 15.719 89.0372 16.0565C89.1684 16.195 89.3293 16.3044 89.5088 16.3773C89.6882 16.4501 89.882 16.4847 90.0768 16.4786C90.3282 16.4788 90.5756 16.4187 90.7967 16.3037Z" fill="#0B132A"/>
<path d="M95.0485 17.4575C94.6994 17.3128 94.3944 17.085 94.1623 16.7957C93.9503 16.5277 93.8263 16.2051 93.8062 15.8691H95.2669C95.2798 15.9742 95.3153 16.0755 95.3712 16.1667C95.4272 16.2579 95.5023 16.3368 95.5917 16.3986C95.7978 16.5413 96.0474 16.6142 96.3012 16.6058C96.5291 16.6194 96.7556 16.5635 96.9484 16.446C97.0203 16.403 97.0795 16.343 97.1204 16.2717C97.1614 16.2004 97.1827 16.1203 97.1823 16.0389C97.1837 15.9518 97.1573 15.8663 97.1066 15.7939C97.056 15.7216 96.9835 15.6659 96.899 15.6343C96.606 15.5112 96.3026 15.4126 95.992 15.3396C95.6381 15.2606 95.2907 15.1571 94.9524 15.0299C94.6788 14.921 94.437 14.7495 94.2481 14.5304C94.0405 14.2794 93.936 13.9639 93.9544 13.6438C93.9526 13.3452 94.048 13.0535 94.2273 12.8096C94.4261 12.5458 94.6955 12.3387 95.007 12.2102C95.3888 12.058 95.7995 11.984 96.2129 11.993C96.8033 11.9658 97.3842 12.143 97.8502 12.4925C98.0526 12.6566 98.217 12.8596 98.3329 13.0884C98.4488 13.3172 98.5137 13.5668 98.5233 13.8211H97.1355C97.1289 13.7199 97.1003 13.6212 97.0515 13.5312C97.0027 13.4413 96.9348 13.3623 96.8522 13.2992C96.6558 13.1618 96.4165 13.0931 96.1739 13.1043C95.9613 13.0925 95.7497 13.1412 95.5657 13.2442C95.4989 13.2859 95.4445 13.3434 95.4076 13.4112C95.3707 13.479 95.3527 13.5548 95.3552 13.6313C95.3543 13.7216 95.3812 13.81 95.4326 13.8856C95.4839 13.9611 95.5574 14.0204 95.6437 14.0559C95.9327 14.1837 96.235 14.2816 96.5455 14.3481C96.8947 14.4288 97.2377 14.5322 97.5721 14.6578C97.8434 14.7681 98.0832 14.9394 98.2712 15.1573C98.4774 15.4076 98.5851 15.7198 98.5753 16.0389C98.5796 16.3448 98.4842 16.6444 98.3024 16.8956C98.1047 17.1586 97.8347 17.3635 97.5227 17.4875C97.1429 17.6372 96.7351 17.7103 96.3246 17.7023C95.8859 17.7102 95.4505 17.6267 95.0485 17.4575Z" fill="#0B132A"/>
<path d="M67.952 20.4595L66.4316 28.7187C66.3793 28.972 66.3532 29.2297 66.3536 29.4879C66.3536 30.2247 66.5797 30.7767 67.0267 31.1438C67.4738 31.5109 68.1157 31.6982 68.9474 31.6982C69.8168 31.7318 70.6702 31.4661 71.354 30.949C71.9847 30.4495 72.391 29.7061 72.5729 28.7187L74.1063 20.4595H76.3284L74.808 28.7187C74.6474 29.7029 74.2279 30.6314 73.5891 31.416C72.9977 32.134 72.2308 32.7002 71.3566 33.0644C70.4795 33.4318 69.5325 33.6197 68.5757 33.6163C67.2503 33.6163 66.1752 33.2916 65.3504 32.6423C64.5257 31.9929 64.1133 31.0497 64.1133 29.8126C64.1085 29.4483 64.1407 29.0845 64.2095 28.7262L65.7299 20.467L67.952 20.4595Z" fill="#0B132A"/>
<path d="M78.7324 33.2794C78.1642 33.0669 77.666 32.7115 77.29 32.2504C76.9432 31.8123 76.7601 31.2748 76.7702 30.7244C76.7736 30.5864 76.7866 30.4487 76.8091 30.3123H78.9741C78.9418 30.529 78.9657 30.75 79.0437 30.9556C79.1216 31.1613 79.2513 31.3453 79.4211 31.4912C79.8338 31.8246 80.3643 31.9928 80.9025 31.9607C81.436 31.9799 81.9659 31.87 82.4437 31.641C82.6276 31.5576 82.7824 31.4247 82.8894 31.2585C82.9964 31.0923 83.051 30.8998 83.0466 30.7044C83.0481 30.5346 83.003 30.3674 82.9159 30.2196C82.8287 30.0719 82.7026 29.9488 82.5502 29.8628C82.0484 29.5726 81.5161 29.334 80.9623 29.151C80.3889 28.9391 79.8292 28.6948 79.2859 28.4192C78.8511 28.1894 78.472 27.8736 78.1736 27.4927C77.8511 27.0663 77.6864 26.5484 77.7058 26.0216C77.6965 25.4514 77.8848 24.8943 78.2412 24.4382C78.6323 23.9587 79.1515 23.5902 79.7434 23.3718C80.4472 23.1052 81.1987 22.9745 81.9551 22.9872C82.6461 22.976 83.3323 23.1 83.9718 23.3518C84.5238 23.5662 85.0032 23.9232 85.3571 24.3833C85.6893 24.8272 85.8635 25.3625 85.8535 25.9092C85.8562 26.041 85.8501 26.1728 85.8353 26.3038H83.7223C83.7563 26.0874 83.7339 25.8663 83.6573 25.6601C83.5806 25.454 83.4521 25.2693 83.2831 25.1225C82.8691 24.8002 82.3438 24.6397 81.8121 24.673C81.3349 24.6519 80.8622 24.7694 80.4555 25.0101C80.2933 25.1068 80.16 25.2424 80.0689 25.4035C79.9778 25.5647 79.9318 25.7458 79.9357 25.9292C79.932 26.1136 79.9779 26.2958 80.069 26.4581C80.1601 26.6204 80.2932 26.7574 80.4555 26.8558C80.9665 27.1592 81.5092 27.4103 82.0746 27.605C82.6295 27.8071 83.1696 28.0449 83.6912 28.3168C84.1091 28.543 84.4743 28.849 84.7645 29.2159C85.0728 29.6225 85.2302 30.1168 85.2115 30.6195C85.2205 31.202 85.0174 31.7692 84.6372 32.2229C84.2159 32.7031 83.6671 33.0647 83.0492 33.2694C82.3118 33.524 81.5326 33.6484 80.7492 33.6365C80.0589 33.6469 79.3734 33.5255 78.7324 33.2794Z" fill="#0B132A"/>
<path d="M88.6058 25.5169C89.169 24.7409 89.913 24.1021 90.7785 23.6513C91.6031 23.2169 92.528 22.9885 93.4684 22.9869C94.2076 22.9629 94.9402 23.1275 95.5917 23.4639C96.1223 23.7452 96.5661 24.1562 96.8782 24.6552L97.1511 23.1567H99.394L97.4967 33.4764H95.2617L95.5527 31.9405C95.051 32.4514 94.452 32.8651 93.7881 33.1592C93.068 33.4913 92.2789 33.6621 91.4802 33.6587C90.7262 33.6717 89.9823 33.4906 89.3257 33.1343C88.6923 32.782 88.1779 32.2617 87.8443 31.6358C87.4759 30.9511 87.2918 30.1886 87.3089 29.418C87.3098 29.034 87.349 28.651 87.4258 28.2741C87.6002 27.282 88.0033 26.3399 88.6058 25.5169ZM96.2934 27.5399C96.3122 27.1763 96.2527 26.813 96.1185 26.4726C95.9844 26.1322 95.7785 25.8222 95.5137 25.5618C95.2599 25.3247 94.9591 25.1388 94.6293 25.0153C94.2994 24.8917 93.947 24.833 93.5931 24.8426C93.0088 24.8447 92.4337 24.9827 91.9168 25.2447C91.355 25.5275 90.8686 25.9309 90.4952 26.4235C90.0802 26.9692 89.8059 27.6017 89.6947 28.2691C89.6412 28.5223 89.6151 28.7801 89.6167 29.0384C89.598 29.4072 89.6574 29.7758 89.7915 30.1218C89.9255 30.4678 90.1313 30.7841 90.3964 31.0514C90.6459 31.2962 90.9452 31.489 91.2756 31.6179C91.6061 31.7468 91.9606 31.809 92.3171 31.8006C92.9025 31.7973 93.4782 31.6558 93.9934 31.3885C94.5585 31.0973 95.046 30.6845 95.4176 30.1822C95.8297 29.6278 96.1028 28.9893 96.2155 28.3166C96.2698 28.061 96.2959 27.8007 96.2934 27.5399Z" fill="#0B132A"/>
<path d="M116.594 26.2087C116.122 26.8254 115.496 27.3183 114.775 27.6423C113.878 28.0345 112.9 28.2233 111.916 28.1942H109.46L108.485 33.4765H106.263L108.672 20.4595H113.35C114.716 20.4595 115.748 20.7492 116.448 21.3286C116.791 21.6076 117.064 21.9573 117.246 22.3517C117.428 22.7461 117.515 23.175 117.501 23.6063C117.493 23.8509 117.466 24.0945 117.423 24.3356C117.299 25.0127 117.016 25.6535 116.594 26.2087ZM114.237 25.959C114.737 25.5489 115.06 24.9747 115.144 24.3481C115.181 24.1697 115.2 23.9882 115.201 23.8061C115.213 23.5758 115.172 23.3458 115.079 23.1331C114.986 22.9203 114.845 22.7304 114.665 22.5774C114.307 22.2727 113.766 22.1278 113.038 22.1278H110.582L109.782 26.5309H112.238C112.955 26.5684 113.663 26.3614 114.237 25.9465V25.959Z" fill="#0B132A"/>
<path d="M127.626 24.0734C128.427 24.7976 128.826 25.7717 128.824 26.9954C128.82 27.3411 128.787 27.6859 128.728 28.0269C128.658 28.3648 128.567 28.6984 128.455 29.0259H120.248C120.233 29.1561 120.227 29.2871 120.23 29.418C120.215 29.741 120.271 30.0634 120.394 30.3645C120.516 30.6655 120.703 30.9386 120.942 31.1663C121.191 31.3885 121.484 31.5609 121.804 31.6736C122.123 31.7864 122.463 31.8372 122.803 31.8231C123.359 31.8433 123.911 31.7201 124.4 31.4662C124.89 31.2124 125.301 30.8372 125.589 30.3796H127.988C127.491 31.3313 126.737 32.1371 125.804 32.7122C124.812 33.3273 123.651 33.6438 122.47 33.6213C121.654 33.6406 120.845 33.4692 120.113 33.1218C119.45 32.7973 118.902 32.2926 118.535 31.6708C118.144 30.9924 117.948 30.2259 117.969 29.4505C117.971 29.0608 118.01 28.6721 118.086 28.2892C118.257 27.2818 118.663 26.3247 119.273 25.4895C119.849 24.7031 120.615 24.0635 121.506 23.6263C122.408 23.1861 123.407 22.9609 124.419 22.9695C125.759 22.9811 126.828 23.3491 127.626 24.0734ZM126.545 27.0154C126.561 26.7076 126.504 26.4002 126.38 26.1162C126.255 25.8322 126.066 25.5787 125.825 25.3746C125.311 24.9614 124.655 24.7477 123.985 24.7752C123.203 24.771 122.445 25.0299 121.841 25.5069C121.19 26.017 120.734 26.7195 120.542 27.5049H126.506C126.532 27.2785 126.545 27.1153 126.545 27.0154Z" fill="#0B132A"/>
<path d="M135.249 23.5113C135.858 23.1603 136.556 22.9787 137.266 22.9868L136.855 25.1971H136.291C135.548 25.1621 134.816 25.3816 134.225 25.8165C133.705 26.2294 133.341 26.9412 133.133 27.9519L132.12 33.4763H129.898L131.787 23.1567H134.009L133.679 24.9723C134.085 24.3809 134.621 23.8822 135.249 23.5113Z" fill="#0B132A"/>
<path d="M149 23.1569L147.108 33.4766H144.886L145.102 32.2603C144.658 32.6916 144.127 33.0316 143.542 33.2593C142.952 33.4963 142.318 33.6177 141.679 33.6165C140.549 33.6165 139.646 33.3234 138.971 32.7374C138.295 32.1513 137.957 31.3188 137.957 30.2399C137.962 29.895 137.994 29.551 138.053 29.2109L139.166 23.1419H141.367L140.314 28.8862C140.272 29.1342 140.246 29.3844 140.236 29.6355C140.216 29.9231 140.258 30.2117 140.361 30.4827C140.463 30.7537 140.624 31.0011 140.832 31.2089C141.285 31.5912 141.877 31.7868 142.479 31.7533C143.239 31.7715 143.979 31.5209 144.558 31.049C145.167 30.5174 145.567 29.8003 145.689 29.0186L146.762 23.137L149 23.1569ZM146.679 20.3797L141.983 22.4202L142.274 20.8467L147.012 18.5615L146.679 20.3797Z" fill="#0B132A"/>
</g>
<defs>
<clipPath id="clip0">
<rect width="149" height="50" fill="white"/>
</clipPath>
</defs>
</svg>
