<svg width="48" height="34" viewBox="0 0 48 34" fill="none" xmlns="http://www.w3.org/2000/svg">
<path d="M48 30.2653C48 31.8324 46.7297 33.1028 45.1627 33.1028H2.83734C1.27031 33.1029 0 31.8324 0 30.2653V2.83744C0 1.27041 1.27031 0 2.83734 0H45.1627C46.7298 0 48 1.27041 48 2.83744V30.2653Z" fill="#306FC5"/>
<path opacity="0.15" d="M2.01722 30.2653V2.83744C2.01722 1.27041 3.28772 0 4.85475 0H2.83725C1.27031 0 0 1.27031 0 2.83744V30.2654C0 31.8325 1.27031 33.1029 2.83734 33.1029H4.85484C3.28781 33.1029 2.01722 31.8324 2.01722 30.2653Z" fill="#202121"/>
<path d="M6.99316 13.2467H8.42735L7.71045 11.4214L6.99316 13.2467Z" fill="white"/>
<path d="M14.6201 19.374V20.2216H17.0322V21.1345H14.6201V22.1126H17.2928L18.5314 20.7432L17.3581 19.374H14.6201Z" fill="white"/>
<path d="M33.4596 11.4214L32.6772 13.2467H34.1768L33.4596 11.4214Z" fill="white"/>
<path d="M21.5954 22.6337V18.918L19.9004 20.7434L21.5954 22.6337Z" fill="white"/>
<path d="M24.7893 19.961C24.7241 19.5699 24.4631 19.374 24.0718 19.374H22.7031V20.5474H24.1374C24.5284 20.5475 24.7893 20.352 24.7893 19.961Z" fill="white"/>
<path d="M29.3526 20.4174C29.483 20.352 29.5484 20.1563 29.5484 19.9611C29.6137 19.7005 29.483 19.57 29.3526 19.5047C29.2225 19.4395 29.0267 19.4395 28.8314 19.4395H27.5273V20.4826H28.8313C29.0266 20.4826 29.2224 20.4826 29.3526 20.4174Z" fill="white"/>
<path d="M38.7393 9.72632V10.5086L38.3484 9.72632H35.2849V10.5086L34.8936 9.72632H30.7215C30.0045 9.72632 29.4175 9.85682 28.8963 10.1175V9.72632H25.9629V9.79157V10.1175C25.6371 9.85691 25.2459 9.72632 24.7244 9.72632H14.2291L13.5117 11.3561L12.7948 9.72632H10.4482H9.47025V10.5086L9.14428 9.72632H9.07903H6.276L4.97203 12.7901L3.47287 16.1146L3.44531 16.18H3.47287H6.79753H6.83916L6.86278 16.1146L7.25409 15.137H8.1015L8.49263 16.18H12.2732V16.1146V15.3977L12.5993 16.1799H14.4896L14.8154 15.3977V16.1146V16.18H16.3148H23.8115H23.8767V14.485H24.0074C24.1376 14.485 24.1376 14.485 24.1376 14.6806V16.1147H28.8312V15.7236C29.2223 15.9194 29.8087 16.1147 30.591 16.1147H32.5469L32.938 15.0719H33.8504L34.2415 16.1147H38.0223V15.463V15.1371L38.6093 16.1147H38.7393H38.8047H41.673V9.72632H38.7395H38.7393ZM16.6409 15.2023H15.9889H15.5978V14.8115V11.6169L15.5326 11.7664V11.7646L14.0161 15.2023H13.9681H13.6194H13.0553L11.4909 11.6169V15.2023H9.27469L8.81841 14.2245H6.60178L6.14541 15.2023H4.9995L6.92794 10.6391H8.5575L10.3827 15.0066V10.6391H10.7738H12.1098L12.1405 10.7044H12.1428L12.9653 12.4945L13.5559 13.8357L13.5768 13.7681L14.8805 10.6392H16.6408V15.2023H16.6409ZM21.139 11.6169H18.5966V12.4643H21.0738V13.3768H18.5966V14.2898H21.139V15.2673H17.4885V10.6392H21.139V11.6169ZM25.7886 13.2978C25.7903 13.2993 25.7924 13.3003 25.7945 13.3018C25.8191 13.3278 25.8402 13.354 25.8582 13.379C25.9831 13.5427 26.0841 13.7862 26.0891 14.1432C26.0895 14.1493 26.0898 14.1554 26.0902 14.1616C26.0902 14.1652 26.0908 14.1683 26.0908 14.1719C26.0908 14.174 26.0906 14.1756 26.0906 14.1776C26.0921 14.2135 26.0931 14.2501 26.0931 14.2898V15.2024H25.1154V14.6807C25.1154 14.42 25.1154 14.0288 24.9196 13.7681C24.858 13.7065 24.7957 13.6659 24.7278 13.637C24.6301 13.5737 24.4449 13.5727 24.1376 13.5727H22.9639V15.2024H21.8559V10.6392H24.3333C24.9196 10.6392 25.3109 10.6392 25.637 10.8347C25.9564 11.0265 26.1493 11.3446 26.1566 11.8483C26.1415 12.5421 25.6962 12.9227 25.3761 13.0511C25.3761 13.0511 25.5936 13.0948 25.7886 13.2978ZM27.9837 15.2023H26.8754V10.6391H27.9837V15.2023ZM40.6955 15.2023H39.2611L37.1752 11.7472V14.6155L37.1683 14.6087V15.2052H36.067V15.2024H34.9587L34.5676 14.2246H32.2858L31.8947 15.2674H30.6562C30.135 15.2674 29.4827 15.1372 29.0918 14.7461C28.7006 14.3549 28.5053 13.8334 28.5053 12.9861C28.5053 12.3343 28.6355 11.6819 29.0918 11.1606C29.4174 10.7692 30.0044 10.6392 30.7213 10.6392H31.7646V11.6169H30.7213C30.3302 11.6169 30.135 11.6818 29.8737 11.8778C29.6785 12.0733 29.548 12.4643 29.548 12.9206C29.548 13.4422 29.6133 13.7681 29.8737 14.0288C30.0698 14.2246 30.3303 14.2899 30.6562 14.2899H31.1124L32.6116 10.7046H33.2638H34.2414L36.0669 15.0721V14.8494V13.377V13.2468V10.7047H37.6965L39.5866 13.8988V10.7047H40.6953V15.2025H40.6955V15.2023Z" fill="white"/>
<path d="M24.8591 12.5397C24.8782 12.5194 24.8954 12.4963 24.91 12.4699C24.9691 12.3764 25.0368 12.208 25.0003 11.9783C24.9988 11.9572 24.995 11.9377 24.9905 11.9188C24.9892 11.9136 24.9894 11.909 24.988 11.9037L24.9874 11.9038C24.9549 11.7922 24.8722 11.7235 24.7896 11.6819C24.6589 11.6169 24.4633 11.6169 24.2678 11.6169H22.9639V12.6601H24.2678C24.4633 12.6601 24.659 12.6601 24.7896 12.5948C24.8092 12.5848 24.8266 12.5713 24.8434 12.556L24.8436 12.5569C24.8436 12.5568 24.8503 12.5499 24.8591 12.5397Z" fill="white"/>
<path d="M44.5414 21.7213C44.5414 21.265 44.4111 20.8085 44.2157 20.4826V17.5493H44.2127V17.3535C44.2127 17.3535 41.4803 17.3535 41.0736 17.3535C40.6671 17.3535 40.1738 17.7445 40.1738 17.7445V17.3535H37.1753C36.7188 17.3535 36.1325 17.484 35.8714 17.7445V17.3535H30.5261V17.5493V17.7444C30.1353 17.4187 29.4176 17.3534 29.0919 17.3534H25.5717V17.5492V17.7443C25.2458 17.4186 24.4632 17.3533 24.0719 17.3533H20.1612L19.2484 18.3312L18.4009 17.3533H18.128H17.6839H12.5342V17.5491V18.0641V23.9376H18.2707L19.2133 22.9948L20.0303 23.9376H20.0958H23.4012H23.551H23.6163H23.6811V23.2858V22.4384H24.0073C24.4632 22.4384 25.0502 22.4384 25.5065 22.2425V23.8721V24.0028H28.44V23.8721V22.3078H28.57C28.7659 22.3078 28.7659 22.3078 28.7659 22.5033V23.8721V24.0028H37.6311C38.2183 24.0028 38.8046 23.8721 39.1305 23.6114V23.8721V24.0028H41.9338C42.5201 24.0028 43.1073 23.9376 43.4984 23.6767C44.0986 23.3166 44.4769 22.6792 44.5331 21.919C44.5357 21.8965 44.539 21.874 44.5411 21.8514L44.5372 21.8477C44.5397 21.8056 44.5414 21.7638 44.5414 21.7213ZM24.0074 21.3302H22.7033V21.5253V21.9166V22.3079V23.025H20.5607L19.3136 21.5907L19.3093 21.5955L19.2484 21.5253L17.8143 23.025H13.6423V18.4619H17.8795L19.0371 19.7298L19.2805 19.9953L19.3135 19.9611L20.6826 18.462H24.1375C24.808 18.462 25.5589 18.6274 25.8434 19.3096C25.8776 19.4447 25.8975 19.5949 25.8975 19.7656C25.8975 21.0692 24.9848 21.3302 24.0074 21.3302ZM30.5261 21.2649C30.6563 21.46 30.7216 21.7212 30.7216 22.1125V23.0249H29.6136V22.4384C29.6136 22.1772 29.6136 21.7212 29.4177 21.5253C29.2877 21.3302 29.0266 21.3302 28.6357 21.3302H27.4625V23.025H26.3543V18.3966H28.8313C29.3525 18.3966 29.8087 18.3966 30.1353 18.592C30.461 18.7877 30.7216 19.1137 30.7216 19.6352C30.7216 20.3521 30.2655 20.7433 29.9394 20.8739C30.2655 21.0037 30.461 21.1345 30.5261 21.2649ZM35.0242 19.3741H32.4816V20.2216H34.9588V21.1344H32.4816V22.0471H35.0242V23.0249H31.3737V18.3965H35.0242V19.3741ZM37.7619 23.025H35.6758V22.0472H37.7619C37.9571 22.0472 38.0878 22.0472 38.2185 21.9167C38.2837 21.8514 38.3485 21.7213 38.3485 21.5908C38.3485 21.4601 38.2837 21.3303 38.2185 21.265C38.1531 21.1998 38.0225 21.1346 37.827 21.1346C36.7839 21.0693 35.5454 21.1346 35.5454 19.7006C35.5454 19.0486 35.9365 18.3315 37.11 18.3315H39.2611V19.4395H37.2404C37.0449 19.4395 36.9143 19.4395 36.7838 19.5047C36.6538 19.5701 36.6538 19.7006 36.6538 19.8308C36.6538 20.0265 36.7838 20.0917 36.9142 20.1564C37.0449 20.2217 37.1751 20.2217 37.3054 20.2217H37.8921C38.4789 20.2217 38.87 20.3521 39.1307 20.613C39.3263 20.8086 39.4567 21.1346 39.4567 21.5908C39.4567 22.5683 38.8701 23.025 37.7619 23.025ZM43.3681 22.5683C43.1076 22.8294 42.6511 23.025 41.999 23.025H39.9134V22.0472H41.9989C42.1945 22.0472 42.3252 22.0472 42.4554 21.9167C42.5204 21.8514 42.5858 21.7213 42.5858 21.5908C42.5858 21.4601 42.5204 21.3303 42.4554 21.265C42.3902 21.1998 42.26 21.1346 42.0643 21.1346C41.0216 21.0693 39.7827 21.1346 39.7827 19.7007C39.7827 19.0811 40.1372 18.5214 41.0114 18.3552C41.1159 18.3407 41.2264 18.3315 41.3473 18.3315H43.4987V19.4395H42.0643H41.543H41.4777C41.2821 19.4395 41.1518 19.4395 41.0216 19.5047C40.956 19.5701 40.8907 19.7006 40.8907 19.8308C40.8907 20.0265 40.956 20.0917 41.1518 20.1564C41.2821 20.2217 41.4125 20.2217 41.543 20.2217H41.6077H42.1295C42.4144 20.2217 42.6298 20.2569 42.827 20.3262C43.0075 20.3915 43.6053 20.6589 43.739 21.3569C43.7506 21.43 43.7591 21.5063 43.7591 21.5908C43.7591 21.982 43.6287 22.3079 43.3681 22.5683Z" fill="white"/>
</svg>
