<svg width="19" height="19" viewBox="0 0 19 19" fill="none" xmlns="http://www.w3.org/2000/svg">
<path d="M19 15.1888C18.9968 14.2126 17.9319 13.5798 17.0587 14.0164L12.8399 16.1261L11.6152 16.7385L7.74099 15.2491L8.13999 14.2097L11.5565 15.5231L11.7414 15.0855C12.1054 14.2243 11.6915 13.2321 10.8235 12.8848L7.21292 11.4405C6.21004 11.0393 5.08351 11.086 4.11737 11.569L2.74261 12.2561L2.61377 16.2515L8.24434 18.5407C9.35435 18.9848 10.5497 19.1096 11.7615 18.9031C12.1308 18.8402 12.4888 18.6921 12.8399 18.5601C13.1025 18.4613 13.3625 18.354 13.6133 18.2286L19 15.5535L19 15.1888Z" fill="#FFD9B3"/>
<path d="M19 15.5534L18.9999 15.1888C18.9967 14.2125 17.9318 13.5797 17.0587 14.0164L12.8398 16.126V18.56C13.1025 18.4612 13.3625 18.3539 13.6132 18.2285L19 15.5534Z" fill="#FFBB99"/>
<path d="M6.16016 0C3.39332 0 1.15039 2.28004 1.15039 5.04688C1.15039 7.81371 3.39332 10.0566 6.16016 10.0566C8.92699 10.0566 11.1699 7.81371 11.1699 5.04688C11.1699 2.28004 8.92699 0 6.16016 0Z" fill="#FF9933"/>
<path d="M9.5 0C6.73316 0 4.49023 2.28004 4.49023 5.04688C4.49023 7.81371 6.73316 10.0566 9.5 10.0566C12.2668 10.0566 14.5098 7.81371 14.5098 5.04688C14.5098 2.28004 12.2668 0 9.5 0Z" fill="#FFC34D"/>
<path d="M12.8398 0C10.073 0 7.83008 2.28004 7.83008 5.04688C7.83008 7.81371 10.073 10.0566 12.8398 10.0566C15.6067 10.0566 17.8496 7.81371 17.8496 5.04688C17.8496 2.28004 15.6067 0 12.8398 0Z" fill="#FFEA80"/>
<path d="M17.8496 5.04688C17.8496 2.28004 15.6067 0 12.8398 0V10.0566C15.6067 10.0566 17.8496 7.81368 17.8496 5.04688Z" fill="#FFC34D"/>
<path d="M12.8398 4.49023C12.5327 4.49023 12.2832 4.24071 12.2832 3.93359C12.2832 3.62648 12.5327 3.37695 12.8398 3.37695C13.147 3.37695 13.3965 3.62648 13.3965 3.93359H14.5098C14.5098 3.20885 14.043 2.59677 13.3965 2.36621V1.15039H12.8398H12.2832V2.36621C11.6367 2.59677 11.1699 3.20885 11.1699 3.93359C11.1699 4.85443 11.919 5.60352 12.8398 5.60352C13.147 5.60352 13.3965 5.85304 13.3965 6.16016C13.3965 6.46727 13.147 6.7168 12.8398 6.7168C12.5327 6.7168 12.2832 6.46727 12.2832 6.16016H11.1699C11.1699 6.8849 11.6367 7.49698 12.2832 7.72755V8.94336H12.8398H13.3965V7.72755C14.043 7.49698 14.5098 6.8849 14.5098 6.16016C14.5098 5.23929 13.7607 4.49023 12.8398 4.49023Z" fill="#FFC34D"/>
<path d="M13.3965 7.72754C14.043 7.49698 14.5098 6.8849 14.5098 6.16016C14.5098 5.23932 13.7607 4.49023 12.8398 4.49023V5.60352C13.147 5.60352 13.3965 5.85304 13.3965 6.16016C13.3965 6.46727 13.147 6.7168 12.8398 6.7168V8.94336H13.3965V7.72754Z" fill="#FF9933"/>
<path d="M13.3965 3.93359H14.5098C14.5098 3.20885 14.043 2.59677 13.3965 2.36621V1.15039H12.8398V3.37695C13.147 3.37695 13.3965 3.62644 13.3965 3.93359Z" fill="#FF9933"/>
<path d="M0 11.1699H3.37695V17.8496H0V11.1699Z" fill="#60474F"/>
</svg>
