<svg width="20" height="14" viewBox="0 0 20 14" fill="none" xmlns="http://www.w3.org/2000/svg">
<path d="M20 0H0V13.3335H20V0Z" fill="#F0F0F0"/>
<path d="M20 1.66652H0V3.33304H20V1.66652Z" fill="#D80027"/>
<path d="M20 5H0V6.66652H20V5Z" fill="#D80027"/>
<path d="M20 8.33304H0V9.99956H20V8.33304Z" fill="#D80027"/>
<path d="M20 11.6665H0V13.333H20V11.6665Z" fill="#D80027"/>
<path d="M10 0H0V7.17957H10V0Z" fill="#2E52B2"/>
<path d="M3.89928 2.94116L3.73822 3.43663H3.21729L3.63881 3.74269L3.47775 4.23812L3.89928 3.93206L4.32053 4.23812L4.15951 3.74269L4.58103 3.43663H4.06006L3.89928 2.94116Z" fill="#F0F0F0"/>
<path d="M4.06006 5.22459L3.89928 4.72916L3.73822 5.22459H3.21729L3.63881 5.53068L3.47775 6.02611L3.89928 5.72002L4.32053 6.02611L4.15951 5.53068L4.58103 5.22459H4.06006Z" fill="#F0F0F0"/>
<path d="M1.85844 5.22459L1.69762 4.72916L1.53656 5.22459H1.01562L1.43715 5.53068L1.27609 6.02611L1.69762 5.72002L2.11891 6.02611L1.95789 5.53068L2.37934 5.22459H1.85844Z" fill="#F0F0F0"/>
<path d="M1.69762 2.94116L1.53656 3.43663H1.01562L1.43715 3.74269L1.27609 4.23812L1.69762 3.93206L2.11891 4.23812L1.95789 3.74269L2.37934 3.43663H1.85844L1.69762 2.94116Z" fill="#F0F0F0"/>
<path d="M3.89928 1.15309L3.73822 1.6486H3.21729L3.63881 1.95469L3.47775 2.45012L3.89928 2.14403L4.32053 2.45012L4.15951 1.95469L4.58103 1.6486H4.06006L3.89928 1.15309Z" fill="#F0F0F0"/>
<path d="M1.69762 1.15309L1.53656 1.6486H1.01562L1.43715 1.95469L1.27609 2.45012L1.69762 2.14403L2.11891 2.45012L1.95789 1.95469L2.37934 1.6486H1.85844L1.69762 1.15309Z" fill="#F0F0F0"/>
<path d="M6.1009 2.94116L5.93988 3.43663H5.41895L5.84043 3.74269L5.67945 4.23812L6.1009 3.93206L6.52223 4.23812L6.36117 3.74269L6.78269 3.43663H6.26176L6.1009 2.94116Z" fill="#F0F0F0"/>
<path d="M6.26176 5.22459L6.1009 4.72916L5.93988 5.22459H5.41895L5.84043 5.53068L5.67945 6.02611L6.1009 5.72002L6.52223 6.02611L6.36117 5.53068L6.78269 5.22459H6.26176Z" fill="#F0F0F0"/>
<path d="M8.46338 5.22459L8.30256 4.72916L8.1415 5.22459H7.62061L8.04205 5.53068L7.88104 6.02611L8.30256 5.72002L8.72385 6.02611L8.56279 5.53068L8.98432 5.22459H8.46338Z" fill="#F0F0F0"/>
<path d="M8.30256 2.94116L8.1415 3.43663H7.62061L8.04205 3.74269L7.88104 4.23812L8.30256 3.93206L8.72385 4.23812L8.56279 3.74269L8.98432 3.43663H8.46338L8.30256 2.94116Z" fill="#F0F0F0"/>
<path d="M6.1009 1.15309L5.93988 1.6486H5.41895L5.84043 1.95469L5.67945 2.45012L6.1009 2.14403L6.52223 2.45012L6.36117 1.95469L6.78269 1.6486H6.26176L6.1009 1.15309Z" fill="#F0F0F0"/>
<path d="M8.30256 1.15309L8.1415 1.6486H7.62061L8.04205 1.95469L7.88104 2.45012L8.30256 2.14403L8.72385 2.45012L8.56279 1.95469L8.98432 1.6486H8.46338L8.30256 1.15309Z" fill="#F0F0F0"/>
</svg>
