<svg width="48" height="15" viewBox="0 0 48 15" fill="none" xmlns="http://www.w3.org/2000/svg">
<path d="M41.153 0H41.3101C41.4972 0.116554 41.5682 0.335533 41.6713 0.51691C43.0905 3.12442 44.5118 5.73074 45.9328 8.33754C46.6195 9.60748 47.3203 10.8706 48 12.144V12.1689C47.9595 12.2406 47.9273 12.3534 47.8229 12.3433C47.1326 12.3455 46.4412 12.3468 45.7514 12.3427C45.5858 12.3492 45.5411 12.172 45.4785 12.0578C45.353 11.824 45.2176 11.5961 45.1043 11.3561C44.9106 11.0338 44.758 10.6903 44.5643 10.3683C44.4155 10.0497 44.2231 9.75418 44.0734 9.43621C43.9808 9.24379 43.8592 9.06653 43.7674 8.87385C43.6314 8.58763 43.4551 8.32245 43.3229 8.0342C43.1236 7.6956 42.9586 7.3394 42.7593 7.00073C42.6193 6.69729 42.433 6.41768 42.2916 6.1149C42.1928 5.90666 42.0606 5.71525 41.9624 5.50637C41.8345 5.23531 41.6643 4.98595 41.5423 4.71223C41.4814 4.60634 41.4396 4.45911 41.3116 4.4167C41.2293 4.41016 41.114 4.38983 41.0675 4.47639C40.8524 4.81534 40.6949 5.18525 40.4874 5.52867C40.339 5.84701 40.1452 6.14245 39.9962 6.46039C39.9076 6.64518 39.7911 6.81554 39.7018 6.99967C39.634 7.13801 39.565 7.27587 39.4849 7.40796C39.3431 7.64241 39.2419 7.89794 39.0984 8.13137C38.9732 8.3362 38.8843 8.55998 38.7594 8.76481C38.6283 8.97616 38.5369 9.20786 38.4078 9.41996C38.2602 9.66131 38.156 9.9251 38.0079 10.1661C37.8832 10.371 37.7946 10.5944 37.6693 10.7993C37.5382 11.0106 37.4468 11.2423 37.3177 11.4544C37.1788 11.6816 37.0768 11.9278 36.946 12.1589C36.9013 12.2275 36.8585 12.3136 36.7705 12.3336C36.6355 12.3571 36.4973 12.3433 36.3609 12.345C35.8331 12.3446 35.3052 12.343 34.7775 12.3468C34.6819 12.345 34.5672 12.3464 34.5018 12.2657C34.4814 12.1778 34.4888 12.0826 34.5376 12.0051C36.6907 8.04837 38.8482 4.09426 41.0032 0.138263C41.0364 0.0776554 41.0957 0.0376268 41.1531 2.35462e-05L41.153 0ZM9.60786e-05 1.90025C0.147769 1.74758 0.371752 1.79752 0.562684 1.79236C2.4851 1.79337 4.40703 1.79236 6.32956 1.79274C6.89496 1.77406 7.4674 1.85784 7.99809 2.05203C8.89123 2.36613 9.65986 3.07158 9.94894 3.96883C10.0769 4.30914 10.1047 4.6754 10.1304 5.03401C10.1069 5.4181 10.0594 5.80845 9.91132 6.16809C9.7337 6.58907 9.47738 6.99461 9.09521 7.2653C9.00307 7.35249 8.86025 7.38946 8.79309 7.49911C9.30163 7.6791 9.73905 8.02005 10.0688 8.43625C10.6111 9.1314 10.7619 10.0514 10.6698 10.9048C10.6213 11.4675 10.4564 12.0261 10.1568 12.5107C9.95674 12.812 9.70989 13.0882 9.4103 13.2978C8.75624 13.7737 7.94678 13.993 7.14748 14.0833C6.98366 14.1051 6.81553 14.0933 6.65479 14.1375H0.146664C0.0925237 14.0947 0.0422265 14.0471 0 13.9926V1.90023L9.60786e-05 1.90025ZM2.15764 3.66812C2.0961 3.74189 2.11296 3.8426 2.1095 3.9309C2.11503 4.84708 2.10107 5.76354 2.11647 6.67944C2.17378 6.74952 2.26169 6.79746 2.35486 6.79258C3.59759 6.79357 4.84066 6.79117 6.08319 6.79395C6.25621 6.80122 6.42643 6.76569 6.597 6.74227C6.98376 6.68707 7.37021 6.53706 7.63998 6.25093C7.82454 6.07092 7.90861 5.82121 7.9708 5.57986C7.98591 5.3844 8.04961 5.18812 7.99407 4.99295C7.96734 4.66266 7.83052 4.34166 7.60231 4.09645C7.28266 3.81234 6.85473 3.67648 6.4328 3.62644C6.29778 3.61338 6.16061 3.63306 6.02663 3.60685C5.85998 3.57163 5.68939 3.58853 5.52063 3.58653C4.50051 3.58543 3.48045 3.58752 2.46076 3.58512C2.35455 3.58512 2.24833 3.61375 2.15761 3.66819L2.15764 3.66812ZM2.22686 8.63149C2.18538 8.64428 2.14568 8.66839 2.13302 8.71216C2.05808 8.85426 2.07354 9.01772 2.07429 9.17214C2.07571 10.1149 2.07326 11.0577 2.07532 12.0003C2.07739 12.1351 2.15403 12.3262 2.31975 12.3096C3.63276 12.3102 4.94605 12.3089 6.25897 12.31C6.39088 12.3144 6.5227 12.31 6.65284 12.2865C7.11484 12.2479 7.59309 12.1572 7.98238 11.8962C8.29528 11.6789 8.46729 11.3197 8.53411 10.9579C8.62267 10.5403 8.58964 10.1034 8.46589 9.69588C8.35507 9.38142 8.13634 9.09491 7.82973 8.94249C7.42469 8.72384 6.95986 8.65838 6.50584 8.62038C5.12219 8.62073 3.73854 8.62073 2.35477 8.62038C2.31182 8.61941 2.2689 8.6231 2.22679 8.6314L2.22686 8.63149ZM12.8134 1.80239C12.9597 1.77894 13.1091 1.79549 13.2568 1.79274C15.2963 1.79236 17.3361 1.79375 19.3761 1.79201C20.298 1.83825 21.2348 2.15438 21.9008 2.79924C22.4071 3.28995 22.7124 3.96332 22.7854 4.65398C22.784 4.92742 22.7971 5.20161 22.7778 5.47468C22.6902 6.06086 22.4553 6.65117 22.0052 7.06146C21.878 7.19216 21.7398 7.31359 21.578 7.40179C21.5446 7.42937 21.4739 7.44316 21.4947 7.49909C22.0122 7.70596 22.4796 8.05179 22.8013 8.50246C22.9395 8.68836 23.0389 8.89797 23.1347 9.10732C23.3249 9.52832 23.3604 9.99416 23.3882 10.448C23.3647 10.799 23.3432 11.1531 23.2578 11.4965C23.1333 12.0951 22.8158 12.6499 22.3723 13.0768C22.1912 13.2234 22.0084 13.3703 21.8052 13.4868C21.232 13.8309 20.565 13.9899 19.9045 14.0754C19.7203 14.1061 19.5304 14.0896 19.3486 14.1375H12.8448C12.7435 14.0795 12.6455 13.9882 12.6584 13.8623C12.6592 9.93099 12.6592 5.99948 12.6584 2.0682C12.6542 1.95959 12.7203 1.85747 12.8135 1.80239H12.8134ZM14.9923 3.59817C14.9247 3.61371 14.8513 3.63782 14.815 3.7009C14.7521 3.78818 14.77 3.89986 14.7676 4.00019C14.7708 4.8395 14.7686 5.6788 14.7682 6.51775C14.7623 6.62712 14.8365 6.72159 14.9215 6.78394C15.1744 6.80575 15.4293 6.78644 15.6832 6.79261C16.762 6.79195 17.8405 6.79397 18.9194 6.79195C19.2813 6.75194 19.6557 6.70567 19.9732 6.51674C20.3003 6.37264 20.507 6.06053 20.6181 5.73741C20.7018 5.47609 20.673 5.19989 20.6744 4.93057C20.6505 4.73954 20.5883 4.55162 20.4996 4.3799C20.2461 3.95331 19.7577 3.7182 19.2731 3.64886C19.0826 3.60196 18.8846 3.6406 18.6933 3.60196C18.547 3.57408 18.3979 3.58788 18.2506 3.58651C17.207 3.5854 16.1634 3.58752 15.1199 3.58512C15.0766 3.5854 15.0341 3.58955 14.9923 3.59819V3.59817ZM14.9215 8.63213C14.8168 8.6545 14.7637 8.76281 14.7693 8.86069C14.7686 9.84963 14.77 10.8382 14.7686 11.8268C14.77 11.9527 14.7559 12.0841 14.8058 12.2037C14.8309 12.2883 14.9364 12.3075 15.0144 12.3092C16.3506 12.311 17.6871 12.3079 19.0238 12.311C19.2004 12.3196 19.373 12.2751 19.5488 12.2672C19.9992 12.212 20.4617 12.0848 20.809 11.7848C21.083 11.5141 21.217 11.1351 21.2465 10.7607C21.2816 10.5752 21.2898 10.3852 21.2508 10.1996C21.2166 9.77968 21.0669 9.33138 20.7116 9.06905C20.282 8.74383 19.725 8.66867 19.2004 8.62038C17.8641 8.62076 16.5275 8.62076 15.1913 8.62038C15.1013 8.6225 15.0098 8.61313 14.9215 8.63215L14.9215 8.63213ZM23.4654 2.05441C23.4018 1.9282 23.5277 1.77644 23.6645 1.79198C24.3213 1.79161 24.9785 1.79511 25.6357 1.79059C25.712 1.78683 25.7964 1.79749 25.8372 1.87063C25.993 2.10508 26.1189 2.3578 26.2441 2.6092C26.3232 2.76988 26.4244 2.91888 26.5036 3.07958C26.6495 3.38955 26.8384 3.67742 26.9829 3.98814C27.1762 4.31048 27.3292 4.65395 27.5226 4.97606C27.6885 5.32429 27.8971 5.65055 28.0609 5.99978C28.2034 6.24396 28.3327 6.49463 28.4618 6.74596C28.6257 7.00629 28.7403 7.29188 28.9021 7.55355C29.0149 7.74597 29.0986 7.9532 29.2154 8.1435C29.3634 8.38456 29.4671 8.64873 29.6152 8.88935C29.7618 9.13079 29.8614 9.39698 30.0192 9.63176C30.0899 9.76211 30.3213 9.76249 30.3923 9.63176C30.5495 9.3966 30.6493 9.13079 30.796 8.88935C30.9268 8.67835 31.0189 8.44692 31.1476 8.23453C31.2953 7.99318 31.3993 7.72942 31.5475 7.48807C31.6937 7.23735 31.8076 6.96941 31.962 6.72291C32.142 6.35288 32.3593 6.00228 32.537 5.63124C32.6826 5.38878 32.8052 5.13465 32.9382 4.88577C33.0936 4.63992 33.2012 4.36921 33.3534 4.12197C33.485 3.90059 33.5813 3.66162 33.7146 3.44125C33.8496 3.22263 33.9439 2.98302 34.0792 2.76439C34.26 2.46611 34.3767 2.1303 34.5905 1.85134C34.6391 1.77786 34.7343 1.79441 34.811 1.79026C35.4562 1.79615 36.1018 1.79137 36.7471 1.79201C36.8347 1.78235 36.9085 1.83966 36.95 1.91103C36.9911 2.02994 36.9029 2.13821 36.8472 2.23618C34.7955 5.99533 32.7497 9.75754 30.6987 13.5172C30.5812 13.7319 30.482 13.9654 30.3003 14.1375H30.1456C29.9124 13.9944 29.834 13.7154 29.7008 13.4941C27.6216 9.68149 25.5468 5.86559 23.4655 2.05441H23.4654Z" fill="#004580"/>
</svg>
