<svg width="21" height="21" viewBox="0 0 21 21" fill="none" xmlns="http://www.w3.org/2000/svg">
<path d="M19.5272 15.9232L14.8723 11.9936C14.7616 11.9017 14.6258 11.8521 14.4881 11.8521C14.2956 11.8521 14.1123 11.9485 13.9979 12.1102C13.4682 12.8577 12.8187 13.5044 12.0672 14.032C11.9274 14.1303 11.8348 14.2804 11.8132 14.4441C11.7915 14.6079 11.8396 14.7699 11.9487 14.9001L15.9005 19.5359C16.1683 19.8556 16.5571 20.0401 16.9656 20.0401C17.3329 20.0401 17.6825 19.8934 17.9505 19.6268L19.6209 17.9647C19.9055 17.6814 20.0525 17.3118 20.0348 16.9236C20.017 16.5352 19.8367 16.1799 19.5272 15.9232Z" fill="#AFB5C0"/>
<path d="M7.39621 14.7187C9.37164 14.7187 11.229 13.9532 12.6261 12.5631C14.0232 11.173 14.7925 9.32502 14.7925 7.35935C14.7925 3.30145 11.4746 0 7.39621 0C3.31782 0 0 3.30145 0 7.35935C0 11.4173 3.31792 14.7187 7.39621 14.7187ZM2.39686 7.35935C2.39686 4.61646 4.63954 2.38499 7.39621 2.38499C10.1529 2.38499 12.3955 4.61646 12.3955 7.35935C12.3955 8.68587 11.875 9.93444 10.9296 10.875C9.98423 11.8156 8.72939 12.3336 7.39621 12.3336C4.63954 12.3337 2.39686 10.1022 2.39686 7.35935Z" fill="#AFB5C0"/>
</svg>
