<svg width="20" height="19" viewBox="0 0 20 19" fill="none" xmlns="http://www.w3.org/2000/svg">
<path d="M5.625 9.00439H4.375C4.05141 9.00439 3.78906 9.27437 3.78906 9.60737C3.78906 9.94038 4.05141 10.2103 4.375 10.2103H5.625C5.94859 10.2103 6.21094 9.94038 6.21094 9.60737C6.21094 9.27437 5.94859 9.00439 5.625 9.00439Z" fill="#C8CDCC"/>
<path d="M5.625 11.5769H4.375C4.05141 11.5769 3.78906 11.8469 3.78906 12.1799C3.78906 12.5129 4.05141 12.7828 4.375 12.7828H5.625C5.94859 12.7828 6.21094 12.5129 6.21094 12.1799C6.21094 11.8469 5.94859 11.5769 5.625 11.5769Z" fill="#C8CDCC"/>
<path d="M5.625 14.1497H4.375C4.05141 14.1497 3.78906 14.4196 3.78906 14.7526C3.78906 15.0856 4.05141 15.3556 4.375 15.3556H5.625C5.94859 15.3556 6.21094 15.0856 6.21094 14.7526C6.21094 14.4196 5.94859 14.1497 5.625 14.1497Z" fill="#C8CDCC"/>
<path d="M10.625 9.00439H9.375C9.05141 9.00439 8.78906 9.27437 8.78906 9.60737C8.78906 9.94038 9.05141 10.2103 9.375 10.2103H10.625C10.9486 10.2103 11.2109 9.94038 11.2109 9.60737C11.2109 9.27437 10.9486 9.00439 10.625 9.00439Z" fill="#C8CDCC"/>
<path d="M10.625 11.5769H9.375C9.05141 11.5769 8.78906 11.8469 8.78906 12.1799C8.78906 12.5129 9.05141 12.7828 9.375 12.7828H10.625C10.9486 12.7828 11.2109 12.5129 11.2109 12.1799C11.2109 11.8469 10.9486 11.5769 10.625 11.5769Z" fill="#C8CDCC"/>
<path d="M10.625 14.1497H9.375C9.05141 14.1497 8.78906 14.4196 8.78906 14.7526C8.78906 15.0856 9.05141 15.3556 9.375 15.3556H10.625C10.9486 15.3556 11.2109 15.0856 11.2109 14.7526C11.2109 14.4196 10.9486 14.1497 10.625 14.1497Z" fill="#C8CDCC"/>
<path d="M15.625 9.00439H14.375C14.0514 9.00439 13.7891 9.27437 13.7891 9.60737C13.7891 9.94038 14.0514 10.2103 14.375 10.2103H15.625C15.9486 10.2103 16.2109 9.94038 16.2109 9.60737C16.2109 9.27437 15.9486 9.00439 15.625 9.00439Z" fill="#C8CDCC"/>
<path d="M15.625 11.5769H14.375C14.0514 11.5769 13.7891 11.8469 13.7891 12.1799C13.7891 12.5129 14.0514 12.7828 14.375 12.7828H15.625C15.9486 12.7828 16.2109 12.5129 16.2109 12.1799C16.2109 11.8469 15.9486 11.5769 15.625 11.5769Z" fill="#C8CDCC"/>
<path d="M15.625 14.1497H14.375C14.0514 14.1497 13.7891 14.4196 13.7891 14.7526C13.7891 15.0856 14.0514 15.3556 14.375 15.3556H15.625C15.9486 15.3556 16.2109 15.0856 16.2109 14.7526C16.2109 14.4196 15.9486 14.1497 15.625 14.1497Z" fill="#C8CDCC"/>
<path d="M18.2422 1.60792H16.8359V0.602968C16.8359 0.269969 16.5736 0 16.25 0C15.9264 0 15.6641 0.269969 15.6641 0.602968V1.60792H10.5859V0.602968C10.5859 0.269969 10.3236 0 10 0C9.67641 0 9.41406 0.269969 9.41406 0.602968V1.60792H4.33594V0.602968C4.33594 0.269969 4.07359 0 3.75 0C3.42641 0 3.16406 0.269969 3.16406 0.602968V1.60792H1.75781C0.788555 1.60792 0 2.41939 0 3.41682V16.7625C0 17.76 0.788555 18.5714 1.75781 18.5714H18.2422C19.2114 18.5714 20 17.76 20 16.7625C20 16.3733 20 3.75549 20 3.41682C20 2.41939 19.2114 1.60792 18.2422 1.60792ZM1.17188 3.41682C1.17188 3.08434 1.43473 2.81385 1.75781 2.81385H3.16406V3.8188C3.16406 4.1518 3.42641 4.42177 3.75 4.42177C4.07359 4.42177 4.33594 4.1518 4.33594 3.8188V2.81385H9.41406V3.8188C9.41406 4.1518 9.67641 4.42177 10 4.42177C10.3236 4.42177 10.5859 4.1518 10.5859 3.8188V2.81385H15.6641V3.8188C15.6641 4.1518 15.9264 4.42177 16.25 4.42177C16.5736 4.42177 16.8359 4.1518 16.8359 3.8188V2.81385H18.2422C18.5653 2.81385 18.8281 3.08434 18.8281 3.41682V5.7885H1.17188V3.41682ZM18.2422 17.3655H1.75781C1.43473 17.3655 1.17188 17.095 1.17188 16.7625V6.99443H18.8281V16.7625C18.8281 17.095 18.5653 17.3655 18.2422 17.3655Z" fill="#C8CDCC"/>
</svg>
