<svg width="58" height="54" viewBox="0 0 58 54" fill="none" xmlns="http://www.w3.org/2000/svg">
<g filter="url(#filter0_bd)">
<path d="M47.3282 23.243C47.3282 35.9827 36.9561 46.3108 24.1621 46.3108C11.3682 46.3108 0.996094 35.9827 0.996094 23.243C0.996094 10.5034 11.3682 0.175293 24.1621 0.175293C36.9561 0.175293 47.3282 10.5034 47.3282 23.243Z" fill="white"/>
</g>
<path d="M38.6043 15.4224C38.0028 14.7893 37.1727 14.415 36.2284 14.415H31.476V14.3571C31.476 13.6373 31.19 12.9464 30.7027 12.4861C30.2162 11.9968 29.5579 11.7092 28.8421 11.7092H20.2542C19.5097 11.7092 18.8514 11.9968 18.3649 12.4861C17.8784 12.9753 17.5916 13.6373 17.5916 14.3571V14.415H12.8679C11.9236 14.415 11.0936 14.7893 10.492 15.4224C9.89126 16.0273 9.49023 16.8909 9.49023 17.8116V32.1484C9.49023 33.0988 9.86251 33.9335 10.492 34.5376C11.0936 35.1425 11.9523 35.5458 12.8679 35.5458H36.2284C37.1727 35.5458 38.0028 35.1715 38.6043 34.5376C39.2051 33.9335 39.6061 33.0699 39.6061 32.1484V17.8116C39.6061 16.862 39.2338 16.0273 38.6043 15.4224ZM38.1178 32.1484H38.089C38.089 32.6666 37.8885 33.1277 37.545 33.4724C37.2015 33.8178 36.7437 34.0195 36.2284 34.0195H12.8679C12.3526 34.0195 11.8948 33.8178 11.5513 33.4724C11.2078 33.1277 11.0073 32.6666 11.0073 32.1484V17.8116C11.0073 17.2934 11.2078 16.8331 11.5513 16.4876C11.8948 16.1422 12.3526 15.9406 12.8679 15.9406H18.3936C18.8226 15.9406 19.1662 15.5951 19.1662 15.1637V14.3282C19.1662 14.0117 19.2804 13.7241 19.4809 13.5224C19.6814 13.3208 19.9674 13.2059 20.283 13.2059H28.8421C29.1576 13.2059 29.4436 13.3208 29.6434 13.5224C29.8439 13.7241 29.9589 14.0117 29.9589 14.3282V15.1637C29.9589 15.5951 30.3024 15.9406 30.7314 15.9406H36.2564C36.7717 15.9406 37.2302 16.1422 37.5737 16.4876C37.9173 16.8331 38.1178 17.2934 38.1178 17.8116V32.1484Z" fill="#4F5665"/>
<path d="M24.5486 17.8606C22.5206 17.8606 20.6715 18.6925 19.36 19.9993C18.0178 21.335 17.2122 23.1464 17.2122 25.1658C17.2122 27.1851 18.0477 29.0255 19.36 30.3323C20.7015 31.6689 22.5206 32.4701 24.5486 32.4701C26.5765 32.4701 28.4248 31.639 29.7371 30.3323C31.0794 28.9957 31.8841 27.1851 31.8841 25.1658C31.8841 23.1464 31.0494 21.3052 29.7371 19.9993C28.4248 18.6925 26.5765 17.8606 24.5486 17.8606ZM28.6037 29.2335C27.5602 30.2428 26.1288 30.8966 24.5486 30.8966C22.9683 30.8966 21.5362 30.2428 20.4926 29.2335C19.4491 28.1944 18.8233 26.7692 18.8233 25.1956C18.8233 23.6212 19.479 22.196 20.4926 21.1569C21.5362 20.1178 22.9683 19.4938 24.5486 19.4938C26.1288 19.4938 27.5602 20.1476 28.6037 21.1569C29.6472 22.196 30.2738 23.6212 30.2738 25.1956C30.3038 26.7692 29.6472 28.1944 28.6037 29.2335Z" fill="#4F5665"/>
<path d="M34.9724 20.9363C35.8257 20.9363 36.5173 20.2479 36.5173 19.3985C36.5173 18.549 35.8257 17.8606 34.9724 17.8606C34.12 17.8606 33.4285 18.549 33.4285 19.3985C33.4285 20.2479 34.12 20.9363 34.9724 20.9363Z" fill="#4F5665"/>
<defs>
<filter id="filter0_bd" x="-4.00391" y="-4.82471" width="61.332" height="61.1355" filterUnits="userSpaceOnUse" color-interpolation-filters="sRGB">
<feFlood flood-opacity="0" result="BackgroundImageFix"/>
<feGaussianBlur in="BackgroundImage" stdDeviation="2.5"/>
<feComposite in2="SourceAlpha" operator="in" result="effect1_backgroundBlur"/>
<feColorMatrix in="SourceAlpha" type="matrix" values="0 0 0 0 0 0 0 0 0 0 0 0 0 0 0 0 0 0 127 0" result="hardAlpha"/>
<feOffset dx="5" dy="5"/>
<feGaussianBlur stdDeviation="2.5"/>
<feComposite in2="hardAlpha" operator="out"/>
<feColorMatrix type="matrix" values="0 0 0 0 0 0 0 0 0 0 0 0 0 0 0 0 0 0 0.05 0"/>
<feBlend mode="normal" in2="effect1_backgroundBlur" result="effect2_dropShadow"/>
<feBlend mode="normal" in="SourceGraphic" in2="effect2_dropShadow" result="shape"/>
</filter>
</defs>
</svg>
