<svg width="42" height="31" viewBox="0 0 42 31" fill="none" xmlns="http://www.w3.org/2000/svg">
<path d="M6.44064 16.9905H28.2962C29.338 16.9905 30.1826 16.1618 30.1826 15.1397C30.1826 14.1175 29.338 13.2889 28.2962 13.2889H6.44064L8.87967 10.896C9.61638 10.1733 9.61638 9.00136 8.87967 8.27856C8.14321 7.55575 6.94872 7.55575 6.21188 8.27856L0.552975 13.8307C0.50921 13.8735 0.46796 13.9183 0.428722 13.9651C0.419164 13.9766 0.41099 13.989 0.401683 14.0007C0.372884 14.0366 0.344588 14.0726 0.318681 14.1106C0.311135 14.1217 0.304973 14.1334 0.297553 14.1447C0.271646 14.1844 0.246242 14.2245 0.223353 14.2663C0.218951 14.2746 0.215304 14.2834 0.210903 14.2916C0.187134 14.3369 0.164245 14.3828 0.144249 14.4302C0.141734 14.436 0.139973 14.4422 0.137583 14.4481C0.117084 14.4979 0.0980943 14.5484 0.0819967 14.6003C0.0798588 14.6069 0.0787269 14.6137 0.0768405 14.6203C0.0616233 14.6713 0.0476637 14.7228 0.036974 14.7754C0.0338299 14.7911 0.0324466 14.8073 0.029554 14.8231C0.0217568 14.8667 0.0139596 14.9104 0.0095579 14.955C0.00314405 15.016 0 15.0777 0 15.1397C0 15.2016 0.00314405 15.2633 0.0095579 15.3245C0.0139596 15.3697 0.0220083 15.4137 0.0296798 15.4578C0.0324466 15.4731 0.0338299 15.4887 0.036974 15.5039C0.0477895 15.5571 0.0616233 15.609 0.0769663 15.6605C0.0788527 15.6665 0.0799846 15.673 0.081871 15.679C0.0980943 15.7312 0.117084 15.7822 0.137835 15.8325C0.140099 15.8379 0.141734 15.8437 0.144123 15.8492C0.164245 15.8969 0.187259 15.9431 0.21128 15.9886C0.21543 15.9966 0.218951 16.005 0.223227 16.013C0.246367 16.0551 0.271897 16.0956 0.298181 16.1357C0.305224 16.1465 0.311261 16.158 0.318555 16.1686C0.344588 16.2067 0.373135 16.243 0.401809 16.279C0.41099 16.2906 0.419164 16.3029 0.428596 16.3142C0.46796 16.361 0.50921 16.4059 0.552849 16.4487L6.21176 22.0008C6.58011 22.3623 7.06291 22.543 7.54571 22.543C8.02851 22.543 8.51131 22.3623 8.87954 22.0008C9.61626 21.278 9.61626 20.1062 8.87954 19.3834L6.44064 16.9905Z" fill="white"/>
<path d="M26.0699 0C20.9208 0 16.13 2.50625 13.2544 6.70401C12.6734 7.5523 12.9033 8.70227 13.7679 9.27245C14.6327 9.8425 15.8046 9.61719 16.3859 8.76866C18.5592 5.59575 22.1794 3.7015 26.0699 3.7015C32.4983 3.70162 37.7282 8.8327 37.7282 15.1398C37.7282 21.4468 32.4983 26.5779 26.0699 26.5779C22.1908 26.5779 18.5766 24.6922 16.4016 21.5337C15.8182 20.6867 14.6459 20.4641 13.7824 21.0362C12.9192 21.6085 12.692 22.7589 13.2753 23.6059C16.1529 27.7848 20.9358 30.2795 26.0699 30.2795C34.5786 30.2795 41.5011 23.4879 41.5011 15.1398C41.5011 6.79162 34.5786 0 26.0699 0Z" fill="white"/>
</svg>
