<svg width="16" height="12" viewBox="0 0 16 12" fill="none" xmlns="http://www.w3.org/2000/svg">
<path d="M14.8886 2.97621L7.35128 10.5135C7.03344 10.8314 6.60533 11.013 6.15128 11.013C5.69722 11.013 5.26911 10.8314 4.95128 10.5135L1.11128 6.67351C0.793438 6.35567 0.611816 5.92756 0.611816 5.47351C0.611816 5.01946 0.786952 4.59135 1.11128 4.27351C1.42911 3.95567 1.85722 3.77405 2.31128 3.77405C2.76533 3.77405 3.19344 3.94918 3.51128 4.27351L6.15128 6.91351L12.4886 0.576212C12.8064 0.258374 13.2345 0.0767517 13.6886 0.0767517C14.1426 0.0767517 14.5707 0.251887 14.8886 0.576212C15.5502 1.23783 15.5502 2.31459 14.8886 2.97621Z" fill="white"/>
</svg>
