<svg width="20" height="20" viewBox="0 0 20 20" fill="none" xmlns="http://www.w3.org/2000/svg">
<path d="M8.11203 16.25C6.15952 16.25 4.57031 14.6608 4.57031 12.7083V4.16675H3.11203C1.84784 4.16675 0.820312 5.19412 0.820312 6.45831V17.7083C0.820312 18.9725 1.84784 20 3.11203 20H13.5286C14.7928 20 15.8203 18.9725 15.8203 17.7083V16.25H8.11203Z" fill="black"/>
<path d="M19.1536 2.29172C19.1536 1.02585 18.1277 0 16.862 0H8.11203C6.84616 0 5.82031 1.02585 5.82031 2.29172V12.7083C5.82031 13.9742 6.84616 15 8.11203 15H16.862C18.1277 15 19.1536 13.9742 19.1536 12.7083V2.29172Z" fill="black"/>
</svg>
