<svg width="25" height="20" viewBox="0 0 25 20" fill="none" xmlns="http://www.w3.org/2000/svg">
<path d="M1.52976 13.7836C1.02217 10.4875 0.515114 7.19196 0.00860303 3.89693C-0.0147769 3.73632 0.00974831 3.57238 0.0791066 3.42564C0.148465 3.2789 0.259573 3.15588 0.398519 3.07199C0.537465 2.9881 0.698072 2.94707 0.860229 2.95403C1.02239 2.961 1.17889 3.01564 1.31013 3.11114L6.04931 6.66593C6.17302 6.75826 6.31422 6.82448 6.46432 6.86056C6.61441 6.89664 6.77028 6.90183 6.92244 6.87581C7.0746 6.84979 7.21989 6.79311 7.34947 6.7092C7.47905 6.6253 7.59022 6.51592 7.67622 6.38773L11.6215 0.46904C11.7178 0.324746 11.8482 0.206445 12.0011 0.124626C12.1541 0.0428071 12.3249 0 12.4984 0C12.6718 0 12.8426 0.0428071 12.9956 0.124626C13.1486 0.206445 13.279 0.324746 13.3753 0.46904L17.3238 6.38122C17.4098 6.50942 17.521 6.61879 17.6505 6.70269C17.7801 6.7866 17.9254 6.84328 18.0776 6.8693C18.2297 6.89532 18.3856 6.89013 18.5357 6.85405C18.6858 6.81797 18.827 6.75175 18.9507 6.65942L23.6899 3.10463C23.8211 3.00914 23.9776 2.95449 24.1398 2.94753C24.3019 2.94056 24.4625 2.98159 24.6015 3.06548C24.7404 3.14937 24.8515 3.27239 24.9209 3.41913C24.9903 3.56587 25.0148 3.72981 24.9914 3.89042C24.4838 7.18437 23.9767 10.4799 23.4702 13.7771L1.52976 13.7836Z" fill="#FE9401"/>
<path d="M1.53027 15.6123H23.474V17.7273C23.474 17.93 23.4341 18.1308 23.3565 18.3181C23.2789 18.5054 23.1652 18.6756 23.0218 18.819C22.8784 18.9624 22.7082 19.0761 22.5209 19.1537C22.3336 19.2313 22.1328 19.2712 21.9301 19.2712H3.07421C2.66473 19.2712 2.27203 19.1086 1.98248 18.819C1.69294 18.5295 1.53027 18.1368 1.53027 17.7273V15.6123Z" fill="#FE9401"/>
</svg>
