<svg width="48" height="33" viewBox="0 0 48 33" fill="none" xmlns="http://www.w3.org/2000/svg">
<path d="M25.9785 19.1283C31.2261 19.1537 36.0166 14.865 36.0166 9.64681C36.0166 3.94213 31.2254 -0.0020829 25.9785 8.25227e-07H21.4618C16.152 -0.0020829 11.7798 3.9431 11.7798 9.64681C11.7798 14.866 16.152 19.1537 21.4618 19.1283H25.9785Z" fill="#00529E"/>
<path d="M23.4773 14.7277V4.36766C25.5673 5.16601 27.0509 7.18292 27.0545 9.54739C27.0509 11.912 25.5671 13.9272 23.4773 14.7277ZM15.915 9.54739C15.9192 7.18389 17.4008 5.16865 19.4896 4.36766V14.726C17.4008 13.9256 15.9192 11.9109 15.915 9.54739ZM21.4835 0.791016C16.6313 0.791988 12.6982 4.71176 12.6973 9.54739C12.6982 14.383 16.6313 18.3007 21.4835 18.3028C26.3377 18.3007 30.2718 14.383 30.2718 9.54739C30.2718 4.71176 26.3372 0.792127 21.4835 0.791016Z" fill="white"/>
<path d="M1.96377 25.6557C1.96377 26.4349 2.52201 26.5243 3.01919 26.5243C5.21187 26.5243 5.93128 24.8771 5.93128 23.3703C5.93128 21.4788 4.71372 20.1142 2.75527 20.1142C2.33742 20.1142 2.14697 20.1444 1.96335 20.1548V25.6557H1.96377ZM0.968443 20.912C0.968443 20.0024 0.492598 20.0616 0.0361328 20.0528V19.7903C0.431532 19.809 0.836969 19.809 1.23334 19.809C1.659 19.809 2.23815 19.7903 2.98991 19.7903C5.61759 19.7903 7.04805 21.5384 7.04805 23.3296C7.04805 24.3317 6.46011 26.8491 2.86722 26.8491C2.34969 26.8491 1.87189 26.8294 1.39507 26.8294C0.939582 26.8294 0.492598 26.8392 0.0361328 26.8491V26.5866C0.644428 26.5247 0.939722 26.5054 0.968443 25.8172V20.912Z" fill="#00529E"/>
<path d="M8.49047 20.6701C8.22654 20.6701 7.9944 20.4274 7.9944 20.1637C7.9944 19.9106 8.23797 19.6772 8.49047 19.6772C8.75439 19.6772 8.98862 19.8903 8.98862 20.1637C8.98862 20.4377 8.76429 20.6701 8.49047 20.6701ZM7.40381 26.5863H7.59733C7.88063 26.5863 8.08349 26.5863 8.08349 26.2511V23.5113C8.08349 23.0669 7.93166 23.0049 7.55662 22.8049V22.6422C8.03344 22.5003 8.60215 22.3091 8.64174 22.2788C8.71327 22.2377 8.77322 22.2269 8.82536 22.2269C8.87541 22.2269 8.89577 22.2877 8.89577 22.3689V26.2511C8.89577 26.5863 9.1201 26.5863 9.40438 26.5863H9.57657V26.8489C9.23122 26.8489 8.87541 26.8291 8.5118 26.8291C8.14609 26.8291 7.78039 26.839 7.40423 26.8489V26.5863H7.40381Z" fill="#00529E"/>
<path d="M10.5403 23.5718C10.5403 23.1981 10.4282 23.0973 9.95238 22.9049V22.713C10.3885 22.5711 10.8042 22.4402 11.291 22.2266C11.3227 22.2266 11.3509 22.2474 11.3509 22.3274V22.9855C11.9305 22.5707 12.4277 22.2266 13.1085 22.2266C13.9713 22.2266 14.276 22.8539 14.276 23.6429V26.2512C14.276 26.5864 14.4992 26.5864 14.7825 26.5864H14.9661V26.849C14.6093 26.849 14.2551 26.8292 13.8899 26.8292C13.5242 26.8292 13.1585 26.8391 12.7934 26.849V26.5864H12.976C13.2603 26.5864 13.4633 26.5864 13.4633 26.2512V23.6331C13.4633 23.0566 13.1086 22.7739 12.53 22.7739C12.205 22.7739 11.6886 23.0353 11.3511 23.26V26.2519C11.3511 26.5871 11.5754 26.5871 11.8608 26.5871H12.0434V26.8497C11.6887 26.8497 11.3324 26.8299 10.9667 26.8299C10.6019 26.8299 10.2362 26.8398 9.87109 26.8497V26.5871H10.0547C10.339 26.5871 10.5409 26.5871 10.5409 26.2519V23.5718H10.5403Z" fill="#00529E"/>
<path d="M17.5348 23.7335C17.7882 23.7335 17.817 23.602 17.817 23.4819C17.817 22.9663 17.5028 22.5509 16.9348 22.5509C16.3151 22.5509 15.8893 23.0052 15.7683 23.7335H17.5348ZM15.7376 24.0579C15.7173 24.1489 15.7173 24.3001 15.7376 24.6442C15.7976 25.6058 16.4184 26.3939 17.2292 26.3939C17.7884 26.3939 18.2245 26.0892 18.5997 25.7165L18.741 25.8579C18.2736 26.4744 17.6955 27.0004 16.864 27.0004C15.2499 27.0004 14.9238 25.4426 14.9238 24.7959C14.9238 22.8135 16.2635 22.2266 16.974 22.2266C17.7973 22.2266 18.6815 22.7422 18.6899 23.8145C18.6899 23.8753 18.6899 23.9362 18.6815 23.9974L18.5887 24.0577L15.7376 24.0579Z" fill="#00529E"/>
<path d="M18.9248 26.5861H19.1986C19.4808 26.5861 19.6859 26.5861 19.6859 26.2509V23.4103C19.6859 23.0969 19.3097 23.0345 19.1569 22.9555V22.8042C19.8988 22.4897 20.3041 22.2267 20.397 22.2267C20.4569 22.2267 20.4867 22.2578 20.4867 22.3587V23.2683H20.5081C20.7617 22.8743 21.1889 22.2266 21.8071 22.2266C22.0605 22.2266 22.3857 22.3987 22.3857 22.7625C22.3857 23.0344 22.1921 23.2802 21.9088 23.2802C21.5922 23.2802 21.5922 23.0344 21.2385 23.0344C21.0653 23.0344 20.4966 23.2677 20.4966 23.8748V26.2502C20.4966 26.5854 20.6996 26.5854 20.9839 26.5854H21.5526V26.848C20.9944 26.8376 20.5693 26.8283 20.1321 26.8283C19.7163 26.8283 19.2895 26.8381 18.9249 26.848L18.9248 26.5861Z" fill="#00529E"/>
<path d="M22.8326 25.4433C22.9651 26.1107 23.3705 26.6767 24.1112 26.6767C24.7091 26.6767 24.9324 26.3129 24.9324 25.959C24.9324 24.7661 22.7205 25.1508 22.7205 23.5221C22.7205 22.956 23.1781 22.2273 24.2939 22.2273C24.6189 22.2273 25.055 22.3188 25.4515 22.5215L25.5219 23.5507H25.2898C25.188 22.9151 24.8322 22.5517 24.1822 22.5517C23.7769 22.5517 23.3903 22.783 23.3903 23.2186C23.3903 24.4022 25.7451 24.0368 25.7451 25.6247C25.7451 26.2917 25.2072 27.0007 23.9996 27.0007C23.5943 27.0007 23.1163 26.8587 22.7626 26.6572L22.6494 25.4944L22.8326 25.4433Z" fill="#00529E"/>
<path d="M34.9098 21.6201H34.6573C34.4638 20.438 33.6213 19.9624 32.4861 19.9624C31.3175 19.9624 29.6221 20.7404 29.6221 23.1674C29.6221 25.2113 31.0844 26.6771 32.6474 26.6771C33.6522 26.6771 34.4853 25.991 34.6883 24.928L34.9215 24.9878L34.6883 26.4644C34.2615 26.7291 33.1149 27.0014 32.4434 27.0014C30.0692 27.0014 28.5684 25.4743 28.5684 23.1991C28.5684 21.1251 30.425 19.6375 32.4147 19.6375C33.2359 19.6375 34.0278 19.9021 34.8093 20.1755L34.9098 21.6201Z" fill="#00529E"/>
<path d="M35.2764 26.5862H35.4678C35.7532 26.5862 35.956 26.5862 35.956 26.251V20.6201C35.956 19.962 35.8053 19.9417 35.4182 19.8305V19.6693C35.8235 19.5374 36.2508 19.3559 36.4637 19.2333C36.5748 19.1745 36.6562 19.1216 36.6869 19.1216C36.748 19.1216 36.7683 19.1824 36.7683 19.2645V26.251C36.7683 26.5862 36.9917 26.5862 37.276 26.5862H37.447V26.8487C37.1038 26.8487 36.748 26.829 36.3823 26.829C36.0175 26.829 35.6529 26.8389 35.2768 26.8487V26.5862H35.2764Z" fill="#00529E"/>
<path d="M41.7928 26.292C41.7928 26.4749 41.9039 26.4842 42.0761 26.4842C42.1983 26.4842 42.349 26.4744 42.4814 26.4744V26.6869C42.0442 26.728 41.2127 26.94 41.0192 27.0009L40.968 26.9707V26.1515C40.3608 26.6463 39.8928 27.0009 39.1709 27.0009C38.6236 27.0009 38.0549 26.6463 38.0549 25.7976V23.209C38.0549 22.945 38.0153 22.6934 37.4478 22.6424V22.4496C37.8135 22.4403 38.6236 22.3794 38.7561 22.3794C38.8693 22.3794 38.8693 22.4496 38.8693 22.6725V25.2808C38.8693 25.5854 38.8693 26.4555 39.7514 26.4555C40.0958 26.4555 40.5522 26.1914 40.9785 25.838V23.1164C40.9785 22.9152 40.4912 22.8045 40.1276 22.7031V22.5211C41.0395 22.4593 41.6092 22.3792 41.7099 22.3792C41.7923 22.3792 41.7923 22.4493 41.7923 22.5621V26.2916H41.7928V26.292Z" fill="#00529E"/>
<path d="M43.8121 25.7059C43.8121 26.089 44.1778 26.7382 44.8576 26.7382C45.9437 26.7382 46.4001 25.6752 46.4001 24.7749C46.4001 23.6829 45.5675 22.7731 44.7771 22.7731C44.4 22.7731 44.0874 23.0164 43.8121 23.2488V25.7059ZM43.8121 22.9557C44.2174 22.6121 44.7667 22.2269 45.3249 22.2269C46.5029 22.2269 47.2119 23.2493 47.2119 24.3514C47.2119 25.6758 46.2379 27.0013 44.7861 27.0013C44.0358 27.0013 43.6399 26.7581 43.3748 26.6468L43.0712 26.8796L42.8594 26.7679C42.9481 26.1717 43.0008 25.5853 43.0008 24.9673V20.6198C43.0008 19.9618 42.848 19.9415 42.4619 19.8302V19.6691C42.8693 19.5371 43.2945 19.3557 43.5074 19.234C43.6195 19.1743 43.7 19.1223 43.7318 19.1223C43.7928 19.1223 43.8121 19.182 43.8121 19.2643V22.9557Z" fill="#00529E"/>
<path d="M0.0253214 32.7298H0.101445C0.30026 32.7298 0.50995 32.7022 0.50995 32.4158V29.5325C0.50995 29.246 0.30026 29.2185 0.101445 29.2185H0.0253214V29.0532C0.240309 29.0532 0.571574 29.0756 0.84233 29.0756C1.11825 29.0756 1.44951 29.0532 1.70939 29.0532V29.2185H1.63215C1.43334 29.2185 1.22365 29.2466 1.22365 29.5325V32.4158C1.22365 32.7022 1.43334 32.7298 1.63215 32.7298H1.70939V32.8951C1.44435 32.8951 1.11211 32.8727 0.837171 32.8727C0.565858 32.8727 0.23989 32.8951 0.0249023 32.8951V32.7298H0.0253214Z" fill="#00529E"/>
<path d="M1.68505 32.871V32.7529H1.63179C1.43409 32.7529 1.19986 32.7186 1.19874 32.4156V29.5323C1.19972 29.2288 1.43409 29.1954 1.63179 29.1954H1.68505V29.0769C1.43046 29.0769 1.11021 29.0993 0.842523 29.0993C0.579574 29.0993 0.262948 29.0781 0.0490759 29.0769V29.1954H0.102335C0.300035 29.1954 0.534262 29.2286 0.534262 29.5323V32.4156C0.534262 32.7186 0.300035 32.7529 0.102335 32.7529H0.0490759V32.8708C0.262948 32.8682 0.574973 32.8479 0.837921 32.8479C1.10491 32.8481 1.42419 32.8693 1.68505 32.871ZM1.70903 32.9172C1.44092 32.9172 1.11119 32.8954 0.836806 32.8954C0.565493 32.8954 0.240501 32.9172 0.0245374 32.9172H0V32.8939V32.7297V32.7064H0.0245374H0.100662C0.301568 32.7007 0.483513 32.6851 0.484628 32.4158V29.5324C0.483652 29.2627 0.301011 29.246 0.100662 29.2424H0V29.2179V29.0293H0.0245374C0.240501 29.0293 0.571766 29.0511 0.841546 29.0511C1.11648 29.0511 1.44663 29.0293 1.70861 29.0293H1.73315V29.0537V29.2424H1.70861H1.63137C1.43046 29.246 1.2474 29.2627 1.24643 29.5324V32.4158C1.2474 32.685 1.43116 32.7005 1.63137 32.7064H1.73315V32.7297V32.9174H1.70903V32.9172Z" fill="#00529E"/>
<path d="M5.50298 31.81L5.51399 31.799V29.7354C5.51399 29.2848 5.1989 29.2183 5.03411 29.2183H4.91197V29.0529C5.17171 29.0529 5.4263 29.0753 5.68506 29.0753C5.91148 29.0753 6.13846 29.0529 6.36488 29.0529V29.2183H6.28248C6.05035 29.2183 5.79047 29.263 5.79047 29.9174V32.4207C5.79047 32.6135 5.79563 32.8063 5.82337 32.9763H5.61312L2.76935 29.8175V32.0853C2.76935 32.5635 2.86332 32.7288 3.28785 32.7288H3.38182V32.8941C3.1455 32.8941 2.90807 32.8717 2.66966 32.8717C2.42191 32.8717 2.16732 32.8941 1.91902 32.8941V32.7288H1.99626C2.37701 32.7288 2.49232 32.47 2.49232 32.0302V29.7124C2.49232 29.4052 2.23871 29.2176 1.99096 29.2176H1.91846V29.0522C2.12815 29.0522 2.34411 29.0746 2.55338 29.0746C2.71929 29.0746 2.87949 29.0522 3.0454 29.0522L5.50298 31.81Z" fill="#00529E"/>
<path d="M5.49069 31.7985V31.7975L5.48651 31.7924L5.49069 31.7985ZM5.50268 31.81L5.52095 31.7933L5.50268 31.81ZM5.61269 32.9519H5.79533C5.77079 32.7871 5.76661 32.6036 5.76661 32.4207V29.9174C5.76661 29.2573 6.04364 29.1955 6.28205 29.1955H6.33991V29.077C6.12186 29.078 5.9038 29.0982 5.68463 29.0982C5.43214 29.0982 5.18536 29.078 4.93649 29.077L4.9344 29.1955H5.03242C5.20251 29.1955 5.53684 29.2698 5.53684 29.7366L5.53057 31.8157L5.51955 31.8267L5.50031 31.8449L3.04469 29.077C2.88087 29.077 2.72179 29.0982 2.55169 29.0982C2.34981 29.0982 2.14319 29.078 1.94242 29.077L1.94145 29.1955H1.99052C2.24929 29.1955 2.51642 29.3915 2.51642 29.7132V32.031C2.51642 32.4718 2.39331 32.752 1.9968 32.7546L1.94256 32.752V32.871C2.18195 32.8684 2.42775 32.8481 2.66923 32.8481C2.89927 32.8481 3.12987 32.8684 3.35685 32.871V32.7541H3.28742C2.8534 32.7514 2.74535 32.5639 2.74535 32.0856V29.7564L5.61269 32.9519ZM5.82238 32.9998L5.59498 32.992L2.79192 29.8795V32.0855C2.79819 32.5636 2.87125 32.7004 3.287 32.7056H3.40537V32.7289V32.9166H3.38083C3.14242 32.9166 2.90401 32.8948 2.66867 32.8948C2.42189 32.8948 2.16842 32.9166 1.91802 32.9166H1.89349V32.8933V32.7056H1.91802H1.99624C2.35985 32.7025 2.46372 32.469 2.4679 32.0303V29.7125C2.46692 29.4209 2.22642 29.2421 1.9901 29.2421H1.89307V29.2162V29.0291H1.9176C2.12841 29.0291 2.34437 29.0509 2.55141 29.0509C2.71621 29.0509 2.87543 29.0291 3.06267 29.0368L5.48958 31.7605V29.736C5.48651 29.2983 5.19331 29.2458 5.032 29.2421H4.88644V29.2162V29.0291H4.91098C5.17184 29.0291 5.42642 29.0509 5.68407 29.0509C5.90938 29.0509 6.13538 29.0291 6.36389 29.0291H6.38731V29.0535V29.2421H6.36389H6.28149C6.05298 29.249 5.81875 29.2681 5.81304 29.9169V32.4201C5.81304 32.6124 5.8182 32.8048 5.84594 32.9727L5.85221 32.9998H5.82238Z" fill="#00529E"/>
<path d="M7.19195 29.3286C6.77718 29.3286 6.761 29.4274 6.67861 29.8291H6.5127C6.53514 29.6748 6.56275 29.5214 6.57892 29.3613C6.60137 29.2069 6.61224 29.053 6.61224 28.8945H6.74469C6.78959 29.0598 6.92733 29.0536 7.07707 29.0536H9.926C10.0757 29.0536 10.2135 29.0489 10.2234 28.8835L10.3558 28.9059C10.3345 29.0536 10.3121 29.2022 10.2959 29.3514C10.2854 29.4995 10.2854 29.6483 10.2854 29.7969L10.1195 29.8578C10.1075 29.6545 10.0809 29.3286 9.71004 29.3286H8.80547V32.2561C8.80547 32.6798 8.99801 32.7297 9.26305 32.7297H9.3679V32.895C9.15403 32.895 8.76685 32.8726 8.46793 32.8726C8.13667 32.8726 7.74964 32.895 7.53465 32.895V32.7297H7.6395C7.94413 32.7297 8.09708 32.7022 8.09708 32.2677V29.3288L7.19195 29.3286Z" fill="#00529E"/>
<path d="M9.36838 32.9171C9.1513 32.9171 8.76525 32.8953 8.46744 32.8953C8.13715 32.8953 7.75012 32.9171 7.53415 32.9171H7.51073V32.8948V32.7061H7.53415H7.639C7.94363 32.6978 8.06577 32.6951 8.07204 32.2674V29.353H7.19145V29.3285V29.3041H8.11958V32.2674C8.11958 32.7093 7.94112 32.7535 7.63858 32.7545H7.55716V32.8703C7.77424 32.8688 8.14719 32.8485 8.46702 32.8485C8.75549 32.8485 9.1244 32.8688 9.34343 32.8703V32.7545H9.262C8.99487 32.7535 8.781 32.689 8.781 32.256V29.3041H9.71011C10.081 29.3051 10.1291 29.6186 10.1411 29.8239L10.2605 29.7803C10.2605 29.6379 10.2615 29.4929 10.271 29.3478C10.2881 29.2059 10.3085 29.0656 10.3289 28.9247L10.2449 28.9112C10.2194 29.0708 10.0634 29.0796 9.9251 29.0771H7.07727H7.04757C6.91819 29.0771 6.77626 29.0714 6.72774 28.918H6.63586C6.63488 29.0693 6.62484 29.2164 6.60254 29.3635C6.58734 29.5148 6.56182 29.6599 6.54258 29.8054H6.65998C6.73359 29.4229 6.77946 29.2987 7.19257 29.3038V29.3283V29.3527C6.78309 29.3595 6.79187 29.4286 6.70167 29.835L6.6986 29.8532H6.67936H6.48584L6.48891 29.8252C6.51135 29.6712 6.54007 29.5169 6.55625 29.3573C6.57869 29.2045 6.58915 29.0517 6.58915 28.8936V28.8686H6.61369H6.76552L6.76859 28.8862C6.80609 29.0265 6.90843 29.0265 7.04869 29.0286H7.07838H9.92621C10.0801 29.026 10.1922 29.0239 10.2012 28.88L10.2032 28.854L10.2288 28.8597L10.3848 28.8841L10.3806 28.9086C10.3593 29.0551 10.3368 29.2038 10.3206 29.3524C10.3102 29.4984 10.3102 29.6467 10.3102 29.7963V29.8124L10.295 29.8196L10.0983 29.8909L10.0973 29.8581C10.0832 29.6522 10.0608 29.3528 9.71234 29.3528H8.83119V32.2559C8.83635 32.6717 9.00129 32.7003 9.26424 32.706H9.39362V32.7293V32.917L9.36838 32.9171Z" fill="#00529E"/>
<path d="M10.5322 32.7298H10.6104C10.8093 32.7298 11.0178 32.7023 11.0178 32.4158V29.5325C11.0178 29.246 10.8091 29.2185 10.6104 29.2185H10.5322V29.0532C10.8687 29.0532 11.4442 29.0756 11.9069 29.0756C12.3718 29.0756 12.9451 29.0532 13.3212 29.0532C13.3119 29.2902 13.317 29.6546 13.3332 29.8957L13.1663 29.9394C13.1408 29.5822 13.0744 29.2963 12.4939 29.2963H11.7265V30.7372H12.3828C12.714 30.7372 12.786 30.551 12.82 30.2532H12.9848C12.9738 30.4684 12.9676 30.6826 12.9676 30.8966C12.9676 31.1056 12.9739 31.315 12.9848 31.524L12.82 31.5568C12.7867 31.2272 12.7699 31.0125 12.3881 31.0125H11.7265V32.2948C11.7265 32.6524 12.0452 32.6524 12.3989 32.6524C13.0615 32.6524 13.3547 32.6082 13.5206 31.9809L13.6745 32.0178C13.603 32.3115 13.5368 32.6015 13.4882 32.8947C13.1336 32.8947 12.4992 32.8723 12.0024 32.8723C11.5043 32.8723 10.8469 32.8947 10.5324 32.8947L10.5322 32.7298Z" fill="#00529E"/>
<path d="M13.4669 32.8698C13.5149 32.5922 13.578 32.3141 13.6463 32.0366L13.5373 32.0091C13.3714 32.625 13.0511 32.679 12.4 32.676C12.0515 32.676 11.7031 32.676 11.701 32.2945V30.9889H12.3875C12.7736 30.9847 12.8131 31.2165 12.8398 31.529L12.9593 31.5045C12.9488 31.3013 12.9441 31.0996 12.9441 30.8963C12.9441 30.6905 12.9492 30.4831 12.9593 30.2762H12.8398C12.809 30.5636 12.7188 30.7644 12.3822 30.7612H11.7008V29.2715H12.4939C13.0687 29.2667 13.1632 29.563 13.1878 29.9082L13.3073 29.8775C13.2979 29.7211 13.2921 29.5221 13.2921 29.3386C13.2921 29.244 13.2942 29.1545 13.2962 29.0771C12.9212 29.0781 12.3618 29.0984 11.9075 29.0984C11.4541 29.0984 10.896 29.0781 10.5573 29.0771V29.1956H10.6115C10.8083 29.1956 11.0425 29.2288 11.0435 29.5325V32.4158C11.0425 32.7188 10.8081 32.7516 10.6115 32.7542H10.5573V32.87C10.8792 32.8695 11.5172 32.8482 12.0024 32.8482C12.4897 32.848 13.11 32.8692 13.4669 32.8698ZM13.4873 32.9171C13.1326 32.9171 12.4982 32.8953 12.0014 32.8953C11.5043 32.8953 10.848 32.9171 10.5324 32.9171H10.5089V32.8948V32.7295V32.7061H10.5324H10.6106C10.8104 32.702 10.9915 32.6849 10.9934 32.4155V29.5322C10.9913 29.264 10.8098 29.2458 10.6106 29.2421H10.5088V29.2177V29.0291H10.5322C10.8692 29.0291 11.4442 29.0509 11.9069 29.0509C12.3717 29.0509 12.9441 29.0291 13.3212 29.0291H13.3457L13.3442 29.0535C13.34 29.1367 13.339 29.2349 13.339 29.3384C13.339 29.5282 13.3442 29.7365 13.3552 29.8935V29.9138L13.3381 29.9195L13.1434 29.9688L13.1425 29.9413C13.1096 29.5837 13.061 29.3238 12.4935 29.3191H11.7485V30.7127H12.3823C12.7001 30.7096 12.7574 30.5474 12.795 30.2501L12.7971 30.2289H12.8184H13.0078V30.2533C12.9973 30.4685 12.9906 30.6827 12.9906 30.8968C12.9906 31.1057 12.9979 31.3142 13.0078 31.5231V31.5423L12.9885 31.5474L12.7971 31.5848L12.795 31.5594C12.7575 31.2236 12.7543 31.039 12.3876 31.0354H11.7485V32.2944C11.7495 32.6281 12.0391 32.6271 12.3996 32.6281C13.0637 32.6245 13.3298 32.5922 13.4973 31.9742L13.5036 31.9518L13.526 31.9565L13.7034 32.0013L13.6982 32.0246C13.6257 32.3162 13.5604 32.6068 13.511 32.8989L13.5068 32.9171H13.4873Z" fill="#00529E"/>
<path d="M15.1276 30.9123H15.3968C15.9514 30.9123 16.2477 30.7039 16.2477 30.0541C16.2477 29.5655 15.9336 29.252 15.4417 29.252C15.2758 29.252 15.2054 29.2681 15.1276 29.2732V30.9123ZM14.4196 29.6357C14.4196 29.2349 14.1995 29.2188 14.0284 29.2188H13.9287V29.0525C14.1061 29.0525 14.4472 29.0749 14.7848 29.0749C15.116 29.0749 15.3811 29.0525 15.6731 29.0525C16.3691 29.0525 16.9883 29.2391 16.9883 30.0218C16.9883 30.5167 16.657 30.8192 16.2209 30.9902L17.1647 32.3978C17.3207 32.6302 17.4297 32.6957 17.7005 32.729V32.8943C17.5178 32.8943 17.341 32.872 17.1595 32.872C16.9884 32.872 16.811 32.8943 16.641 32.8943C16.2163 32.3392 15.8501 31.744 15.4918 31.1104H15.1282V32.2882C15.1282 32.7123 15.327 32.729 15.5795 32.729H15.6791V32.8943C15.3641 32.8943 15.0453 32.872 14.7297 32.872C14.4646 32.872 14.2049 32.8943 13.9289 32.8943V32.729H14.0285C14.2325 32.729 14.4198 32.6359 14.4198 32.4317L14.4196 29.6357Z" fill="#00529E"/>
<path d="M15.3966 30.8896C15.9438 30.8849 16.2188 30.6962 16.225 30.0558C16.222 29.5756 15.9225 29.2778 15.4415 29.2751C15.2917 29.2751 15.2223 29.2891 15.1509 29.2954V30.8896H15.3966ZM15.1263 30.9364H15.1028V29.2523L15.1232 29.2493C15.1993 29.2436 15.2739 29.229 15.4409 29.229C15.9433 29.229 16.2703 29.5539 16.2715 30.0554C16.2694 30.7129 15.9537 30.9364 15.396 30.9364H15.1263ZM15.1263 31.0881H15.5045L15.5108 31.0995C15.8713 31.731 16.2344 32.3251 16.6408 32.8704C16.8088 32.8704 16.9861 32.8474 17.1583 32.8474C17.3347 32.8474 17.5058 32.8666 17.6768 32.8693V32.7492C17.4171 32.7176 17.2959 32.64 17.1447 32.4124L16.1827 30.9788L16.2114 30.9678C16.6433 30.7989 16.9631 30.5037 16.9641 30.0202C16.9631 29.2566 16.3668 29.0799 15.672 29.0769C15.3814 29.0769 15.1169 29.0992 14.7836 29.0992C14.4595 29.0992 14.1315 29.078 13.95 29.0769V29.1954H14.0272C14.1983 29.1954 14.442 29.2229 14.442 29.6362V32.4321C14.442 32.6541 14.2354 32.7533 14.0272 32.7544H13.95V32.8702C14.2171 32.8697 14.4685 32.8484 14.7283 32.8484C15.0372 32.8484 15.3481 32.8697 15.6544 32.8702V32.7544H15.5783C15.3267 32.7533 15.1024 32.7221 15.1024 32.2886V31.0878L15.1263 31.0881ZM17.7003 32.9173C17.5151 32.9173 17.3397 32.8955 17.1582 32.8955C16.9902 32.8955 16.8128 32.9173 16.6214 32.9086C16.1973 32.355 15.8347 31.7645 15.4773 31.136H15.1512V32.2889C15.1575 32.7021 15.3234 32.6995 15.579 32.7063H15.7032V32.7296V32.9173H15.6786C15.362 32.9173 15.0416 32.8955 14.7292 32.8955C14.4653 32.8955 14.2054 32.9173 13.9283 32.9173H13.9038V32.894V32.7063H13.9283H14.028C14.2268 32.7033 14.3947 32.618 14.3947 32.4324V29.6364C14.3905 29.2466 14.1991 29.2476 14.028 29.2429H13.9038V29.2184V29.0298H13.9283C14.1068 29.0298 14.448 29.0516 14.7844 29.0516C15.1147 29.0516 15.3796 29.0298 15.6728 29.0298C16.3698 29.0313 17.0104 29.222 17.0125 30.0211C17.0125 30.5185 16.6833 30.8283 16.2577 31.002L17.1837 32.3867C17.3386 32.6143 17.4352 32.672 17.7043 32.7063L17.7235 32.7084V32.7296V32.9173H17.7003Z" fill="#00529E"/>
<path d="M21.4498 31.81L21.4603 31.799V29.7354C21.4603 29.2848 21.1452 29.2183 20.9814 29.2183H20.8592V29.0529C21.119 29.0529 21.3726 29.0753 21.6323 29.0753C21.8587 29.0753 22.0836 29.0529 22.3131 29.0529V29.2183H22.2296C21.9975 29.2183 21.7376 29.263 21.7376 29.9174V32.4207C21.7376 32.6135 21.7428 32.8063 21.7709 32.9763H21.5607L18.717 29.8175V32.0853C18.717 32.5635 18.8099 32.7288 19.2355 32.7288H19.3284V32.8941C19.0921 32.8941 18.8537 32.8717 18.6173 32.8717C18.3675 32.8717 18.1139 32.8941 17.8667 32.8941V32.7288H17.9424C18.3243 32.7288 18.4406 32.47 18.4406 32.0302V29.7124C18.4406 29.4052 18.1869 29.2176 17.9382 29.2176H17.8667V29.0522C18.0754 29.0522 18.2914 29.0746 18.5016 29.0746C18.6654 29.0746 18.8266 29.0522 18.9925 29.0522L21.4498 31.81Z" fill="#00529E"/>
<path d="M21.4366 31.7991V31.7976L21.4324 31.7934L21.4366 31.7991ZM21.4497 31.8101L21.4668 31.7934L21.4497 31.8101ZM21.5608 32.952H21.7423C21.7178 32.7882 21.7126 32.6037 21.7126 32.4208V29.9175C21.7126 29.2574 21.9917 29.1965 22.229 29.1956H22.2859V29.0771C22.07 29.0781 21.8508 29.0983 21.6318 29.0983C21.3793 29.0983 21.1315 29.0781 20.8815 29.0771V29.1956H20.9801C21.1491 29.1965 21.4836 29.2699 21.4836 29.7357L21.4763 31.8159L21.4653 31.8269L21.4491 31.8451L18.9904 29.0772C18.8266 29.0772 18.6675 29.0985 18.5005 29.0985C18.2954 29.0985 18.0889 29.0782 17.887 29.0772V29.1957H17.9371C18.1959 29.1967 18.463 29.3906 18.463 29.7135V32.0296C18.463 32.4719 18.3378 32.7521 17.9413 32.7547L17.887 32.7537V32.8707C18.1264 32.8692 18.3732 32.8489 18.6154 32.8489C18.8475 32.8489 19.076 32.8692 19.304 32.8707V32.7549H19.2345C18.7994 32.7539 18.6904 32.5647 18.6894 32.0854V29.7579L21.5608 32.952ZM21.7709 32.9999L21.5424 32.9931L18.7393 29.8796V32.0846C18.7466 32.5638 18.8187 32.7005 19.2354 32.7057H19.3517V32.729V32.9167H19.3282C19.0898 32.9167 18.8524 32.8949 18.6161 32.8949C18.3683 32.8949 18.1137 32.9167 17.8658 32.9167H17.8403V32.8943V32.7057H17.8658H17.9416C18.3073 32.7026 18.4121 32.4691 18.4153 32.0289V29.7128C18.4143 29.4201 18.1738 29.2424 17.9375 29.2424H17.8405V29.2179V29.0293H17.866C18.0757 29.0293 18.2916 29.0511 18.5009 29.0511C18.6632 29.0511 18.8228 29.0293 19.0095 29.036L21.4364 31.7606V29.7355C21.4343 29.2989 21.1411 29.2443 20.9809 29.2428H20.8344V29.2184V29.0297H20.8589C21.1187 29.0297 21.3733 29.0515 21.632 29.0515C21.8573 29.0515 22.0822 29.0297 22.3107 29.0297H22.3353V29.0542V29.2428H22.3107H22.2293C22.0008 29.2475 21.7666 29.2688 21.7609 29.9175V32.4208C21.7609 32.613 21.766 32.8043 21.7938 32.9738L21.7968 32.9998H21.7709V32.9999Z" fill="#00529E"/>
<path d="M24.0057 29.6695H23.9947L23.4824 31.2272H24.5149L24.0057 29.6695ZM23.2007 32.1078C23.1449 32.2944 23.0785 32.439 23.0785 32.5361C23.0785 32.7014 23.3107 32.7289 23.4922 32.7289H23.5542V32.8942C23.332 32.8823 23.1071 32.8719 22.8849 32.8719C22.6861 32.8719 22.4884 32.8823 22.2886 32.8942V32.7289H22.3219C22.5369 32.7289 22.7194 32.6015 22.8008 32.3708L23.685 29.8467C23.7575 29.642 23.8572 29.3669 23.8901 29.1642C24.0665 29.103 24.2876 28.9938 24.3924 28.9272C24.4096 28.9215 24.42 28.9163 24.4373 28.9163C24.4525 28.9163 24.4628 28.9163 24.4748 28.9329C24.492 28.9777 24.5077 29.0275 24.526 29.0702L25.5407 31.9482C25.6081 32.1405 25.6743 32.3443 25.7447 32.5107C25.8109 32.6641 25.9283 32.73 26.1114 32.73H26.1432V32.8953C25.8954 32.8834 25.646 32.873 25.3821 32.873C25.1107 32.873 24.8348 32.8834 24.5536 32.8953V32.73H24.6136C24.7399 32.73 24.9568 32.7077 24.9568 32.5704C24.9568 32.4982 24.9068 32.3495 24.8447 32.1738L24.6297 31.5349H23.3756L23.2007 32.1078Z" fill="#00529E"/>
<path d="M23.9819 29.6766L23.9939 29.6724L23.9819 29.6766ZM23.514 31.2027H24.4812L23.9992 29.7281L23.514 31.2027ZM23.4478 31.2506L23.9767 29.645H23.9939H24.0049V29.6695L23.9997 29.6716L24.0049 29.6695V29.645H24.0232L24.547 31.2506H23.4478ZM24.5755 32.8681C24.8494 32.8583 25.1176 32.8478 25.3815 32.8478C25.6371 32.8478 25.8787 32.8588 26.1181 32.8681V32.7527H26.1097C25.9214 32.7542 25.791 32.6789 25.7227 32.5178C25.6502 32.3515 25.584 32.1472 25.5187 31.9553L24.5019 29.0767C24.4848 29.0331 24.469 28.9842 24.454 28.9442C24.4498 28.9385 24.4509 28.9385 24.4456 28.9385H24.4363C24.4252 28.9385 24.418 28.9421 24.4034 28.9463C24.2974 29.0155 24.0752 29.1235 23.9113 29.1667C23.878 29.3747 23.7778 29.6502 23.7063 29.8539L22.823 32.3786C22.7385 32.6182 22.545 32.7539 22.3186 32.7528H22.3114V32.8683C22.4997 32.8584 22.6917 32.848 22.8831 32.848C23.097 32.848 23.315 32.859 23.5247 32.8683V32.7527H23.4903C23.3109 32.7512 23.0593 32.7309 23.0521 32.5369C23.0531 32.4262 23.1204 32.2859 23.1742 32.1003L23.1988 32.1076L23.1742 32.0998L23.3569 31.5104H24.6448L24.8671 32.1654C24.927 32.3421 24.9792 32.4882 24.9792 32.5692C24.9698 32.7375 24.7366 32.75 24.6125 32.7527H24.575V32.8681H24.5755ZM26.1417 32.917C25.8928 32.9066 25.6445 32.8952 25.3815 32.8952C25.1102 32.8952 24.8364 32.9066 24.5531 32.917L24.5276 32.9191V32.8947V32.7039H24.5531H24.613C24.7413 32.7039 24.9297 32.6748 24.9297 32.5699C24.9318 32.5081 24.8827 32.3557 24.8206 32.181L24.6119 31.5579H23.3933L23.2211 32.1145C23.1663 32.3016 23.0989 32.4482 23.1001 32.5371C23.1021 32.6711 23.3088 32.7034 23.4913 32.7034H23.5758V32.7288V32.9185L23.5512 32.9165C23.33 32.906 23.1052 32.8947 22.884 32.8947C22.6863 32.8947 22.4874 32.906 22.2897 32.9165L22.2646 32.9191V32.8947V32.7039H22.2881H22.3199C22.5275 32.703 22.6981 32.587 22.7784 32.364L23.6616 29.8384C23.7341 29.634 23.8338 29.3597 23.8818 29.1409C24.0549 29.0821 24.2762 28.9714 24.3831 28.9054C24.3983 28.8992 24.414 28.892 24.4374 28.892C24.4505 28.891 24.4791 28.8956 24.4973 28.9242C24.5135 28.9699 24.5307 29.0188 24.5474 29.0635L25.5642 31.9411C25.6294 32.1345 25.6945 32.3377 25.7672 32.5004C25.8324 32.647 25.9331 32.7042 26.1104 32.7052H26.1662V32.7306V32.9204L26.1417 32.917Z" fill="#00529E"/>
<path d="M26.3863 29.3286C25.9726 29.3286 25.9553 29.4274 25.8729 29.8291H25.7061C25.7274 29.6748 25.7561 29.5214 25.7734 29.3613C25.7958 29.2069 25.8067 29.053 25.8067 28.8945H25.9392C25.9829 29.0598 26.1218 29.0536 26.2695 29.0536H29.1205C29.2681 29.0536 29.4068 29.0489 29.4179 28.8835L29.5503 28.9059C29.529 29.0536 29.5075 29.2022 29.4904 29.3514C29.4784 29.4995 29.4784 29.6483 29.4784 29.7969L29.313 29.8572C29.302 29.654 29.2755 29.3281 28.9045 29.3281H27.9984V32.2556C27.9984 32.6793 28.1919 32.7291 28.457 32.7291H28.5618V32.8944C28.3468 32.8944 27.9598 32.8721 27.6609 32.8721C27.3306 32.8721 26.9436 32.8944 26.7286 32.8944V32.7291H26.8324C27.1371 32.7291 27.292 32.7016 27.292 32.2671V29.3282H26.3863V29.3286Z" fill="#00529E"/>
<path d="M28.5619 32.9173C28.3448 32.9173 27.9587 32.8955 27.6609 32.8955C27.3318 32.8955 26.9447 32.9173 26.7286 32.9173H26.7046V32.895V32.7063H26.7292H26.833C27.1377 32.698 27.2598 32.6954 27.2671 32.2676V29.3532H26.3865V29.3287V29.3043H27.3156V32.2676C27.3156 32.7095 27.1361 32.752 26.8325 32.7537H26.7511V32.8716C26.9702 32.869 27.3411 32.8487 27.6609 32.8487C27.9505 32.8487 28.3193 32.869 28.5384 32.8716L28.5375 32.7537H28.4572C28.1911 32.7522 27.9752 32.6892 27.9752 32.2562V29.3043H28.9043C29.2751 29.3053 29.3242 29.6188 29.3341 29.8241L29.4542 29.7805C29.4542 29.6381 29.4542 29.4931 29.4652 29.349C29.4813 29.2071 29.5017 29.0658 29.522 28.9259L29.4385 28.9119C29.413 29.0715 29.2559 29.0802 29.1198 29.0777H26.2688H26.2412C26.1108 29.0787 25.9699 29.072 25.9204 28.9171H25.8306C25.8285 29.0699 25.8175 29.2171 25.7962 29.3642C25.7821 29.5155 25.7545 29.662 25.7341 29.8061H25.8525C25.925 29.4235 25.9725 29.2978 26.3862 29.3044V29.3289V29.3533C25.9767 29.3601 25.9855 29.4292 25.8953 29.8356L25.8911 29.8538H25.8729H25.6782L25.6813 29.8268C25.7047 29.6719 25.7313 29.5175 25.7486 29.3589C25.7711 29.205 25.782 29.0522 25.782 28.8942V28.8692H25.8065H25.9562L25.9614 28.8869C25.9989 29.0272 26.1001 29.0272 26.2415 29.0292C26.2519 29.0292 26.2597 29.0292 26.2691 29.0292H29.1201C29.2719 29.0266 29.384 29.0245 29.3939 28.8816V28.8545L29.4206 28.8602L29.5775 28.8846L29.5734 28.9091C29.5499 29.0556 29.5296 29.2043 29.5123 29.3529C29.5018 29.4989 29.5018 29.6477 29.5018 29.7968V29.8129L29.4857 29.8201L29.2901 29.8914L29.2891 29.8586C29.275 29.6527 29.2537 29.3533 28.9041 29.3533H28.0236V32.2564C28.0277 32.6722 28.1925 32.7008 28.4566 32.7065H28.585V32.7298V32.9175H28.562L28.5619 32.9173Z" fill="#00529E"/>
<path d="M29.754 32.7298H29.8301C30.0299 32.7298 30.2386 32.7022 30.2386 32.4158V29.5325C30.2386 29.246 30.0299 29.2185 29.8301 29.2185H29.754V29.0532C29.9699 29.0532 30.3002 29.0756 30.571 29.0756C30.848 29.0756 31.1782 29.0532 31.439 29.0532V29.2185H31.3618C31.162 29.2185 30.9523 29.2466 30.9523 29.5325V32.4158C30.9523 32.7022 31.162 32.7298 31.3618 32.7298H31.439V32.8951C31.173 32.8951 30.8417 32.8727 30.5657 32.8727C30.2944 32.8727 29.9694 32.8951 29.7534 32.8951V32.7298H29.754Z" fill="#00529E"/>
<path d="M31.4149 32.8698V32.7528H31.3617C31.164 32.7528 30.9287 32.7185 30.9287 32.4155V29.5322C30.9287 29.2287 31.164 29.1953 31.3617 29.1953H31.4149V29.0768C31.1594 29.0778 30.8401 29.0981 30.5715 29.0981C30.3085 29.0981 29.9929 29.0778 29.7784 29.0768V29.1953H29.8306C30.0283 29.1953 30.2625 29.2285 30.2636 29.5322V32.4155C30.2626 32.7185 30.0283 32.7528 29.8306 32.7528H29.7784V32.8698C29.9913 32.8671 30.3032 32.848 30.5662 32.848C30.8333 32.848 31.1541 32.8682 31.4149 32.8698ZM31.4385 32.9171C31.1725 32.9171 30.8412 32.8953 30.5663 32.8953C30.2961 32.8953 29.97 32.9171 29.754 32.9171H29.7295V32.8948V32.7295V32.7061H29.754H29.8302C30.0299 32.702 30.213 32.6849 30.2141 32.4155V29.5322C30.2131 29.264 30.0294 29.2458 29.8302 29.2421H29.7295V29.2177V29.0291H29.754C29.97 29.0291 30.3013 29.0509 30.571 29.0509C30.846 29.0509 31.1772 29.0291 31.4381 29.0291H31.4615V29.0535V29.2421H31.4381H31.362C31.159 29.2458 30.978 29.264 30.9759 29.5322V32.4155C30.978 32.6847 31.1595 32.702 31.362 32.7061H31.4617V32.7295V32.9171H31.4385Z" fill="#00529E"/>
<path d="M33.7252 32.7353C34.7972 32.7353 34.9835 31.7929 34.9835 30.9909C34.9835 30.1863 34.5484 29.2127 33.6313 29.2127C32.6641 29.2127 32.3772 30.0724 32.3772 30.8084C32.3772 31.7934 32.8306 32.7353 33.7252 32.7353ZM33.6402 28.9709C34.8191 28.9709 35.7577 29.6976 35.7577 30.8702C35.7577 32.1349 34.8458 32.9764 33.6699 32.9764C32.4982 32.9764 31.6035 32.1853 31.6035 31.0012C31.6035 29.8572 32.493 28.9709 33.6402 28.9709Z" fill="#00529E"/>
<path d="M32.3523 30.8082C32.3544 30.0669 32.6449 29.189 33.6309 29.189C34.5684 29.1899 35.0056 30.1807 35.0077 30.9906C35.0056 31.7931 34.8163 32.7573 33.7249 32.7573V32.7349V32.7105C34.7746 32.709 34.9576 31.7925 34.9586 30.99C34.9586 30.1926 34.5277 29.2383 33.6309 29.2362C32.6835 29.2372 32.4023 30.0746 32.4013 30.8075C32.4013 31.7878 32.8506 32.7078 33.7249 32.7099V32.7344V32.7573C32.8077 32.7569 32.3544 31.7984 32.3523 30.8082ZM31.5786 31.001C31.5817 29.8434 32.4796 28.9484 33.6398 28.9463V28.9707V28.9941C32.5046 28.9941 31.6266 29.8694 31.6256 31.001C31.6287 32.1705 32.5098 32.9512 33.6695 32.9518C34.8328 32.9512 35.7317 32.1216 35.7338 30.8679C35.7328 29.7103 34.8089 28.9956 33.6397 28.9941V28.9707V28.9463C34.8266 28.9473 35.7785 29.6818 35.7797 30.8679C35.7787 32.1472 34.8563 32.998 33.6694 32.9996C32.4879 32.998 31.5818 32.1976 31.5786 31.001Z" fill="#00529E"/>
<path d="M39.4776 31.81L39.4896 31.799V29.7354C39.4896 29.2848 39.1739 29.2183 39.0076 29.2183H38.8876V29.0529C39.1463 29.0529 39.4009 29.0753 39.6597 29.0753C39.8882 29.0753 40.114 29.0529 40.3405 29.0529V29.2183H40.2569C40.0258 29.2183 39.766 29.263 39.766 29.9174V32.4207C39.766 32.6135 39.7712 32.8063 39.7994 32.9763H39.5897L36.7449 29.8175V32.0853C36.7449 32.5635 36.8378 32.7288 37.2646 32.7288H37.3585V32.8941C37.1201 32.8941 36.8827 32.8717 36.6464 32.8717C36.3975 32.8717 36.1429 32.8941 35.8936 32.8941V32.7288H35.9718C36.3537 32.7288 36.469 32.47 36.469 32.0302V29.7124C36.469 29.4052 36.2154 29.2176 35.9656 29.2176H35.8931V29.0522C36.1039 29.0522 36.3187 29.0746 36.529 29.0746C36.6949 29.0746 36.8551 29.0522 37.0199 29.0522L39.4776 31.81Z" fill="#00529E"/>
<path d="M39.4651 31.799V31.7975L39.4609 31.7933L39.4651 31.799ZM39.4771 31.81L39.4953 31.7933L39.4771 31.81ZM39.5893 32.9519H39.7699C39.7464 32.7871 39.7411 32.6036 39.7411 32.4207V29.9174C39.7411 29.2558 40.0203 29.1964 40.2566 29.1955H40.3156V29.077C40.0975 29.078 39.8804 29.0982 39.6593 29.0982C39.4078 29.0982 39.1611 29.078 38.9102 29.077V29.1955H39.0082C39.1783 29.1964 39.5126 29.2709 39.5126 29.7366L39.5064 31.8157L39.4953 31.8267L39.4771 31.8449L37.0194 29.077C36.8561 29.077 36.6954 29.0982 36.5285 29.0982C36.3245 29.0982 36.1179 29.078 35.916 29.077V29.1955H35.9651C36.2248 29.1964 36.4919 29.3904 36.4919 29.7132V32.031C36.4919 32.4718 36.3688 32.752 35.9713 32.7546L35.9165 32.7536V32.8706C36.157 32.8691 36.4027 32.8488 36.6459 32.8488C36.8749 32.8488 37.1044 32.8691 37.3335 32.8706V32.7548H37.262C36.8289 32.7538 36.7199 32.5646 36.7199 32.0863V29.7571L39.5893 32.9519ZM39.799 32.9998L39.5699 32.992L36.768 29.8795V32.0855C36.7752 32.5636 36.8483 32.6993 37.262 32.7035H37.3814V32.7289V32.9166H37.358C37.1186 32.9166 36.8812 32.8948 36.6459 32.8948C36.397 32.8948 36.1445 32.9166 35.8931 32.9166H35.8701V32.8933V32.7035H35.8926H35.9708C36.3344 32.7025 36.4392 32.469 36.4434 32.0303V29.7125C36.4434 29.4198 36.2019 29.2421 35.9645 29.2421H35.8701V29.2177V29.0291H35.8926C36.1043 29.0291 36.3203 29.0509 36.5285 29.0509C36.6923 29.0509 36.8504 29.0291 37.0392 29.0368L39.4649 31.7605V29.736C39.4638 29.2983 39.1697 29.2458 39.0085 29.2421H38.8629V29.2177V29.0291H38.8875C39.1472 29.0291 39.4018 29.0509 39.6596 29.0509C39.8849 29.0509 40.1109 29.0291 40.3394 29.0291H40.3639V29.0535V29.2421H40.3394H40.257C40.0296 29.249 39.7954 29.2681 39.7895 29.9169V32.4201C39.7895 32.6124 39.7947 32.8048 39.8213 32.9731L39.8255 32.9991H39.7989V32.9998H39.799Z" fill="#00529E"/>
<path d="M42.0342 29.6695H42.0232L41.5099 31.2272H42.5428L42.0342 29.6695ZM41.2271 32.1078C41.1729 32.2944 41.1061 32.439 41.1061 32.5361C41.1061 32.7014 41.3382 32.7289 41.5198 32.7289H41.5808V32.8942C41.3596 32.8823 41.1337 32.8719 40.9126 32.8719C40.7138 32.8719 40.5151 32.8823 40.3174 32.8942V32.7289H40.3492C40.5651 32.7289 40.7478 32.6015 40.8291 32.3708L41.7133 29.8467C41.7858 29.642 41.8855 29.3669 41.9184 29.1642C42.0957 29.103 42.3158 28.9938 42.4218 28.9272C42.437 28.9215 42.4484 28.9163 42.4646 28.9163C42.4818 28.9163 42.4922 28.9163 42.5032 28.9329C42.5215 28.9777 42.5367 29.0275 42.5544 29.0702L43.5691 31.9482C43.6353 32.1405 43.7016 32.3443 43.7742 32.5107C43.8404 32.6641 43.9568 32.73 44.1389 32.73H44.1718V32.8953C43.9241 32.8834 43.6758 32.873 43.4107 32.873C43.1394 32.873 42.8635 32.8834 42.5813 32.8953V32.73H42.6424C42.7686 32.73 42.9856 32.7077 42.9856 32.5704C42.9856 32.4982 42.9345 32.3495 42.8735 32.1738L42.6597 31.5349H41.4056L41.2271 32.1078Z" fill="#00529E"/>
<path d="M42.0125 29.6765L42.0235 29.6723L42.0125 29.6765ZM41.5441 31.2026H42.5091L42.0293 29.7296L41.5441 31.2026ZM41.4767 31.2505L42.0068 29.645H42.024H42.035V29.6694L42.0287 29.6715L42.035 29.6694V29.645H42.0521L42.5748 31.2505H41.4767ZM42.6056 32.869C42.8785 32.8581 43.1477 32.8478 43.4106 32.8478C43.6673 32.8478 43.9078 32.8587 44.1483 32.8681L44.1473 32.7526H44.138C43.9508 32.7536 43.8203 32.6789 43.7519 32.5177C43.6794 32.3514 43.6132 32.1471 43.548 31.9553L42.5312 29.0767C42.514 29.0331 42.4978 28.9842 42.4842 28.9451C42.48 28.9383 42.48 28.9383 42.4758 28.9383H42.4648C42.4528 28.9383 42.4486 28.943 42.434 28.9461C42.3259 29.0132 42.1048 29.1243 41.942 29.1666C41.9075 29.3745 41.8074 29.6489 41.7359 29.8538L40.8517 32.3784C40.7672 32.618 40.5747 32.7537 40.3494 32.7526H40.341V32.8681C40.5303 32.8582 40.7213 32.8478 40.9128 32.8478C41.1266 32.8478 41.3447 32.8587 41.5576 32.8681V32.7526H41.5201C41.3406 32.7511 41.0891 32.7318 41.0819 32.5359C41.0829 32.4262 41.1523 32.287 41.205 32.1003L41.2274 32.1075L41.205 32.0997L41.3876 31.5103H42.6746L42.8959 32.1653C42.957 32.342 43.007 32.4881 43.007 32.5691C42.9998 32.7375 42.7676 32.75 42.6424 32.7526H42.6059L42.6056 32.869ZM44.1708 32.917C43.9209 32.9081 43.6736 32.8951 43.4106 32.8951C43.1404 32.8951 42.8634 32.9082 42.5822 32.917L42.5577 32.919V32.8936V32.7059H42.5811H42.6421C42.7704 32.7059 42.9599 32.6748 42.9609 32.5698C42.9618 32.508 42.9118 32.3567 42.8497 32.181L42.6401 31.5578H41.4214L41.2513 32.1144C41.1965 32.3027 41.1291 32.4481 41.1303 32.5365C41.1303 32.6716 41.3369 32.7059 41.5205 32.7059H41.605V32.7293V32.919L41.5805 32.917C41.3592 32.9081 41.1333 32.8951 40.9132 32.8951C40.7155 32.8951 40.5167 32.9082 40.318 32.917L40.2935 32.919V32.8936V32.7059H40.318H40.3498C40.5549 32.7039 40.7269 32.5863 40.8083 32.3639L41.6916 29.8383C41.7631 29.6341 41.8626 29.3596 41.9107 29.1409C42.085 29.0811 42.3061 28.9714 42.4142 28.9054C42.4273 28.8991 42.4439 28.8935 42.4654 28.8935C42.4806 28.8908 42.5091 28.8955 42.5264 28.9251C42.5426 28.9687 42.5593 29.0188 42.5776 29.0633L43.5933 31.9409C43.6585 32.1343 43.7248 32.3375 43.7973 32.5008C43.8614 32.6468 43.9611 32.704 44.1384 32.7066H44.1963V32.73V32.9197L44.1708 32.917Z" fill="#00529E"/>
<path d="M45.565 32.3546C45.565 32.5761 45.7178 32.6415 45.8953 32.6635C46.1217 32.6796 46.37 32.6796 46.6236 32.6525C46.8558 32.6244 47.0546 32.4925 47.1547 32.3546C47.2424 32.2335 47.2924 32.0797 47.3248 31.9586H47.486C47.426 32.2726 47.3482 32.5808 47.2809 32.8947C46.7957 32.8947 46.309 32.8724 45.8238 32.8724C45.3365 32.8724 44.8519 32.8947 44.3657 32.8947V32.7294H44.4418C44.6407 32.7294 44.8566 32.7019 44.8566 32.3609V29.5327C44.8566 29.2463 44.6407 29.2188 44.4418 29.2188H44.3657V29.0535C44.6574 29.0535 44.9453 29.0758 45.2379 29.0758C45.5201 29.0758 45.7951 29.0535 46.0774 29.0535V29.2188H45.9387C45.729 29.2188 45.5646 29.2256 45.5646 29.5156V32.3548L45.565 32.3546Z" fill="#00529E"/>
<path d="M47.2608 32.87C47.324 32.5721 47.3965 32.28 47.4564 31.9822H47.3432C47.3088 32.1012 47.2597 32.2504 47.171 32.3694C47.0692 32.5118 46.8643 32.647 46.6248 32.6766C46.4803 32.6906 46.3373 32.6984 46.2006 32.6984C46.0937 32.6984 45.9909 32.6937 45.8907 32.687C45.7101 32.6678 45.537 32.5903 45.537 32.3549V29.5153C45.537 29.2097 45.7316 29.1956 45.9377 29.1956H46.0509V29.0772C45.7796 29.0781 45.512 29.0995 45.2365 29.0995C44.9502 29.0995 44.6699 29.0783 44.3877 29.0772V29.1956H44.441C44.6377 29.1956 44.8792 29.2289 44.8792 29.532V32.3607C44.8792 32.7173 44.6387 32.7531 44.441 32.7531H44.3877V32.8701C44.8646 32.8695 45.3424 32.8483 45.8224 32.8483C46.3024 32.8481 46.7829 32.8694 47.2608 32.87ZM47.28 32.9173C46.7928 32.9173 46.3081 32.8955 45.8229 32.8955C45.3368 32.8955 44.851 32.9173 44.3628 32.9173H44.3403V32.894V32.7063H44.3628H44.441C44.6398 32.7006 44.8291 32.6871 44.8322 32.3611V29.5324C44.8291 29.2647 44.6418 29.2465 44.441 29.2429H44.3403V29.2184V29.0298H44.3628C44.657 29.0298 44.9444 29.0516 45.2371 29.0516C45.5172 29.0516 45.7921 29.0298 46.0766 29.0298H46.099V29.0542V29.2429H46.0766H45.9378C45.724 29.2476 45.5904 29.2393 45.5862 29.5153V32.3549C45.5883 32.5602 45.7219 32.6157 45.895 32.6402C45.9921 32.6474 46.0948 32.6512 46.2008 32.6512C46.3364 32.6512 46.4767 32.6444 46.6197 32.6294C46.8441 32.6023 47.0387 32.4739 47.1341 32.3419C47.2186 32.225 47.2665 32.0727 47.3 31.9537L47.3051 31.9349H47.3234H47.5127L47.5086 31.9645C47.4454 32.279 47.3698 32.5867 47.3025 32.8997L47.2973 32.9179H47.28V32.9173Z" fill="#00529E"/>
<path d="M47.3244 29.4777H47.3938C47.4684 29.4777 47.504 29.4222 47.504 29.3306C47.504 29.2381 47.4492 29.2059 47.3898 29.2059H47.3245V29.4777H47.3244ZM47.1288 29.7834V29.7553C47.2003 29.7449 47.2133 29.7475 47.2133 29.7028V29.274C47.2133 29.2146 47.207 29.1934 47.1309 29.197V29.1678H47.4292C47.531 29.1678 47.6249 29.2152 47.6249 29.3206C47.6249 29.4069 47.568 29.4704 47.4871 29.4952L47.583 29.6289C47.6279 29.6876 47.678 29.7453 47.7113 29.765V29.7832H47.5971C47.5429 29.7832 47.4953 29.6694 47.3884 29.5171H47.3243V29.7089C47.3243 29.7474 47.3374 29.7447 47.4099 29.7552V29.7832L47.1288 29.7834ZM47.4182 29.9477C47.678 29.9477 47.8779 29.7272 47.8779 29.4777C47.8779 29.2288 47.6812 29.0053 47.4182 29.0053C47.1564 29.0053 46.9566 29.2294 46.9566 29.4777C46.9566 29.7272 47.1564 29.9477 47.4182 29.9477ZM47.4182 28.8972C47.7506 28.8972 47.9999 29.153 47.9999 29.4779C47.9999 29.8032 47.7501 30.0554 47.4182 30.0554C47.0864 30.0554 46.8354 29.8032 46.8354 29.4779C46.835 29.153 47.086 28.8972 47.4182 28.8972Z" fill="#00529E"/>
</svg>
