<svg width="48" height="34" viewBox="0 0 48 34" fill="none" xmlns="http://www.w3.org/2000/svg">
<path d="M48 30.2653C48 31.8324 46.7297 33.1028 45.1627 33.1028H2.83734C1.27031 33.1029 0 31.8324 0 30.2653V2.83744C0 1.27041 1.27031 0 2.83734 0H45.1627C46.7298 0 48 1.27041 48 2.83744V30.2653Z" fill="#00529E"/>
<path d="M25.3188 17.7522C28.8173 17.7692 32.0109 14.91 32.0109 11.4312C32.0109 7.62809 28.8168 4.99861 25.3188 5H22.3077C18.7679 4.99861 15.853 7.62874 15.853 11.4312C15.853 14.9107 18.7679 17.7692 22.3077 17.7522H25.3188Z" fill="white"/>
<path d="M23.6516 14.8184V7.91177C25.0448 8.444 26.0339 9.78861 26.0363 11.3649C26.0339 12.9413 25.0448 14.2848 23.6516 14.8184ZM18.61 11.3649C18.6128 9.78926 19.6005 8.44576 20.9931 7.91177V14.8173C19.6005 14.2837 18.6128 12.9406 18.61 11.3649ZM22.3223 5.52734C19.0875 5.52799 16.4655 8.14117 16.4648 11.3649C16.4655 14.5887 19.0875 17.2005 22.3223 17.2019C25.5585 17.2005 28.1812 14.5887 28.1812 11.3649C28.1812 8.14117 25.5581 5.52808 22.3223 5.52734Z" fill="#00529E"/>
<path d="M9.30902 22.1039C9.30902 22.6233 9.68118 22.683 10.0126 22.683C11.4744 22.683 11.954 21.5848 11.954 20.5803C11.954 19.3193 11.1423 18.4096 9.83668 18.4096C9.55812 18.4096 9.43115 18.4297 9.30874 18.4366V22.1039H9.30902ZM8.64547 18.9414C8.64547 18.335 8.32824 18.3745 8.02393 18.3686V18.1936C8.28752 18.2061 8.55782 18.2061 8.82207 18.2061C9.10583 18.2061 9.49194 18.1936 9.99311 18.1936C11.7449 18.1936 12.6985 19.359 12.6985 20.5531C12.6985 21.2212 12.3066 22.8995 9.91132 22.8995C9.5663 22.8995 9.24777 22.8863 8.92988 22.8863C8.62623 22.8863 8.32824 22.8929 8.02393 22.8995V22.7244C8.42946 22.6832 8.62632 22.6704 8.64547 22.2116V18.9414Z" fill="white"/>
<path d="M13.6605 18.78C13.4845 18.78 13.3298 18.6183 13.3298 18.4425C13.3298 18.2737 13.4921 18.1182 13.6605 18.1182C13.8364 18.1182 13.9926 18.2602 13.9926 18.4425C13.9926 18.6251 13.843 18.78 13.6605 18.78ZM12.936 22.7242H13.065C13.2539 22.7242 13.3892 22.7242 13.3892 22.5007V20.6742C13.3892 20.3779 13.2879 20.3366 13.0379 20.2033V20.0948C13.3558 20.0002 13.7349 19.8727 13.7613 19.8526C13.809 19.8251 13.849 19.8179 13.8837 19.8179C13.9171 19.8179 13.9307 19.8585 13.9307 19.9126V22.5007C13.9307 22.7242 14.0802 22.7242 14.2698 22.7242H14.3845V22.8992C14.1543 22.8992 13.9171 22.8861 13.6747 22.8861C13.4309 22.8861 13.1871 22.8927 12.9363 22.8992V22.7242H12.936Z" fill="white"/>
<path d="M15.0267 20.7147C15.0267 20.4656 14.952 20.3984 14.6348 20.2701V20.1422C14.9255 20.0475 15.2027 19.9603 15.5271 19.8179C15.5483 19.8179 15.5671 19.8318 15.5671 19.8851V20.3238C15.9535 20.0473 16.2849 19.8179 16.7388 19.8179C17.3141 19.8179 17.5171 20.2361 17.5171 20.7621V22.501C17.5171 22.7244 17.666 22.7244 17.8548 22.7244H17.9772V22.8995C17.7394 22.8995 17.5032 22.8863 17.2598 22.8863C17.016 22.8863 16.7722 22.8929 16.5287 22.8995V22.7244H16.6505C16.84 22.7244 16.9754 22.7244 16.9754 22.501V20.7555C16.9754 20.3712 16.7389 20.1828 16.3532 20.1828C16.1365 20.1828 15.7922 20.357 15.5672 20.5068V22.5014C15.5672 22.7249 15.7168 22.7249 15.907 22.7249H16.0288V22.8999C15.7923 22.8999 15.5547 22.8868 15.3109 22.8868C15.0678 22.8868 14.824 22.8934 14.5806 22.8999V22.7249H14.703C14.8925 22.7249 15.0271 22.7249 15.0271 22.5014V20.7147H15.0267Z" fill="white"/>
<path d="M19.6898 20.8225C19.8588 20.8225 19.878 20.7348 19.878 20.6548C19.878 20.311 19.6686 20.0341 19.2899 20.0341C18.8767 20.0341 18.5929 20.3369 18.5122 20.8225H19.6898ZM18.4918 21.0388C18.4782 21.0994 18.4782 21.2003 18.4918 21.4297C18.5317 22.0707 18.9456 22.5961 19.4861 22.5961C19.8589 22.5961 20.1497 22.393 20.3998 22.1445L20.494 22.2388C20.1824 22.6498 19.797 23.0004 19.2427 23.0004C18.1666 23.0004 17.9492 21.9619 17.9492 21.5308C17.9492 20.2091 18.8424 19.8179 19.316 19.8179C19.8649 19.8179 20.4543 20.1616 20.4599 20.8765C20.4599 20.9171 20.4599 20.9576 20.4543 20.9985L20.3924 21.0387L18.4918 21.0388Z" fill="white"/>
<path d="M20.6167 22.7243H20.7992C20.9874 22.7243 21.1241 22.7243 21.1241 22.5008V20.607C21.1241 20.3981 20.8733 20.3565 20.7715 20.3038V20.2029C21.266 19.9933 21.5362 19.818 21.5981 19.818C21.6381 19.818 21.658 19.8387 21.658 19.9059V20.5124H21.6722C21.8413 20.2497 22.1261 19.8179 22.5382 19.8179C22.7072 19.8179 22.9239 19.9326 22.9239 20.1752C22.9239 20.3564 22.7949 20.5203 22.6061 20.5203C22.395 20.5203 22.395 20.3564 22.1592 20.3564C22.0437 20.3564 21.6646 20.512 21.6646 20.9167V22.5003C21.6646 22.7238 21.7999 22.7238 21.9894 22.7238H22.3686V22.8988C21.9964 22.8919 21.713 22.8857 21.4215 22.8857C21.1444 22.8857 20.8598 22.8922 20.6168 22.8988L20.6167 22.7243Z" fill="white"/>
<path d="M23.2217 21.9624C23.31 22.4073 23.5803 22.7847 24.0742 22.7847C24.4727 22.7847 24.6216 22.5421 24.6216 22.3061C24.6216 21.5109 23.147 21.7673 23.147 20.6816C23.147 20.3042 23.4521 19.8184 24.1959 19.8184C24.4126 19.8184 24.7033 19.8794 24.9677 20.0145L25.0146 20.7007H24.8599C24.792 20.2769 24.5548 20.0346 24.1215 20.0346C23.8513 20.0346 23.5935 20.1888 23.5935 20.4792C23.5935 21.2683 25.1634 21.0247 25.1634 22.0833C25.1634 22.5279 24.8048 23.0006 23.9997 23.0006C23.7295 23.0006 23.4109 22.906 23.1751 22.7716L23.0996 21.9965L23.2217 21.9624Z" fill="white"/>
<path d="M31.273 19.4135H31.1047C30.9757 18.6255 30.414 18.3084 29.6572 18.3084C28.8782 18.3084 27.7479 18.8271 27.7479 20.4451C27.7479 21.8077 28.7227 22.7849 29.7648 22.7849C30.4347 22.7849 30.99 22.3275 31.1253 21.6189L31.2808 21.6587L31.1253 22.6431C30.8408 22.8195 30.0764 23.0011 29.6288 23.0011C28.046 23.0011 27.0454 21.983 27.0454 20.4662C27.0454 19.0836 28.2832 18.0918 29.6096 18.0918C30.1571 18.0918 30.6851 18.2682 31.206 18.4505L31.273 19.4135Z" fill="white"/>
<path d="M31.5176 22.7242H31.6452C31.8355 22.7242 31.9707 22.7242 31.9707 22.5007V18.7468C31.9707 18.3081 31.8702 18.2946 31.6121 18.2204V18.113C31.8823 18.025 32.1672 17.904 32.3091 17.8223C32.3832 17.7831 32.4375 17.7478 32.4579 17.7478C32.4986 17.7478 32.5122 17.7884 32.5122 17.8431V22.5007C32.5122 22.7242 32.6611 22.7242 32.8506 22.7242H32.9647V22.8992C32.7358 22.8992 32.4986 22.8861 32.2548 22.8861C32.0117 22.8861 31.7686 22.8927 31.5179 22.8992V22.7242H31.5176Z" fill="white"/>
<path d="M35.862 22.528C35.862 22.65 35.9361 22.6562 36.0509 22.6562C36.1323 22.6562 36.2328 22.6496 36.3211 22.6496V22.7913C36.0296 22.8187 35.4753 22.96 35.3463 23.0006L35.3122 22.9805V22.4344C34.9074 22.7642 34.5954 23.0006 34.1141 23.0006C33.7493 23.0006 33.3701 22.7642 33.3701 22.1984V20.4727C33.3701 20.2966 33.3437 20.1289 32.9653 20.0949V19.9664C33.2091 19.9602 33.7493 19.9196 33.8376 19.9196C33.913 19.9196 33.913 19.9664 33.913 20.115V21.8539C33.913 22.057 33.913 22.637 34.5011 22.637C34.7307 22.637 35.035 22.4609 35.3191 22.2253V20.4109C35.3191 20.2768 34.9943 20.203 34.7519 20.1354V20.0141C35.3598 19.9729 35.7396 19.9194 35.8067 19.9194C35.8617 19.9194 35.8617 19.9662 35.8617 20.0414V22.5277H35.862V22.528Z" fill="white"/>
<path d="M37.2082 22.1374C37.2082 22.3928 37.452 22.8255 37.9052 22.8255C38.6293 22.8255 38.9336 22.1169 38.9336 21.5167C38.9336 20.7887 38.3785 20.1822 37.8516 20.1822C37.6002 20.1822 37.3918 20.3443 37.2082 20.4993V22.1374ZM37.2082 20.3039C37.4784 20.0748 37.8446 19.818 38.2168 19.818C39.0021 19.818 39.4747 20.4996 39.4747 21.2343C39.4747 22.1173 38.8254 23.0009 37.8575 23.0009C37.3574 23.0009 37.0934 22.8388 36.9167 22.7646L36.7143 22.9198L36.5731 22.8454C36.6322 22.4479 36.6673 22.057 36.6673 21.6449V18.7466C36.6673 18.3079 36.5655 18.2944 36.3081 18.2202V18.1128C36.5797 18.0248 36.8632 17.9039 37.0051 17.8227C37.0798 17.7829 37.1335 17.7483 37.1547 17.7483C37.1954 17.7483 37.2082 17.7881 37.2082 17.8429V20.3039Z" fill="white"/>
<path d="M8.01688 26.8199H8.06763C8.20017 26.8199 8.33997 26.8016 8.33997 26.6106V24.6884C8.33997 24.4974 8.20017 24.4791 8.06763 24.4791H8.01688V24.3689C8.16021 24.3689 8.38105 24.3838 8.56155 24.3838C8.7455 24.3838 8.96634 24.3689 9.13959 24.3689V24.4791H9.0881C8.95556 24.4791 8.81576 24.4978 8.81576 24.6884V26.6106C8.81576 26.8016 8.95556 26.8199 9.0881 26.8199H9.13959V26.9301C8.9629 26.9301 8.74141 26.9152 8.55811 26.9152C8.37724 26.9152 8.15993 26.9301 8.0166 26.9301V26.8199H8.01688Z" fill="white"/>
<path d="M9.12336 26.9139V26.8352H9.08786C8.95606 26.8352 8.79991 26.8123 8.79916 26.6103V24.6881C8.79981 24.4858 8.95606 24.4635 9.08786 24.4635H9.12336V24.3845C8.95364 24.3845 8.74014 24.3995 8.56168 24.3995C8.38638 24.3995 8.1753 24.3853 8.03272 24.3845V24.4635H8.06822C8.20002 24.4635 8.35618 24.4857 8.35618 24.6881V26.6103C8.35618 26.8123 8.20002 26.8352 8.06822 26.8352H8.03272V26.9138C8.1753 26.9121 8.38332 26.8985 8.55861 26.8985C8.73661 26.8986 8.94946 26.9128 9.12336 26.9139ZM9.13935 26.9448C8.96061 26.9448 8.74079 26.9302 8.55787 26.9302C8.377 26.9302 8.16033 26.9448 8.01636 26.9448H8V26.9292V26.8197V26.8042H8.01636H8.06711C8.20105 26.8004 8.32234 26.79 8.32309 26.6104V24.6882C8.32243 24.5084 8.20067 24.4973 8.06711 24.4948H8V24.4785V24.3528H8.01636C8.16033 24.3528 8.38118 24.3673 8.56103 24.3673C8.74432 24.3673 8.96442 24.3528 9.13907 24.3528H9.15543V24.3691V24.4948H9.13907H9.08758C8.95364 24.4973 8.8316 24.5084 8.83095 24.6882V26.6104C8.8316 26.7899 8.95411 26.8003 9.08758 26.8042H9.15543V26.8197V26.9448H9.13935V26.9448Z" fill="white"/>
<path d="M11.6685 26.2067L11.6758 26.1993V24.8236C11.6758 24.5232 11.4658 24.4788 11.3559 24.4788H11.2745V24.3686C11.4476 24.3686 11.6174 24.3835 11.7899 24.3835C11.9408 24.3835 12.0921 24.3686 12.2431 24.3686V24.4788H12.1882C12.0334 24.4788 11.8601 24.5087 11.8601 24.9449V26.6138C11.8601 26.7423 11.8636 26.8709 11.8821 26.9842H11.7419L9.84607 24.8784V26.3902C9.84607 26.709 9.90871 26.8192 10.1917 26.8192H10.2544V26.9294C10.0968 26.9294 9.93855 26.9145 9.77961 26.9145C9.61444 26.9145 9.44472 26.9294 9.27918 26.9294V26.8192H9.33067C9.58451 26.8192 9.66138 26.6467 9.66138 26.3534V24.8082C9.66138 24.6035 9.49231 24.4784 9.32714 24.4784H9.27881V24.3682C9.4186 24.3682 9.56258 24.3831 9.70209 24.3831C9.8127 24.3831 9.9195 24.3682 10.0301 24.3682L11.6685 26.2067Z" fill="white"/>
<path d="M11.6606 26.1991V26.1984L11.6578 26.195L11.6606 26.1991ZM11.6686 26.2067L11.6808 26.1956L11.6686 26.2067ZM11.742 26.968H11.8637C11.8474 26.8582 11.8446 26.7358 11.8446 26.6139V24.945C11.8446 24.5049 12.0293 24.4637 12.1882 24.4637H12.2268V24.3847C12.0814 24.3854 11.936 24.3989 11.7899 24.3989C11.6216 24.3989 11.4571 24.3854 11.2912 24.3847L11.2898 24.4637H11.3551C11.4685 24.4637 11.6914 24.5133 11.6914 24.8244L11.6872 26.2105L11.6799 26.2179L11.667 26.23L10.03 24.3847C9.92074 24.3847 9.81469 24.3989 9.70129 24.3989C9.5667 24.3989 9.42896 24.3854 9.29511 24.3847L9.29446 24.4637H9.32718C9.49969 24.4637 9.67778 24.5944 9.67778 24.8089V26.3541C9.67778 26.6479 9.5957 26.8347 9.33136 26.8365L9.2952 26.8347V26.9141C9.45479 26.9123 9.61866 26.8988 9.77965 26.8988C9.93301 26.8988 10.0867 26.9123 10.2381 26.9141V26.8361H10.1918C9.90243 26.8344 9.8304 26.7093 9.8304 26.3905V24.8377L11.742 26.968ZM11.8817 27L11.7302 26.9948L9.86144 24.9197V26.3904C9.86562 26.7092 9.91433 26.8004 10.1915 26.8038H10.2704V26.8194V26.9445H10.2541C10.0951 26.9445 9.93617 26.9299 9.77927 26.9299C9.61476 26.9299 9.44578 26.9445 9.27884 26.9445H9.26249V26.9289V26.8038H9.27884H9.33099C9.5734 26.8018 9.64264 26.6461 9.64543 26.3536V24.8084C9.64478 24.614 9.48444 24.4948 9.3269 24.4948H9.26221V24.4775V24.3528H9.27857C9.4191 24.3528 9.56308 24.3673 9.70111 24.3673C9.81097 24.3673 9.91712 24.3528 10.0419 24.358L11.6599 26.1738V24.8241C11.6578 24.5323 11.4624 24.4973 11.3548 24.4948H11.2578V24.4775V24.3528H11.2742C11.4481 24.3528 11.6178 24.3673 11.7895 24.3673C11.9397 24.3673 12.0904 24.3528 12.2428 24.3528H12.2584V24.3691V24.4948H12.2428H12.1878C12.0355 24.4994 11.8793 24.5122 11.8755 24.9447V26.6135C11.8755 26.7417 11.879 26.8699 11.8975 26.9819L11.9016 27H11.8817Z" fill="white"/>
<path d="M12.7946 24.5523C12.5181 24.5523 12.5073 24.6182 12.4524 24.886H12.3418C12.3568 24.7831 12.3752 24.6809 12.3859 24.5741C12.4009 24.4712 12.4082 24.3686 12.4082 24.2629H12.4965C12.5264 24.3731 12.6182 24.369 12.718 24.369H14.6173C14.7172 24.369 14.809 24.3658 14.8156 24.2556L14.9039 24.2705C14.8897 24.369 14.8747 24.4681 14.8639 24.5675C14.857 24.6662 14.857 24.7654 14.857 24.8645L14.7463 24.9051C14.7384 24.7696 14.7206 24.5523 14.4734 24.5523H13.8703V26.504C13.8703 26.7865 13.9987 26.8197 14.1754 26.8197H14.2453V26.9299C14.1027 26.9299 13.8446 26.915 13.6453 26.915C13.4244 26.915 13.1664 26.9299 13.0231 26.9299V26.8197H13.093C13.2961 26.8197 13.3981 26.8014 13.3981 26.5117V24.5524L12.7946 24.5523Z" fill="white"/>
<path d="M14.2454 26.9448C14.1007 26.9448 13.8433 26.9303 13.6448 26.9303C13.4246 26.9303 13.1666 26.9448 13.0226 26.9448H13.007V26.9299V26.8042H13.0226H13.0925C13.2956 26.7986 13.377 26.7968 13.3812 26.5117V24.5687H12.7941V24.5524V24.5361H13.4129V26.5117C13.4129 26.8063 13.2939 26.8357 13.0922 26.8364H13.0379V26.9136C13.1827 26.9126 13.4313 26.8991 13.6445 26.8991C13.8368 26.8991 14.0828 26.9126 14.2288 26.9136V26.8364H14.1745C13.9964 26.8357 13.8538 26.7928 13.8538 26.5041V24.5361H14.4732C14.7205 24.5368 14.7526 24.7458 14.7605 24.8827L14.8402 24.8536C14.8402 24.7587 14.8409 24.662 14.8472 24.5653C14.8586 24.4707 14.8722 24.3771 14.8857 24.2832L14.8298 24.2742C14.8128 24.3806 14.7088 24.3865 14.6166 24.3848H12.718H12.6982C12.612 24.3848 12.5173 24.381 12.485 24.2788H12.4237C12.4231 24.3796 12.4164 24.4777 12.4015 24.5758C12.3914 24.6766 12.3744 24.7733 12.3616 24.8704H12.4398C12.4889 24.6153 12.5195 24.5325 12.7949 24.536V24.5523V24.5686C12.5219 24.5731 12.5278 24.6191 12.4676 24.8901L12.4656 24.9022H12.4527H12.3237L12.3258 24.8835C12.3407 24.7809 12.3599 24.678 12.3707 24.5716C12.3856 24.4697 12.3926 24.3679 12.3926 24.2625V24.2458H12.409H12.5102L12.5122 24.2576C12.5372 24.3511 12.6055 24.3511 12.699 24.3525H12.7188H14.6173C14.7199 24.3507 14.7947 24.3493 14.8006 24.2534L14.802 24.2361L14.819 24.2399L14.923 24.2562L14.9202 24.2725C14.906 24.3702 14.891 24.4693 14.8803 24.5684C14.8733 24.6657 14.8733 24.7645 14.8733 24.8643V24.875L14.8632 24.8798L14.732 24.9273L14.7314 24.9055C14.722 24.7682 14.707 24.5686 14.4747 24.5686H13.8873V26.504C13.8907 26.7812 14.0007 26.8003 14.176 26.8041H14.2623V26.8196V26.9447L14.2454 26.9448Z" fill="white"/>
<path d="M15.0215 26.8199H15.0736C15.2062 26.8199 15.3452 26.8016 15.3452 26.6106V24.6884C15.3452 24.4974 15.2061 24.4791 15.0736 24.4791H15.0215V24.3689C15.2458 24.3689 15.6295 24.3838 15.9379 24.3838C16.2478 24.3838 16.63 24.3689 16.8808 24.3689C16.8746 24.5269 16.878 24.7698 16.8888 24.9306L16.7775 24.9597C16.7605 24.7216 16.7163 24.531 16.3293 24.531H15.8177V25.4915H16.2552C16.476 25.4915 16.524 25.3674 16.5467 25.1689H16.6565C16.6492 25.3123 16.6451 25.4551 16.6451 25.5978C16.6451 25.7371 16.6493 25.8768 16.6565 26.0161L16.5467 26.0379C16.5244 25.8182 16.5133 25.6751 16.2587 25.6751H15.8177V26.53C15.8177 26.7683 16.0302 26.7683 16.266 26.7683C16.7076 26.7683 16.9031 26.7389 17.0137 26.3207L17.1163 26.3453C17.0687 26.5411 17.0245 26.7344 16.9922 26.9298C16.7557 26.9298 16.3328 26.9149 16.0016 26.9149C15.6695 26.9149 15.2313 26.9298 15.0216 26.9298L15.0215 26.8199Z" fill="white"/>
<path d="M16.9779 26.9133C17.0099 26.7282 17.052 26.5428 17.0976 26.3578L17.0249 26.3395C16.9143 26.7501 16.7008 26.7861 16.2667 26.7841C16.0343 26.7841 15.802 26.7841 15.8007 26.5298V25.6593H16.2583C16.5157 25.6565 16.5421 25.8111 16.5599 26.0194L16.6395 26.0031C16.6325 25.8676 16.6294 25.7331 16.6294 25.5976C16.6294 25.4604 16.6328 25.3221 16.6395 25.1842H16.5599C16.5393 25.3758 16.4792 25.5097 16.2548 25.5075H15.8006V24.5144H16.3292C16.7125 24.5112 16.7755 24.7088 16.7918 24.9389L16.8715 24.9184C16.8653 24.8142 16.8614 24.6815 16.8614 24.5591C16.8614 24.4961 16.8628 24.4364 16.8642 24.3848C16.6141 24.3855 16.2412 24.399 15.9383 24.399C15.636 24.399 15.264 24.3855 15.0382 24.3848V24.4638H15.0744C15.2055 24.4638 15.3617 24.486 15.3623 24.6884V26.6106C15.3617 26.8126 15.2054 26.8345 15.0744 26.8362H15.0382V26.9134C15.2528 26.9131 15.6781 26.8989 16.0016 26.8989C16.3265 26.8987 16.74 26.9129 16.9779 26.9133ZM16.9915 26.9448C16.755 26.9448 16.3321 26.9303 16.001 26.9303C15.6695 26.9303 15.232 26.9448 15.0216 26.9448H15.006V26.9299V26.8197V26.8042H15.0216H15.0737C15.2069 26.8014 15.3276 26.79 15.3289 26.6104V24.6882C15.3276 24.5094 15.2065 24.4973 15.0737 24.4948H15.0059V24.4785V24.3528H15.0215C15.2461 24.3528 15.6294 24.3673 15.9379 24.3673C16.2478 24.3673 16.6294 24.3528 16.8808 24.3528H16.8972L16.8961 24.3691C16.8933 24.4246 16.8927 24.49 16.8927 24.559C16.8927 24.6855 16.8961 24.8244 16.9035 24.9291V24.9426L16.892 24.9464L16.7623 24.9793L16.7616 24.961C16.7397 24.7226 16.7074 24.5493 16.329 24.5462H15.8323V25.4752H16.2549C16.4667 25.4732 16.5049 25.365 16.53 25.1668L16.5314 25.1527H16.5456H16.6719V25.169C16.6649 25.3124 16.6604 25.4552 16.6604 25.5979C16.6604 25.7372 16.6653 25.8762 16.6719 26.0155V26.0283L16.659 26.0317L16.5314 26.0566L16.53 26.0397C16.505 25.8158 16.5029 25.6928 16.2584 25.6903H15.8323V26.5297C15.833 26.7521 16.0261 26.7515 16.2664 26.7521C16.7091 26.7497 16.8866 26.7282 16.9982 26.3162L17.0024 26.3013L17.0173 26.3044L17.1356 26.3343L17.1321 26.3498C17.0838 26.5442 17.0403 26.738 17.0073 26.9327L17.0045 26.9448H16.9915Z" fill="white"/>
<path d="M18.0849 25.6083H18.2644C18.6341 25.6083 18.8316 25.4694 18.8316 25.0361C18.8316 24.7104 18.6222 24.5014 18.2943 24.5014C18.1837 24.5014 18.1368 24.5121 18.0849 24.5156V25.6083ZM17.6129 24.7572C17.6129 24.49 17.4661 24.4793 17.3521 24.4793H17.2856V24.3684C17.4039 24.3684 17.6313 24.3833 17.8563 24.3833C18.0772 24.3833 18.2539 24.3684 18.4486 24.3684C18.9126 24.3684 19.3254 24.4928 19.3254 25.0146C19.3254 25.3445 19.1045 25.5462 18.8138 25.6602L19.443 26.5986C19.547 26.7536 19.6196 26.7972 19.8002 26.8194V26.9296C19.6784 26.9296 19.5605 26.9147 19.4395 26.9147C19.3255 26.9147 19.2071 26.9296 19.0938 26.9296C18.8107 26.5596 18.5666 26.1627 18.3277 25.7403H18.0853V26.5256C18.0853 26.8083 18.2178 26.8194 18.3861 26.8194H18.4526V26.9296C18.2425 26.9296 18.0301 26.9147 17.8196 26.9147C17.6429 26.9147 17.4698 26.9296 17.2857 26.9296V26.8194H17.3522C17.4882 26.8194 17.613 26.7574 17.613 26.6212L17.6129 24.7572Z" fill="white"/>
<path d="M18.2642 25.5931C18.6291 25.59 18.8123 25.4642 18.8165 25.0373C18.8145 24.7171 18.6148 24.5186 18.2942 24.5168C18.1943 24.5168 18.148 24.5262 18.1005 24.5303V25.5931H18.2642ZM18.084 25.6243H18.0684V24.5016L18.082 24.4996C18.1327 24.4958 18.1824 24.4861 18.2938 24.4861C18.6287 24.4861 18.8467 24.7027 18.8475 25.037C18.8461 25.4753 18.6357 25.6243 18.2639 25.6243H18.084ZM18.084 25.7255H18.3362L18.3404 25.7331C18.5807 26.1541 18.8228 26.5502 19.0937 26.9137C19.2057 26.9137 19.3239 26.8984 19.4387 26.8984C19.5563 26.8984 19.6703 26.9112 19.7844 26.9129V26.8329C19.6112 26.8118 19.5305 26.7601 19.4296 26.6083L18.7883 25.6526L18.8074 25.6453C19.0954 25.5327 19.3086 25.3359 19.3092 25.0136C19.3086 24.5045 18.9111 24.3867 18.4478 24.3847C18.2541 24.3847 18.0778 24.3996 17.8555 24.3996C17.6395 24.3996 17.4208 24.3854 17.2998 24.3847V24.4637H17.3513C17.4653 24.4637 17.6278 24.482 17.6278 24.7575V26.6215C17.6278 26.7695 17.4901 26.8356 17.3513 26.8363H17.2998V26.9136C17.4779 26.9132 17.6455 26.899 17.8187 26.899C18.0246 26.899 18.2319 26.9132 18.4361 26.9136V26.8363H18.3853C18.2177 26.8356 18.0681 26.8148 18.0681 26.5258V25.7253L18.084 25.7255ZM19.8 26.945C19.6766 26.945 19.5596 26.9304 19.4386 26.9304C19.3266 26.9304 19.2084 26.945 19.0808 26.9391C18.798 26.5701 18.5563 26.1764 18.318 25.7574H18.1006V26.526C18.1048 26.8015 18.2154 26.7997 18.3858 26.8043H18.4686V26.8198V26.945H18.4523C18.2412 26.945 18.0276 26.9304 17.8193 26.9304C17.6433 26.9304 17.4701 26.945 17.2854 26.945H17.269V26.9294V26.8043H17.2854H17.3519C17.4844 26.8023 17.5963 26.7454 17.5963 26.6217V24.7577C17.5935 24.4978 17.4659 24.4985 17.3519 24.4953H17.269V24.479V24.3533H17.2854C17.4044 24.3533 17.6318 24.3678 17.8561 24.3678C18.0763 24.3678 18.2529 24.3533 18.4484 24.3533C18.913 24.3543 19.3401 24.4814 19.3415 25.0141C19.3415 25.3458 19.122 25.5523 18.8383 25.6681L19.4556 26.5912C19.5589 26.743 19.6233 26.7814 19.8027 26.8043L19.8155 26.8057V26.8198V26.945H19.8Z" fill="white"/>
<path d="M22.2999 26.2067L22.3069 26.1993V24.8236C22.3069 24.5232 22.0968 24.4788 21.9876 24.4788H21.9062V24.3686C22.0793 24.3686 22.2484 24.3835 22.4216 24.3835C22.5725 24.3835 22.7224 24.3686 22.8754 24.3686V24.4788H22.8197C22.665 24.4788 22.4917 24.5087 22.4917 24.9449V26.6138C22.4917 26.7423 22.4952 26.8709 22.5139 26.9842H22.3738L20.478 24.8784V26.3902C20.478 26.709 20.5399 26.8192 20.8237 26.8192H20.8856V26.9294C20.728 26.9294 20.5691 26.9145 20.4116 26.9145C20.245 26.9145 20.0759 26.9294 19.9111 26.9294V26.8192H19.9616C20.2162 26.8192 20.2937 26.6467 20.2937 26.3534V24.8082C20.2937 24.6035 20.1246 24.4784 19.9588 24.4784H19.9111V24.3682C20.0503 24.3682 20.1943 24.3831 20.3344 24.3831C20.4436 24.3831 20.5511 24.3682 20.6617 24.3682L22.2999 26.2067Z" fill="white"/>
<path d="M22.291 26.1993V26.1983L22.2883 26.1955L22.291 26.1993ZM22.2998 26.2067L22.3112 26.1955L22.2998 26.2067ZM22.3739 26.9679H22.4949C22.4785 26.8587 22.4751 26.7357 22.4751 26.6138V24.9449C22.4751 24.5048 22.6612 24.4643 22.8194 24.4636H22.8573V24.3846C22.7133 24.3853 22.5672 24.3988 22.4212 24.3988C22.2528 24.3988 22.0877 24.3853 21.921 24.3846V24.4636H21.9867C22.0994 24.4643 22.3224 24.5132 22.3224 24.8237L22.3175 26.2105L22.3102 26.2179L22.2994 26.23L20.6603 24.3847C20.5511 24.3847 20.445 24.3989 20.3337 24.3989C20.1969 24.3989 20.0593 24.3854 19.9247 24.3847V24.4637H19.9581C20.1306 24.4644 20.3087 24.5937 20.3087 24.8089V26.353C20.3087 26.6478 20.2252 26.8346 19.9608 26.8364L19.9247 26.8357V26.9137C20.0843 26.9127 20.2488 26.8992 20.4103 26.8992C20.565 26.8992 20.7173 26.9127 20.8693 26.9137V26.8365H20.823C20.5329 26.8358 20.4603 26.7097 20.4596 26.3902V24.8385L22.3739 26.9679ZM22.5139 26.9999L22.3616 26.9953L20.4929 24.9196V26.3896C20.4977 26.7092 20.5458 26.8003 20.8236 26.8037H20.9011V26.8193V26.9444H20.8855C20.7266 26.9444 20.5683 26.9298 20.4107 26.9298C20.2455 26.9298 20.0758 26.9444 19.9106 26.9444H19.8936V26.9295V26.8037H19.9106H19.961C20.2048 26.8017 20.2747 26.646 20.2769 26.3525V24.8084C20.2762 24.6133 20.1159 24.4948 19.9583 24.4948H19.8936V24.4785V24.3528H19.9107C20.0505 24.3528 20.1944 24.3673 20.3339 24.3673C20.4421 24.3673 20.5486 24.3528 20.673 24.3572L22.291 26.1737V24.8236C22.2896 24.5325 22.0941 24.4961 21.9873 24.4951H21.8896V24.4788V24.3531H21.906C22.0791 24.3531 22.2488 24.3676 22.4214 24.3676C22.5716 24.3676 22.7215 24.3531 22.8738 24.3531H22.8902V24.3694V24.4951H22.8738H22.8195C22.6672 24.4983 22.5111 24.5124 22.5072 24.9449V26.6138C22.5072 26.7419 22.5107 26.8695 22.5292 26.9824L22.5312 26.9998H22.5139V26.9999Z" fill="white"/>
<path d="M24.0036 24.7797H23.9963L23.6548 25.8182H24.3431L24.0036 24.7797ZM23.467 26.4053C23.4298 26.5297 23.3855 26.6261 23.3855 26.6908C23.3855 26.801 23.5403 26.8194 23.6613 26.8194H23.7027V26.9296C23.5545 26.9216 23.4046 26.9147 23.2564 26.9147C23.1239 26.9147 22.9921 26.9216 22.8589 26.9296V26.8194H22.8811C23.0244 26.8194 23.1461 26.7344 23.2004 26.5806L23.7898 24.8979C23.8382 24.7614 23.9046 24.578 23.9266 24.4429C24.0442 24.4021 24.1916 24.3293 24.2615 24.2849C24.2729 24.2811 24.2799 24.2776 24.2914 24.2776C24.3015 24.2776 24.3084 24.2776 24.3164 24.2887C24.3278 24.3185 24.3383 24.3518 24.3505 24.3802L25.027 26.2989C25.0719 26.4271 25.116 26.5629 25.163 26.6739C25.2071 26.7761 25.2854 26.8201 25.4074 26.8201H25.4286V26.9303C25.2634 26.9223 25.0972 26.9154 24.9212 26.9154C24.7403 26.9154 24.5564 26.9223 24.3689 26.9303V26.8201H24.4089C24.4931 26.8201 24.6377 26.8052 24.6377 26.7137C24.6377 26.6655 24.6043 26.5664 24.563 26.4493L24.4197 26.0234H23.5836L23.467 26.4053Z" fill="white"/>
<path d="M23.9881 24.7844L23.9961 24.7816L23.9881 24.7844ZM23.6762 25.8018H24.3209L23.9996 24.8187L23.6762 25.8018ZM23.632 25.8337L23.9847 24.7633H23.9961H24.0034V24.7796L24 24.781L24.0034 24.7796V24.7633H24.0156L24.3648 25.8337H23.632ZM24.3839 26.9121C24.5664 26.9055 24.7452 26.8986 24.9212 26.8986C25.0916 26.8986 25.2526 26.9059 25.4122 26.9121V26.8351H25.4066C25.2811 26.8361 25.1942 26.7859 25.1486 26.6785C25.1003 26.5677 25.0561 26.4314 25.0126 26.3035L24.3348 24.3845C24.3234 24.3554 24.3128 24.3228 24.3028 24.2961C24.3 24.2923 24.3008 24.2923 24.2972 24.2923H24.291C24.2837 24.2923 24.2788 24.2947 24.2691 24.2975C24.1984 24.3436 24.0503 24.4157 23.9411 24.4445C23.9188 24.5831 23.852 24.7668 23.8043 24.9026L23.2155 26.5857C23.1592 26.7455 23.0302 26.836 22.8792 26.8352H22.8744V26.9122C23 26.9056 23.128 26.8987 23.2556 26.8987C23.3982 26.8987 23.5435 26.906 23.6833 26.9122V26.8351H23.6604C23.5407 26.8341 23.3731 26.8206 23.3682 26.6913C23.3689 26.6175 23.4138 26.524 23.4496 26.4002L23.466 26.405L23.4496 26.3999L23.5714 26.0069H24.4301L24.5782 26.4436C24.6182 26.5614 24.6529 26.6588 24.6529 26.7128C24.6467 26.825 24.4912 26.8334 24.4085 26.8351H24.3835V26.9121H24.3839ZM25.4279 26.9447C25.262 26.9377 25.0965 26.9301 24.9212 26.9301C24.7403 26.9301 24.5578 26.9377 24.3689 26.9447L24.3519 26.9461V26.9298V26.8026H24.3689H24.4089C24.4944 26.8026 24.6199 26.7832 24.6199 26.7133C24.6213 26.672 24.5886 26.5704 24.5473 26.454L24.4081 26.0386H23.5957L23.4809 26.4097C23.4444 26.5344 23.3995 26.6321 23.4002 26.6914C23.4016 26.7808 23.5393 26.8022 23.661 26.8022H23.7173V26.8192V26.9457L23.701 26.9443C23.5535 26.9374 23.4036 26.9298 23.2561 26.9298C23.1243 26.9298 22.9918 26.9374 22.86 26.9443L22.8433 26.9461V26.9298V26.8026H22.8589H22.8801C23.0185 26.802 23.1322 26.7246 23.1858 26.576L23.7746 24.8923C23.8229 24.756 23.8894 24.5731 23.9214 24.4273C24.0368 24.3881 24.1843 24.3143 24.2556 24.2703C24.2657 24.2661 24.2761 24.2613 24.2917 24.2613C24.3005 24.2607 24.3195 24.2637 24.3317 24.2828C24.3425 24.3133 24.3539 24.3459 24.3651 24.3757L25.0429 26.2941C25.0864 26.423 25.1299 26.5585 25.1783 26.6669C25.2218 26.7646 25.2889 26.8028 25.4071 26.8035H25.4443V26.8204V26.9469L25.4279 26.9447Z" fill="white"/>
<path d="M25.5907 24.5523C25.3149 24.5523 25.3034 24.6182 25.2485 24.886H25.1372C25.1514 24.7831 25.1706 24.6809 25.1821 24.5741C25.1971 24.4712 25.2043 24.3686 25.2043 24.2629H25.2926C25.3218 24.3731 25.4144 24.369 25.5128 24.369H27.4135C27.5119 24.369 27.6044 24.3658 27.6117 24.2556L27.7 24.2705C27.6858 24.369 27.6715 24.4681 27.6601 24.5675C27.6521 24.6662 27.6521 24.7654 27.6521 24.8645L27.5419 24.9047C27.5345 24.7692 27.5168 24.552 27.2695 24.552H26.6654V26.5036C26.6654 26.7861 26.7945 26.8193 26.9712 26.8193H27.0411V26.9295C26.8977 26.9295 26.6397 26.9146 26.4404 26.9146C26.2202 26.9146 25.9622 26.9295 25.8189 26.9295V26.8193H25.8881C26.0912 26.8193 26.1945 26.801 26.1945 26.5113V24.5521H25.5907V24.5523Z" fill="white"/>
<path d="M27.0411 26.9449C26.8964 26.9449 26.639 26.9304 26.4405 26.9304C26.221 26.9304 25.963 26.9449 25.8189 26.9449H25.8029V26.93V26.8042H25.8193H25.8885C26.0916 26.7987 26.173 26.7969 26.1779 26.5118V24.5688H25.5908V24.5525V24.5362H26.2102V26.5118C26.2102 26.8063 26.0906 26.8347 25.8882 26.8358H25.8339V26.9144C25.98 26.9127 26.2272 26.8991 26.4405 26.8991C26.6335 26.8991 26.8793 26.9127 27.0255 26.9144L27.0248 26.8358H26.9713C26.7939 26.8348 26.65 26.7928 26.65 26.5042V24.5362H27.2694C27.5166 24.5368 27.5493 24.7459 27.5559 24.8827L27.6359 24.8537C27.6359 24.7587 27.6359 24.6621 27.6433 24.566C27.6541 24.4714 27.6676 24.3772 27.6812 24.2839L27.6255 24.2746C27.6085 24.381 27.5038 24.3868 27.4131 24.3852H25.5124H25.494C25.4071 24.3858 25.3131 24.3814 25.2801 24.2781H25.2202C25.2188 24.38 25.2115 24.478 25.1973 24.5761C25.1879 24.677 25.1695 24.7747 25.1559 24.8707H25.2348C25.2832 24.6157 25.3149 24.5318 25.5906 24.5363V24.5526V24.5689C25.3177 24.5734 25.3235 24.6195 25.2634 24.8904L25.2606 24.9026H25.2484H25.1187L25.1207 24.8845C25.1363 24.7812 25.1541 24.6784 25.1656 24.5726C25.1806 24.47 25.1878 24.3681 25.1878 24.2628V24.2461H25.2042H25.304L25.3074 24.2579C25.3324 24.3514 25.3999 24.3514 25.4942 24.3528C25.5011 24.3528 25.5063 24.3528 25.5126 24.3528H27.4132C27.5145 24.3511 27.5892 24.3497 27.5958 24.2544V24.2363L27.6135 24.2401L27.7182 24.2564L27.7154 24.2727C27.6998 24.3704 27.6862 24.4695 27.6747 24.5686C27.6677 24.6659 27.6677 24.7651 27.6677 24.8645V24.8752L27.6569 24.8801L27.5265 24.9276L27.5259 24.9057C27.5165 24.7685 27.5023 24.5689 27.2693 24.5689H26.6822V26.5043C26.685 26.7814 26.7949 26.8005 26.9709 26.8043H27.0565V26.8199V26.945H27.0412L27.0411 26.9449Z" fill="white"/>
<path d="M27.8358 26.8199H27.8866C28.0198 26.8199 28.1589 26.8016 28.1589 26.6106V24.6884C28.1589 24.4974 28.0198 24.4791 27.8866 24.4791H27.8358V24.3689C27.9798 24.3689 28.2 24.3838 28.3805 24.3838C28.5652 24.3838 28.7853 24.3689 28.9592 24.3689V24.4791H28.9077C28.7745 24.4791 28.6347 24.4978 28.6347 24.6884V26.6106C28.6347 26.8016 28.7745 26.8199 28.9077 26.8199H28.9592V26.9301C28.7818 26.9301 28.561 26.9152 28.377 26.9152C28.1961 26.9152 27.9794 26.9301 27.8354 26.9301V26.8199H27.8358Z" fill="white"/>
<path d="M28.9435 26.9133V26.8353H28.908C28.7762 26.8353 28.6193 26.8124 28.6193 26.6104V24.6882C28.6193 24.4859 28.7762 24.4636 28.908 24.4636H28.9435V24.3846C28.7731 24.3853 28.5602 24.3988 28.3811 24.3988C28.2058 24.3988 27.9954 24.3853 27.8524 24.3846V24.4636H27.8872C28.019 24.4636 28.1752 24.4858 28.1759 24.6882V26.6104C28.1753 26.8124 28.019 26.8353 27.8872 26.8353H27.8524V26.9133C27.9944 26.9115 28.2023 26.8987 28.3776 26.8987C28.5557 26.8987 28.7696 26.9122 28.9435 26.9133ZM28.9592 26.9448C28.7818 26.9448 28.561 26.9303 28.3777 26.9303C28.1976 26.9303 27.9802 26.9448 27.8362 26.9448H27.8198V26.9299V26.8197V26.8042H27.8362H27.8869C28.0201 26.8014 28.1422 26.79 28.1429 26.6104V24.6882C28.1423 24.5094 28.0198 24.4973 27.8869 24.4948H27.8198V24.4785V24.3528H27.8362C27.9802 24.3528 28.201 24.3673 28.3809 24.3673C28.5641 24.3673 28.785 24.3528 28.9589 24.3528H28.9745V24.3691V24.4948H28.9589H28.9081C28.7728 24.4973 28.6522 24.5094 28.6508 24.6882V26.6104C28.6522 26.7899 28.7732 26.8014 28.9081 26.8042H28.9746V26.8197V26.9448H28.9592Z" fill="white"/>
<path d="M30.4833 26.8235C31.198 26.8235 31.3222 26.1952 31.3222 25.6606C31.3222 25.1242 31.0321 24.4751 30.4207 24.4751C29.7759 24.4751 29.5846 25.0483 29.5846 25.5389C29.5846 26.1956 29.8869 26.8235 30.4833 26.8235ZM30.4266 24.314C31.2126 24.314 31.8383 24.7984 31.8383 25.5801C31.8383 26.4232 31.2303 26.9843 30.4464 26.9843C29.6653 26.9843 29.0688 26.4569 29.0688 25.6675C29.0688 24.9048 29.6619 24.314 30.4266 24.314Z" fill="white"/>
<path d="M29.568 25.5389C29.5694 25.0447 29.7631 24.4594 30.4204 24.4594C31.0454 24.46 31.3369 25.1205 31.3383 25.6605C31.3369 26.1955 31.2107 26.8383 30.4831 26.8383V26.8234V26.8071C31.1829 26.806 31.3049 26.1951 31.3056 25.6601C31.3056 25.1285 31.0183 24.4923 30.4204 24.4909C29.7889 24.4915 29.6014 25.0498 29.6007 25.5384C29.6007 26.1919 29.9002 26.8053 30.4831 26.8067V26.823V26.8383C29.8717 26.838 29.5694 26.199 29.568 25.5389ZM29.0522 25.6674C29.0543 24.8957 29.6529 24.299 30.4264 24.2976V24.3139V24.3295C29.6696 24.3295 29.0842 24.913 29.0836 25.6674C29.0856 26.4471 29.673 26.9676 30.4462 26.9679C31.2217 26.9676 31.821 26.4145 31.8224 25.5787C31.8217 24.807 31.2057 24.3305 30.4263 24.3295V24.3139V24.2976C31.2176 24.2983 31.8522 24.788 31.8529 25.5787C31.8523 26.4315 31.2373 26.9988 30.4461 26.9998C29.6585 26.9988 29.0544 26.4652 29.0522 25.6674Z" fill="white"/>
<path d="M34.3184 26.2067L34.3264 26.1993V24.8236C34.3264 24.5232 34.116 24.4788 34.0051 24.4788H33.925V24.3686C34.0975 24.3686 34.2673 24.3835 34.4398 24.3835C34.5921 24.3835 34.7427 24.3686 34.8936 24.3686V24.4788H34.838C34.6839 24.4788 34.5107 24.5087 34.5107 24.9449V26.6138C34.5107 26.7423 34.5141 26.8709 34.5329 26.9842H34.3931L32.4966 24.8784V26.3902C32.4966 26.709 32.5585 26.8192 32.843 26.8192H32.9057V26.9294C32.7467 26.9294 32.5885 26.9145 32.4309 26.9145C32.265 26.9145 32.0953 26.9294 31.9291 26.9294V26.8192H31.9812C32.2358 26.8192 32.3127 26.6467 32.3127 26.3534V24.8082C32.3127 24.6035 32.1436 24.4784 31.977 24.4784H31.9287V24.3682C32.0692 24.3682 32.2125 24.3831 32.3526 24.3831C32.4633 24.3831 32.57 24.3682 32.6799 24.3682L34.3184 26.2067Z" fill="white"/>
<path d="M34.3102 26.1994V26.1984L34.3074 26.1956L34.3102 26.1994ZM34.3182 26.2067L34.3304 26.1956L34.3182 26.2067ZM34.393 26.968H34.5134C34.4978 26.8582 34.4943 26.7358 34.4943 26.6139V24.945C34.4943 24.5039 34.6803 24.4644 34.8379 24.4637H34.8772V24.3847C34.7318 24.3854 34.5871 24.3989 34.4397 24.3989C34.272 24.3989 34.1076 24.3854 33.9403 24.3847V24.4637H34.0056C34.119 24.4644 34.3419 24.514 34.3419 24.8244L34.3377 26.2105L34.3304 26.2179L34.3182 26.23L32.6797 24.3847C32.5709 24.3847 32.4637 24.3989 32.3525 24.3989C32.2165 24.3989 32.0787 24.3854 31.9442 24.3847V24.4637H31.9769C32.15 24.4644 32.3281 24.5937 32.3281 24.8089V26.3541C32.3281 26.6479 32.246 26.8347 31.9811 26.8365L31.9445 26.8358V26.9138C32.1049 26.9128 32.2686 26.8993 32.4307 26.8993C32.5834 26.8993 32.7364 26.9128 32.8891 26.9138V26.8366H32.8415C32.5528 26.8359 32.4801 26.7098 32.4801 26.3909V24.8382L34.393 26.968ZM34.5328 27L34.3801 26.9948L32.5122 24.9197V26.3904C32.517 26.7092 32.5657 26.7996 32.8415 26.8024H32.9211V26.8194V26.9445H32.9055C32.7459 26.9445 32.5876 26.9299 32.4307 26.9299C32.2648 26.9299 32.0965 26.9445 31.9289 26.9445H31.9136V26.9289V26.8024H31.9285H31.9807C32.2231 26.8018 32.293 26.6461 32.2958 26.3536V24.8084C32.2958 24.6133 32.1348 24.4948 31.9765 24.4948H31.9136V24.4785V24.3528H31.9285C32.0697 24.3528 32.2137 24.3673 32.3525 24.3673C32.4617 24.3673 32.5671 24.3528 32.6929 24.358L34.3101 26.1738V24.8241C34.3094 24.5323 34.1133 24.4973 34.0058 24.4948H33.9088V24.4785V24.3528H33.9251C34.0983 24.3528 34.268 24.3673 34.4399 24.3673C34.5901 24.3673 34.7408 24.3528 34.8931 24.3528H34.9095V24.3691V24.4948H34.8931H34.8382C34.6866 24.4994 34.5304 24.5122 34.5265 24.9447V26.6135C34.5265 26.7417 34.5299 26.8699 34.5477 26.9822L34.5505 26.9995H34.5327V27H34.5328Z" fill="white"/>
<path d="M36.023 24.7797H36.0156L35.6734 25.8182H36.362L36.023 24.7797ZM35.4849 26.4053C35.4487 26.5297 35.4042 26.6261 35.4042 26.6908C35.4042 26.801 35.559 26.8194 35.68 26.8194H35.7207V26.9296C35.5732 26.9216 35.4226 26.9147 35.2752 26.9147C35.1427 26.9147 35.0102 26.9216 34.8784 26.9296V26.8194H34.8996C35.0436 26.8194 35.1653 26.7344 35.2195 26.5806L35.809 24.8979C35.8573 24.7614 35.9238 24.578 35.9457 24.4429C36.064 24.4021 36.2107 24.3293 36.2814 24.2849C36.2915 24.2811 36.2991 24.2776 36.3099 24.2776C36.3213 24.2776 36.3283 24.2776 36.3356 24.2887C36.3478 24.3185 36.358 24.3518 36.3698 24.3802L37.0462 26.2989C37.0904 26.4271 37.1345 26.5629 37.183 26.6739C37.2271 26.7761 37.3047 26.8201 37.4261 26.8201H37.448V26.9303C37.2829 26.9223 37.1173 26.9154 36.9406 26.9154C36.7598 26.9154 36.5758 26.9223 36.3877 26.9303V26.8201H36.4284C36.5125 26.8201 36.6572 26.8052 36.6572 26.7137C36.6572 26.6655 36.6231 26.5664 36.5825 26.4493L36.4399 26.0234H35.6039L35.4849 26.4053Z" fill="white"/>
<path d="M36.0083 24.7844L36.0157 24.7816L36.0083 24.7844ZM35.696 25.8018H36.3394L36.0195 24.8198L35.696 25.8018ZM35.6512 25.8338L36.0045 24.7634H36.016H36.0233V24.7797L36.0191 24.7811L36.0233 24.7797V24.7634H36.0347L36.3832 25.8338H35.6512ZM36.4037 26.9128C36.5856 26.9055 36.7651 26.8986 36.9404 26.8986C37.1115 26.8986 37.2719 26.9059 37.4322 26.9121L37.4316 26.8352H37.4253C37.3005 26.8358 37.2135 26.786 37.168 26.6786C37.1196 26.5677 37.0755 26.4315 37.032 26.3036L36.3541 24.3845C36.3427 24.3555 36.3319 24.3229 36.3228 24.2968C36.32 24.2923 36.32 24.2923 36.3172 24.2923H36.3099C36.3019 24.2923 36.2991 24.2954 36.2893 24.2975C36.2173 24.3422 36.0699 24.4163 35.9613 24.4445C35.9384 24.5831 35.8716 24.766 35.8239 24.9026L35.2345 26.5857C35.1781 26.7454 35.0498 26.8359 34.8996 26.8352H34.894V26.9121C35.0202 26.9055 35.1476 26.8986 35.2752 26.8986C35.4178 26.8986 35.5631 26.9059 35.7051 26.9121V26.8352H35.6801C35.5604 26.8341 35.3928 26.8213 35.3879 26.6907C35.3886 26.6175 35.4349 26.5247 35.47 26.4003L35.485 26.4051L35.47 26.3999L35.5918 26.007H36.4498L36.5973 26.4436C36.638 26.5614 36.6713 26.6588 36.6713 26.7128C36.6665 26.8251 36.5118 26.8334 36.4283 26.8352H36.4039L36.4037 26.9128ZM37.4472 26.9447C37.2806 26.9388 37.1157 26.9302 36.9404 26.9302C36.7603 26.9302 36.5756 26.9389 36.3881 26.9447L36.3718 26.9461V26.9292V26.804H36.3874H36.4281C36.5136 26.804 36.6399 26.7833 36.6406 26.7133C36.6412 26.6721 36.6079 26.5712 36.5665 26.4541L36.4267 26.0386H35.6143L35.5009 26.4097C35.4643 26.5352 35.4194 26.6322 35.4202 26.6911C35.4202 26.7812 35.5579 26.804 35.6803 26.804H35.7367V26.8196V26.9461L35.7203 26.9447C35.5728 26.9388 35.4222 26.9302 35.2755 26.9302C35.1437 26.9302 35.0111 26.9389 34.8787 26.9447L34.8623 26.9461V26.9292V26.804H34.8787H34.8999C35.0366 26.8027 35.1513 26.7243 35.2056 26.576L35.7944 24.8923C35.8421 24.7562 35.9084 24.5732 35.9405 24.4273C36.0567 24.3875 36.2041 24.3143 36.2761 24.2703C36.2849 24.2662 36.2959 24.2624 36.3102 24.2624C36.3204 24.2606 36.3394 24.2638 36.351 24.2835C36.3617 24.3126 36.3729 24.3459 36.3851 24.3756L37.0622 26.294C37.1057 26.423 37.1498 26.5584 37.1982 26.6673C37.2409 26.7646 37.3074 26.8027 37.4256 26.8045H37.4642V26.8201V26.9466L37.4472 26.9447Z" fill="white"/>
<path d="M38.3767 26.5699C38.3767 26.7175 38.4785 26.7612 38.5969 26.7758C38.7478 26.7865 38.9134 26.7865 39.0824 26.7685C39.2372 26.7498 39.3697 26.6618 39.4365 26.5699C39.4949 26.4892 39.5283 26.3867 39.5499 26.3059H39.6573C39.6173 26.5152 39.5655 26.7207 39.5206 26.93C39.1971 26.93 38.8726 26.9151 38.5492 26.9151C38.2243 26.9151 37.9013 26.93 37.5771 26.93V26.8198H37.6279C37.7604 26.8198 37.9044 26.8015 37.9044 26.5741V24.6886C37.9044 24.4977 37.7604 24.4793 37.6279 24.4793H37.5771V24.3691C37.7716 24.3691 37.9635 24.3841 38.1586 24.3841C38.3468 24.3841 38.53 24.3691 38.7183 24.3691V24.4793H38.6258C38.486 24.4793 38.3764 24.4839 38.3764 24.6773V26.57L38.3767 26.5699Z" fill="white"/>
<path d="M39.507 26.9134C39.5491 26.7148 39.5975 26.5201 39.6374 26.3215H39.562C39.539 26.4009 39.5063 26.5003 39.4472 26.5797C39.3793 26.6746 39.2427 26.7647 39.083 26.7845C38.9867 26.7938 38.8913 26.799 38.8003 26.799C38.729 26.799 38.6605 26.7959 38.5936 26.7914C38.4733 26.7786 38.3578 26.727 38.3578 26.57V24.6769C38.3578 24.4732 38.4876 24.4638 38.625 24.4638H38.7004V24.3849C38.5196 24.3855 38.3412 24.3998 38.1575 24.3998C37.9666 24.3998 37.7798 24.3856 37.5917 24.3849V24.4638H37.6272C37.7583 24.4638 37.9193 24.486 37.9193 24.6881V26.5739C37.9193 26.8116 37.759 26.8355 37.6272 26.8355H37.5917V26.9135C37.9095 26.9131 38.2281 26.8989 38.5481 26.8989C38.8681 26.8988 39.1884 26.913 39.507 26.9134ZM39.5199 26.945C39.195 26.945 38.8719 26.9304 38.5485 26.9304C38.2244 26.9304 37.9005 26.945 37.575 26.945H37.5601V26.9294V26.8043H37.575H37.6272C37.7597 26.8005 37.8859 26.7915 37.888 26.5742V24.6883C37.8859 24.5099 37.761 24.4977 37.6272 24.4953H37.5601V24.479V24.3533H37.575C37.7711 24.3533 37.9628 24.3678 38.1579 24.3678C38.3446 24.3678 38.5279 24.3533 38.7175 24.3533H38.7325V24.3696V24.4953H38.7175H38.6251C38.4825 24.4985 38.3934 24.4929 38.3906 24.6769V26.57C38.392 26.7069 38.4811 26.7439 38.5965 26.7602C38.6612 26.765 38.7297 26.7675 38.8004 26.7675C38.8908 26.7675 38.9843 26.763 39.0797 26.753C39.2292 26.7349 39.359 26.6494 39.4225 26.5614C39.4789 26.4834 39.5108 26.3819 39.5332 26.3025L39.5366 26.29H39.5488H39.675L39.6722 26.3098C39.6301 26.5194 39.5797 26.7246 39.5348 26.9332L39.5314 26.9453H39.5199V26.945Z" fill="white"/>
<path d="M39.5496 24.6519H39.5959C39.6456 24.6519 39.6693 24.6149 39.6693 24.5538C39.6693 24.4922 39.6328 24.4707 39.5932 24.4707H39.5497V24.6519H39.5496ZM39.4192 24.8557V24.8369C39.4669 24.83 39.4755 24.8318 39.4755 24.8019V24.516C39.4755 24.4765 39.4713 24.4623 39.4206 24.4647V24.4453H39.6195C39.6874 24.4453 39.7499 24.4769 39.7499 24.5472C39.7499 24.6047 39.712 24.647 39.6581 24.6636L39.722 24.7527C39.7519 24.7918 39.7853 24.8303 39.8075 24.8434V24.8556H39.7314C39.6952 24.8556 39.6636 24.7797 39.5923 24.6781H39.5495V24.806C39.5495 24.8317 39.5582 24.8299 39.6066 24.8369V24.8556L39.4192 24.8557ZM39.6122 24.9652C39.7853 24.9652 39.9186 24.8182 39.9186 24.6519C39.9186 24.486 39.7875 24.3369 39.6122 24.3369C39.4376 24.3369 39.3044 24.4863 39.3044 24.6519C39.3044 24.8182 39.4376 24.9652 39.6122 24.9652ZM39.6122 24.2649C39.8337 24.2649 39.9999 24.4354 39.9999 24.652C39.9999 24.8689 39.8334 25.037 39.6122 25.037C39.3909 25.037 39.2236 24.8689 39.2236 24.652C39.2234 24.4354 39.3907 24.2649 39.6122 24.2649Z" fill="white"/>
</svg>
