<svg width="23" height="24" viewBox="0 0 23 24" fill="none" xmlns="http://www.w3.org/2000/svg">
<path d="M15.2118 12.0001L22.0001 5.2048C22.4408 4.70388 22.6742 4.05393 22.653 3.38706C22.6317 2.7202 22.3572 2.08646 21.8854 1.61467C21.4137 1.14289 20.7799 0.868458 20.1131 0.847167C19.4462 0.825876 18.7962 1.05932 18.2953 1.50005L11.5001 8.2883L4.69257 1.47905C4.44874 1.23522 4.15927 1.0418 3.84069 0.909841C3.52211 0.77788 3.18065 0.709961 2.83582 0.709961C2.49099 0.709961 2.14954 0.77788 1.83096 0.909841C1.51238 1.0418 1.22291 1.23522 0.979073 1.47905C0.735241 1.72288 0.541824 2.01235 0.409863 2.33094C0.277902 2.64952 0.209983 2.99097 0.209983 3.3358C0.209983 3.68063 0.277902 4.02209 0.409863 4.34067C0.541824 4.65925 0.735241 4.94872 0.979073 5.19255L7.78832 12.0001L1.00007 18.7936C0.733851 19.0315 0.518981 19.3213 0.36861 19.6452C0.218239 19.9691 0.135529 20.3202 0.125539 20.6772C0.11555 21.0341 0.178491 21.3894 0.310512 21.7211C0.442534 22.0529 0.64086 22.3543 0.893356 22.6068C1.14585 22.8593 1.44721 23.0576 1.77899 23.1896C2.11077 23.3216 2.466 23.3846 2.82295 23.3746C3.17989 23.3646 3.53104 23.2819 3.85492 23.1315C4.1788 22.9811 4.46859 22.7663 4.70657 22.5001L11.5001 15.7118L18.2866 22.5001C18.779 22.9925 19.4469 23.2691 20.1433 23.2691C20.8397 23.2691 21.5076 22.9925 22.0001 22.5001C22.4925 22.0076 22.7692 21.3397 22.7692 20.6433C22.7692 19.9469 22.4925 19.279 22.0001 18.7866L15.2118 12.0001Z" fill="#AFB5C0"/>
</svg>
