<svg width="16" height="16" viewBox="0 0 16 16" fill="none" xmlns="http://www.w3.org/2000/svg">
<g clip-path="url(#clip0)">
<path d="M15.3962 6.60895L8.86993 6.60864C8.58174 6.60864 8.34814 6.84221 8.34814 7.13039V9.21524C8.34814 9.50336 8.58174 9.73699 8.8699 9.73699H12.5451C12.1427 10.7814 11.3915 11.656 10.4332 12.2118L12.0003 14.9246C14.5141 13.4707 16.0003 10.9198 16.0003 8.06427C16.0003 7.65767 15.9704 7.36702 15.9104 7.03974C15.8649 6.79108 15.649 6.60895 15.3962 6.60895Z" fill="#167EE6"/>
<path d="M7.99985 12.8695C6.20129 12.8695 4.63116 11.8868 3.78788 10.4326L1.0752 11.9962C2.45566 14.3887 5.04173 15.9999 7.99985 15.9999C9.45101 15.9999 10.8203 15.6092 11.9999 14.9283V14.9246L10.4328 12.2117C9.71595 12.6275 8.88645 12.8695 7.99985 12.8695Z" fill="#12B347"/>
<path d="M12 14.9287V14.925L10.4329 12.2122C9.71609 12.6279 8.88666 12.8699 8 12.8699V16.0003C9.45116 16.0003 10.8205 15.6096 12 14.9287Z" fill="#0F993E"/>
<path d="M3.13044 8.00019C3.13044 7.11366 3.37238 6.28425 3.78803 5.56747L1.07534 4.00391C0.390687 5.17975 0 6.54531 0 8.00019C0 9.45506 0.390687 10.8206 1.07534 11.9965L3.78803 10.4329C3.37238 9.71612 3.13044 8.88672 3.13044 8.00019Z" fill="#FFD500"/>
<path d="M7.99985 3.13044C9.1727 3.13044 10.25 3.54719 11.0915 4.24041C11.2991 4.41141 11.6008 4.39906 11.7909 4.20891L13.2681 2.73172C13.4839 2.51597 13.4685 2.16281 13.238 1.96288C11.8282 0.739781 9.99382 0 7.99985 0C5.04173 0 2.45566 1.61116 1.0752 4.00372L3.78788 5.56728C4.63116 4.11313 6.20129 3.13044 7.99985 3.13044Z" fill="#FF4B26"/>
<path d="M11.0916 4.24041C11.2992 4.41141 11.601 4.39906 11.7911 4.20891L13.2683 2.73172C13.484 2.51597 13.4686 2.16281 13.2382 1.96288C11.8283 0.73975 9.99397 0 8 0V3.13044C9.17281 3.13044 10.2502 3.54719 11.0916 4.24041Z" fill="#D93F21"/>
</g>
<defs>
<clipPath id="clip0">
<rect width="16" height="16" fill="white"/>
</clipPath>
</defs>
</svg>
