<svg width="39" height="39" viewBox="0 0 39 39" fill="none" xmlns="http://www.w3.org/2000/svg">
<path d="M19.5 39C30.2695 39 39 30.2695 39 19.5C39 8.73045 30.2695 0 19.5 0C8.73045 0 0 8.73045 0 19.5C0 30.2695 8.73045 39 19.5 39Z" fill="#272727"/>
<path d="M24.5258 10.0516H14.8763C12.2229 10.0516 10.0516 12.2229 10.0516 14.8762V24.5259C10.0516 27.1785 12.2229 29.3506 14.8763 29.3506H24.5258C27.1792 29.3506 29.3505 27.1785 29.3505 24.5259V14.8762C29.3505 12.2229 27.1792 10.0516 24.5258 10.0516ZM27.7422 24.5259C27.7422 26.299 26.2999 27.7423 24.5258 27.7423H14.8763C13.1029 27.7423 11.6599 26.299 11.6599 24.5259V14.8762C11.6599 13.1027 13.1029 11.6599 14.8763 11.6599H24.5258C26.2999 11.6599 27.7422 13.1027 27.7422 14.8762V24.5259Z" fill="white"/>
<path d="M24.9287 15.6802C25.5949 15.6802 26.1349 15.1401 26.1349 14.474C26.1349 13.8079 25.5949 13.2679 24.9287 13.2679C24.2626 13.2679 23.7225 13.8079 23.7225 14.474C23.7225 15.1401 24.2626 15.6802 24.9287 15.6802Z" fill="white"/>
<path d="M19.7011 14.8761C17.0359 14.8761 14.8763 17.0358 14.8763 19.7007C14.8763 22.3647 17.0359 24.5258 19.7011 24.5258C22.3655 24.5258 24.5258 22.3647 24.5258 19.7007C24.5258 17.0358 22.3655 14.8761 19.7011 14.8761ZM19.7011 22.9176C17.9248 22.9176 16.4846 21.4774 16.4846 19.7007C16.4846 17.924 17.9248 16.4844 19.7011 16.4844C21.4773 16.4844 22.9175 17.924 22.9175 19.7007C22.9175 21.4774 21.4773 22.9176 19.7011 22.9176Z" fill="white"/>
</svg>
