<svg width="44" height="45" viewBox="0 0 44 45" fill="none" xmlns="http://www.w3.org/2000/svg">
<path d="M22 45C34.1503 45 44 34.9264 44 22.5C44 10.0736 34.1503 0 22 0C9.84974 0 0 10.0736 0 22.5C0 34.9264 9.84974 45 22 45Z" fill="#AFB5C0"/>
<path d="M27.6701 11.5979H16.7835C13.7899 11.5979 11.3402 14.1032 11.3402 17.1648V28.2991C11.3402 31.3598 13.7899 33.8659 16.7835 33.8659H27.6701C30.6637 33.8659 33.1134 31.3598 33.1134 28.2991V17.1648C33.1134 14.1032 30.6637 11.5979 27.6701 11.5979ZM31.2989 28.2991C31.2989 30.3449 29.6716 32.0102 27.6701 32.0102H16.7835C14.7828 32.0102 13.1547 30.3449 13.1547 28.2991V17.1648C13.1547 15.1184 14.7828 13.4536 16.7835 13.4536H27.6701C29.6716 13.4536 31.2989 15.1184 31.2989 17.1648V28.2991Z" fill="#0B132A"/>
<path d="M28.1247 18.0925C28.8763 18.0925 29.4855 17.4694 29.4855 16.7008C29.4855 15.9321 28.8763 15.3091 28.1247 15.3091C27.3731 15.3091 26.7639 15.9321 26.7639 16.7008C26.7639 17.4694 27.3731 18.0925 28.1247 18.0925Z" fill="#0B132A"/>
<path d="M22.2268 17.1648C19.2199 17.1648 16.7835 19.6568 16.7835 22.7317C16.7835 25.8055 19.2199 28.2991 22.2268 28.2991C25.2328 28.2991 27.6701 25.8055 27.6701 22.7317C27.6701 19.6568 25.2328 17.1648 22.2268 17.1648ZM22.2268 26.4434C20.2228 26.4434 18.598 24.7817 18.598 22.7317C18.598 20.6817 20.2228 19.0206 22.2268 19.0206C24.2308 19.0206 25.8556 20.6817 25.8556 22.7317C25.8556 24.7817 24.2308 26.4434 22.2268 26.4434Z" fill="#0B132A"/>
</svg>
