<svg width="45" height="45" viewBox="0 0 45 45" fill="none" xmlns="http://www.w3.org/2000/svg">
<path d="M22.5 45C34.9264 45 45 34.9264 45 22.5C45 10.0736 34.9264 0 22.5 0C10.0736 0 0 10.0736 0 22.5C0 34.9264 10.0736 45 22.5 45Z" fill="#AFB5C0"/>
<path d="M33.8608 32.0106V32.0097H33.8659V24.5235C33.8659 20.8612 33.0775 18.04 28.796 18.04C26.7377 18.04 25.3565 19.1695 24.7926 20.2403H24.7331V18.3819H20.6736V32.0097H24.9006V25.2618C24.9006 23.485 25.2375 21.767 27.4378 21.767C29.6057 21.767 29.638 23.7946 29.638 25.3757V32.0106H33.8608Z" fill="#0B132A"/>
<path d="M13.7905 18.3826H18.0226V32.0104H13.7905V18.3826Z" fill="#0B132A"/>
<path d="M15.9048 11.5979C14.5516 11.5979 13.4536 12.6959 13.4536 14.0491C13.4536 15.4022 14.5516 16.5232 15.9048 16.5232C17.2579 16.5232 18.356 15.4022 18.356 14.0491C18.3551 12.6959 17.2571 11.5979 15.9048 11.5979Z" fill="#0B132A"/>
</svg>
