<svg width="39" height="39" viewBox="0 0 39 39" fill="none" xmlns="http://www.w3.org/2000/svg">
<path d="M19.5 39C30.2696 39 39 30.2696 39 19.5C39 8.73045 30.2696 0 19.5 0C8.73045 0 0 8.73045 0 19.5C0 30.2696 8.73045 39 19.5 39Z" fill="#272727"/>
<path d="M29.3461 27.7425V27.7417H29.3505V21.2537C29.3505 18.0797 28.6672 15.6347 24.9566 15.6347C23.1728 15.6347 21.9757 16.6136 21.487 17.5416H21.4354V15.931H17.9172V27.7417H21.5806V21.8935C21.5806 20.3537 21.8725 18.8647 23.7794 18.8647C25.6583 18.8647 25.6863 20.622 25.6863 21.9923V27.7425H29.3461Z" fill="white"/>
<path d="M11.9518 15.9316H15.6197V27.7423H11.9518V15.9316Z" fill="white"/>
<path d="M13.7842 10.0516C12.6115 10.0516 11.6599 11.0032 11.6599 12.1759C11.6599 13.3487 12.6115 14.3202 13.7842 14.3202C14.9569 14.3202 15.9086 13.3487 15.9086 12.1759C15.9078 11.0032 14.9562 10.0516 13.7842 10.0516Z" fill="white"/>
</svg>
