<svg width="21" height="25" viewBox="0 0 21 25" fill="none" xmlns="http://www.w3.org/2000/svg">
<path d="M17.0056 5.3468e-09H3.33904C2.4429 0.0126163 1.58829 0.379928 0.962462 1.02146C0.336631 1.66299 -0.00939535 2.52644 0.000194128 3.42262V22.977C-0.00220988 23.3675 0.109852 23.7502 0.322533 24.0777C0.535213 24.4052 0.839194 24.6633 1.19691 24.8199C1.53653 24.9804 1.91645 25.0354 2.28762 24.9778C2.65879 24.9202 3.00418 24.7527 3.2792 24.4968L9.68165 18.8244C9.82786 18.7079 10.0093 18.6444 10.1962 18.6444C10.3832 18.6444 10.5646 18.7079 10.7108 18.8244L17.1133 24.4968C17.3899 24.7498 17.7351 24.9155 18.1056 24.9729C18.4761 25.0304 18.8552 24.9772 19.1956 24.8199C19.5533 24.6633 19.8573 24.4052 20.0699 24.0777C20.2826 23.7502 20.3947 23.3675 20.3923 22.977V3.42262C20.397 2.97485 20.3129 2.5306 20.1449 2.11555C19.9768 1.7005 19.7281 1.3229 19.4131 1.0046C19.0982 0.686307 18.7232 0.433628 18.3099 0.261189C17.8967 0.0887501 17.4533 -2.51554e-05 17.0056 5.3468e-09Z" fill="#DE1A3E"/>
</svg>
