<svg width="48" height="33" viewBox="0 0 48 33" fill="none" xmlns="http://www.w3.org/2000/svg">
<rect y="5" width="48" height="22" fill="black"/>
<path d="M45.1627 0H2.83734C1.27031 0 0 1.27031 0 2.83744V5.78231H48V2.83744C48 1.27031 46.7298 0 45.1627 0Z" fill="black"/>
<path d="M45.1627 0H2.83734C1.27031 0 0 1.27031 0 2.83744V5.78231H48V2.83744C48 1.27031 46.7298 0 45.1627 0Z" fill="black"/>
<path d="M2.83735 32.7822L45.1627 32.7822C46.7297 32.7822 48 31.5119 48 29.9448L48 26.9999L5.05506e-07 26.9999L2.48057e-07 29.9448C1.11054e-07 31.5119 1.27022 32.7822 2.83735 32.7822Z" fill="black"/>
<path d="M14.4605 28.2041V26.6592C14.4695 26.5293 14.4508 26.3989 14.4055 26.2768C14.3602 26.1546 14.2894 26.0436 14.1978 25.951C14.1061 25.8584 13.9958 25.7864 13.8742 25.7398C13.7526 25.6932 13.6224 25.6731 13.4924 25.6808C13.3222 25.6697 13.1522 25.7045 13 25.7814C12.8479 25.8584 12.7191 25.9748 12.6273 26.1185C12.5435 25.9791 12.4238 25.8649 12.2806 25.7879C12.1374 25.7108 11.9761 25.6738 11.8136 25.6808C11.672 25.6737 11.531 25.7037 11.4046 25.7678C11.2781 25.8319 11.1706 25.928 11.0927 26.0464V25.7426H10.5571V28.2041H11.0978V26.8394C11.0861 26.7552 11.0932 26.6695 11.1186 26.5883C11.144 26.5072 11.1871 26.4327 11.2447 26.3702C11.3023 26.3076 11.373 26.2586 11.4518 26.2267C11.5306 26.1948 11.6155 26.1807 11.7003 26.1854C12.0556 26.1854 12.2359 26.4172 12.2359 26.8343V28.2041H12.7766V26.8394C12.7658 26.7554 12.7735 26.67 12.7992 26.5892C12.8249 26.5085 12.868 26.4343 12.9254 26.372C12.9829 26.3097 13.0532 26.2607 13.1316 26.2285C13.21 26.1962 13.2945 26.1815 13.3791 26.1854C13.7447 26.1854 13.9198 26.4172 13.9198 26.8343V28.2041H14.4605ZM22.4629 25.7426H21.5875V24.9959H21.0468V25.7426H20.5472V26.2318H21.0468V27.3544C21.0468 27.926 21.2682 28.2659 21.9016 28.2659C22.1382 28.2666 22.3702 28.2005 22.571 28.0753L22.4165 27.617C22.2729 27.7027 22.1099 27.7505 21.9428 27.7561C21.675 27.7561 21.5875 27.5912 21.5875 27.3441V26.2318H22.4629V25.7426ZM27.0305 25.6808C26.8999 25.6769 26.7707 25.7084 26.6565 25.7718C26.5424 25.8353 26.4474 25.9284 26.3817 26.0413V25.7426H25.8513V28.2041H26.3868V26.824C26.3868 26.4172 26.5619 26.1906 26.9121 26.1906C27.0266 26.189 27.1404 26.21 27.2468 26.2524L27.4116 25.7477C27.2893 25.704 27.1604 25.6813 27.0305 25.6808ZM20.125 25.9383C19.8218 25.758 19.4733 25.6686 19.1208 25.6808C18.4977 25.6808 18.0961 25.9795 18.0961 26.4687C18.0961 26.8703 18.3947 27.1175 18.9457 27.1948L19.1981 27.2308C19.4916 27.2719 19.6306 27.3492 19.6306 27.4883C19.6306 27.6788 19.4349 27.787 19.0693 27.787C18.7752 27.7954 18.4868 27.7047 18.2505 27.5294L17.9982 27.9466C18.3102 28.1644 18.6838 28.2764 19.0642 28.2659C19.7748 28.2659 20.1867 27.9311 20.1867 27.4625C20.1867 27.03 19.8624 26.8034 19.3268 26.7261L19.0745 26.6901C18.8427 26.6592 18.6574 26.6129 18.6574 26.4481C18.6574 26.2678 18.8324 26.1597 19.126 26.1597C19.3955 26.1638 19.6596 26.2364 19.8933 26.3708L20.125 25.9383ZM34.4716 25.6808C34.341 25.6769 34.2118 25.7084 34.0976 25.7718C33.9834 25.8353 33.8885 25.9284 33.8228 26.0413V25.7426H33.2924V28.2041H33.8279V26.824C33.8279 26.4172 34.003 26.1906 34.3531 26.1906C34.4677 26.189 34.5814 26.21 34.6879 26.2524L34.8527 25.7477C34.7304 25.704 34.6015 25.6813 34.4716 25.6808ZM27.5712 26.9733C27.5641 27.1467 27.5933 27.3197 27.6571 27.4811C27.7208 27.6425 27.8177 27.7888 27.9414 27.9105C28.065 28.0323 28.2128 28.1268 28.3753 28.188C28.5377 28.2492 28.7111 28.2757 28.8844 28.2659C29.2059 28.282 29.5218 28.1773 29.77 27.9723L29.5126 27.5397C29.3274 27.6809 29.1017 27.7585 28.8689 27.7612C28.6682 27.749 28.4797 27.6607 28.3419 27.5143C28.2041 27.3679 28.1274 27.1744 28.1274 26.9733C28.1274 26.7722 28.2041 26.5788 28.3419 26.4323C28.4797 26.2859 28.6682 26.1976 28.8689 26.1854C29.1017 26.1881 29.3274 26.2657 29.5126 26.4069L29.77 25.9743C29.5218 25.7693 29.2059 25.6646 28.8844 25.6808C28.7111 25.6709 28.5377 25.6975 28.3753 25.7586C28.2129 25.8198 28.0651 25.9143 27.9414 26.0361C27.8177 26.1578 27.7209 26.3041 27.6571 26.4655C27.5934 26.6269 27.5641 26.7999 27.5712 26.9733ZM32.5869 26.9733V25.7426H32.0513V26.0413C31.9599 25.9235 31.8416 25.8293 31.7063 25.7665C31.571 25.7038 31.4227 25.6744 31.2737 25.6808C30.9419 25.6971 30.629 25.8403 30.3999 26.081C30.1708 26.3216 30.043 26.6411 30.043 26.9733C30.043 27.3056 30.1708 27.6251 30.3999 27.8657C30.629 28.1063 30.9419 28.2496 31.2737 28.2659C31.4227 28.2722 31.571 28.2428 31.7063 28.1801C31.8416 28.1174 31.9599 28.0232 32.0513 27.9054V28.2041H32.5869V26.9733ZM30.594 26.9733C30.6023 26.828 30.6529 26.6884 30.7396 26.5716C30.8264 26.4547 30.9454 26.3659 31.082 26.3159C31.2186 26.2659 31.3669 26.257 31.5086 26.2903C31.6502 26.3235 31.779 26.3975 31.8791 26.5031C31.9791 26.6087 32.0461 26.7413 32.0718 26.8845C32.0974 27.0278 32.0805 27.1753 32.0233 27.3091C31.9661 27.4428 31.8709 27.5569 31.7496 27.6373C31.6283 27.7176 31.4862 27.7607 31.3407 27.7612C31.2387 27.7626 31.1376 27.7428 31.0436 27.7032C30.9496 27.6635 30.8649 27.6048 30.7948 27.5308C30.7246 27.4568 30.6705 27.369 30.636 27.2731C30.6014 27.1771 30.5871 27.075 30.594 26.9733ZM24.1313 25.6808C23.7974 25.6984 23.4832 25.8446 23.2547 26.0888C23.0262 26.3331 22.9012 26.6563 22.9058 26.9907C22.9105 27.3251 23.0445 27.6447 23.2797 27.8824C23.5149 28.1202 23.833 28.2576 24.1674 28.2659C24.5348 28.2788 24.8941 28.1559 25.1767 27.9208L24.914 27.5243C24.7107 27.6873 24.4588 27.7779 24.1983 27.7818C24.0213 27.7967 23.8455 27.7421 23.708 27.6297C23.5706 27.5172 23.4823 27.3557 23.4619 27.1793H25.29C25.2951 27.1124 25.3003 27.0454 25.3003 26.9733C25.2951 26.206 24.8214 25.6808 24.1313 25.6808ZM24.121 26.1597C24.2828 26.1565 24.4392 26.2177 24.556 26.3296C24.6728 26.4416 24.7404 26.5953 24.7441 26.757H23.467C23.4764 26.5918 23.5501 26.4368 23.6723 26.3251C23.7945 26.2135 23.9556 26.1541 24.121 26.1597ZM37.5562 26.9733V24.7539H37.0206V26.0413C36.9292 25.9235 36.8109 25.8293 36.6756 25.7665C36.5403 25.7038 36.392 25.6744 36.243 25.6808C35.9112 25.6971 35.5983 25.8403 35.3692 26.0809C35.14 26.3216 35.0123 26.6411 35.0123 26.9733C35.0123 27.3056 35.14 27.6251 35.3692 27.8657C35.5983 28.1063 35.9112 28.2496 36.243 28.2659C36.392 28.2722 36.5403 28.2428 36.6756 28.1801C36.8109 28.1174 36.9292 28.0232 37.0206 27.9054V28.2041H37.5562V26.9733ZM38.4489 27.8473C38.4822 27.8471 38.5151 27.8537 38.5458 27.8666C38.5753 27.8789 38.6021 27.8967 38.6249 27.919C38.6476 27.9413 38.6657 27.9678 38.6783 27.997C38.6911 28.0269 38.6978 28.0592 38.6978 28.0919C38.6978 28.1245 38.6911 28.1568 38.6783 28.1868C38.6656 28.2158 38.6475 28.2422 38.6249 28.2644C38.6021 28.2868 38.5752 28.3046 38.5458 28.3171C38.5152 28.3303 38.4822 28.3369 38.4489 28.3367C38.3999 28.3372 38.3519 28.3232 38.3107 28.2966C38.2696 28.2699 38.2373 28.2317 38.2178 28.1868C38.2049 28.1568 38.1983 28.1245 38.1983 28.0919C38.1983 28.0592 38.2049 28.027 38.2178 27.997C38.2303 27.9678 38.2483 27.9414 38.2709 27.919C38.2936 27.8965 38.3206 27.8787 38.3503 27.8666C38.3816 27.8536 38.4151 27.8471 38.4489 27.8473ZM38.4489 28.2827C38.4743 28.2829 38.4994 28.2778 38.5227 28.2677C38.5451 28.258 38.5654 28.2442 38.5826 28.2269C38.6182 28.191 38.6381 28.1425 38.6381 28.092C38.6381 28.0414 38.6182 27.993 38.5826 27.957C38.5654 27.9399 38.5451 27.9261 38.5227 27.9166C38.4994 27.9067 38.4742 27.9017 38.4489 27.9019C38.4231 27.9017 38.3975 27.9067 38.3737 27.9166C38.3509 27.926 38.3303 27.9397 38.3128 27.957C38.2772 27.9929 38.2573 28.0414 38.2573 28.092C38.2573 28.1425 38.2772 28.191 38.3128 28.2269C38.3303 28.2443 38.3509 28.2581 38.3737 28.2677C38.3975 28.2778 38.4231 28.2829 38.4489 28.2827ZM38.4633 27.9774C38.4874 27.9759 38.5113 27.9828 38.5308 27.997C38.5386 28.0034 38.5448 28.0115 38.5489 28.0207C38.553 28.0299 38.5549 28.04 38.5545 28.05C38.5547 28.0587 38.5532 28.0673 38.5499 28.0753C38.5467 28.0832 38.5418 28.0905 38.5356 28.0965C38.5207 28.1097 38.5018 28.1176 38.4819 28.119L38.5563 28.2047H38.4981L38.4291 28.1196H38.407V28.2047H38.3584V27.9774H38.4633ZM38.407 28.0201V28.0806H38.4627C38.4734 28.0812 38.4841 28.0785 38.4933 28.0731C38.4971 28.0706 38.5001 28.0671 38.5021 28.0631C38.5041 28.059 38.505 28.0545 38.5047 28.05C38.5049 28.0456 38.504 28.0412 38.502 28.0372C38.5 28.0333 38.497 28.0299 38.4933 28.0275C38.4841 28.0221 38.4734 28.0195 38.4627 28.0201H38.407ZM35.5633 26.9733C35.5716 26.828 35.6223 26.6884 35.709 26.5716C35.7957 26.4548 35.9147 26.3659 36.0514 26.3159C36.188 26.266 36.3363 26.2571 36.4779 26.2904C36.6195 26.3236 36.7483 26.3976 36.8484 26.5032C36.9484 26.6088 37.0154 26.7414 37.041 26.8846C37.0667 27.0278 37.0498 27.1754 36.9926 27.3091C36.9353 27.4429 36.8402 27.557 36.7189 27.6373C36.5976 27.7176 36.4554 27.7607 36.31 27.7612C36.208 27.7626 36.1068 27.7428 36.0129 27.7031C35.9189 27.6635 35.8342 27.6048 35.7641 27.5308C35.6939 27.4567 35.6399 27.369 35.6053 27.273C35.5708 27.1771 35.5564 27.075 35.5633 26.9733ZM17.4781 26.9733V25.7426H16.9426V26.0413C16.8511 25.9235 16.7328 25.8293 16.5976 25.7665C16.4623 25.7038 16.3139 25.6744 16.165 25.6808C15.8331 25.6971 15.5203 25.8403 15.2911 26.081C15.062 26.3216 14.9343 26.6411 14.9343 26.9733C14.9343 27.3056 15.062 27.6251 15.2911 27.8657C15.5203 28.1063 15.8331 28.2496 16.165 28.2659C16.3139 28.2722 16.4623 28.2428 16.5976 28.1801C16.7328 28.1174 16.8511 28.0232 16.9426 27.9054V28.2041H17.4781V26.9733ZM15.4853 26.9733C15.4936 26.828 15.5442 26.6884 15.631 26.5716C15.7177 26.4548 15.8367 26.3659 15.9733 26.3159C16.11 26.266 16.2582 26.2571 16.3998 26.2904C16.5415 26.3236 16.6703 26.3976 16.7703 26.5032C16.8704 26.6088 16.9374 26.7414 16.963 26.8846C16.9886 27.0278 16.9718 27.1754 16.9145 27.3091C16.8573 27.4429 16.7621 27.557 16.6409 27.6373C16.5196 27.7176 16.3774 27.7607 16.2319 27.7612C16.13 27.7626 16.0288 27.7428 15.9348 27.7031C15.8409 27.6635 15.7562 27.6048 15.686 27.5308C15.6159 27.4567 15.5618 27.369 15.5273 27.273C15.4927 27.1771 15.4784 27.075 15.4853 26.9733Z" fill="white"/>
<path d="M28.0569 6.98267H19.9453V21.5595H28.0569V6.98267Z" fill="#FF5F00"/>
<path d="M20.4585 14.2704C20.4573 12.8666 20.7754 11.4808 21.3888 10.2181C22.0023 8.95538 22.895 7.84875 23.9993 6.98202C22.6317 5.90707 20.9893 5.23858 19.2598 5.05295C17.5302 4.86731 15.7833 5.17203 14.2188 5.93227C12.6542 6.69251 11.3351 7.8776 10.4123 9.35209C9.4894 10.8266 9 12.531 9 14.2704C9 16.0099 9.4894 17.7143 10.4123 19.1888C11.3351 20.6633 12.6542 21.8484 14.2188 22.6086C15.7833 23.3688 17.5302 23.6736 19.2598 23.4879C20.9893 23.3023 22.6317 22.6338 23.9993 21.5589C22.895 20.6921 22.0023 19.5855 21.3888 18.3228C20.7754 17.06 20.4573 15.6743 20.4585 14.2704Z" fill="#EB001B"/>
<path d="M38.9998 14.2704C38.9999 16.0099 38.5105 17.7143 37.5877 19.1888C36.6649 20.6632 35.3459 21.8483 33.7813 22.6086C32.2168 23.3688 30.47 23.6736 28.7404 23.4879C27.0109 23.3023 25.3685 22.6338 24.001 21.5588C25.1044 20.6912 25.9963 19.5844 26.6097 18.3219C27.223 17.0594 27.5417 15.6741 27.5417 14.2704C27.5417 12.8668 27.223 11.4815 26.6097 10.219C25.9963 8.95643 25.1044 7.84963 24.001 6.98202C25.3685 5.90707 27.0109 5.23857 28.7404 5.05294C30.47 4.86731 32.2168 5.17204 33.7813 5.93229C35.3459 6.69254 36.6649 7.87763 37.5877 9.35212C38.5105 10.8266 38.9999 12.531 38.9998 14.2704Z" fill="#F79E1B"/>
<path d="M38.1109 20.0168V19.7184H38.2313V19.6576H37.9248V19.7184H38.0452V20.0168H38.1109ZM38.7059 20.0168V19.657H38.612L38.5039 19.9045L38.3958 19.657H38.3019V20.0168H38.3682V19.7454L38.4695 19.9794H38.5383L38.6396 19.7448V20.0168H38.7059Z" fill="#F79E1B"/>
</svg>
