<svg width="16" height="14" viewBox="0 0 16 14" fill="none" xmlns="http://www.w3.org/2000/svg">
<path d="M15 2.625H1C0.767936 2.625 0.545376 2.53281 0.381282 2.36872C0.217187 2.20462 0.125 1.98206 0.125 1.75C0.125 1.51794 0.217187 1.29538 0.381282 1.13128C0.545376 0.967187 0.767936 0.875 1 0.875H15C15.2321 0.875 15.4546 0.967187 15.6187 1.13128C15.7828 1.29538 15.875 1.51794 15.875 1.75C15.875 1.98206 15.7828 2.20462 15.6187 2.36872C15.4546 2.53281 15.2321 2.625 15 2.625Z" fill="#4E4E4D"/>
<path d="M15 7.875H1C0.767936 7.875 0.545376 7.78281 0.381282 7.61872C0.217187 7.45462 0.125 7.23206 0.125 7C0.125 6.76794 0.217187 6.54538 0.381282 6.38128C0.545376 6.21719 0.767936 6.125 1 6.125H15C15.2321 6.125 15.4546 6.21719 15.6187 6.38128C15.7828 6.54538 15.875 6.76794 15.875 7C15.875 7.23206 15.7828 7.45462 15.6187 7.61872C15.4546 7.78281 15.2321 7.875 15 7.875Z" fill="#4E4E4D"/>
<path d="M15 13.125H1C0.767936 13.125 0.545376 13.0328 0.381282 12.8687C0.217187 12.7046 0.125 12.4821 0.125 12.25C0.125 12.0179 0.217187 11.7954 0.381282 11.6313C0.545376 11.4672 0.767936 11.375 1 11.375H15C15.2321 11.375 15.4546 11.4672 15.6187 11.6313C15.7828 11.7954 15.875 12.0179 15.875 12.25C15.875 12.4821 15.7828 12.7046 15.6187 12.8687C15.4546 13.0328 15.2321 13.125 15 13.125Z" fill="#4E4E4D"/>
</svg>
