<svg width="23" height="29" viewBox="0 0 23 29" fill="none" xmlns="http://www.w3.org/2000/svg">
<path d="M18.094 9.11659V6.60862C18.094 2.9719 15.1355 0.0144043 11.4998 0.0144043C7.8642 0.0144043 4.90561 2.9719 4.90561 6.60862V6.60972V6.61081L4.91217 9.11659C2.38561 9.42175 0.413574 11.5546 0.413574 14.1621V23.8789C0.413574 26.6953 2.70498 28.9857 5.52029 28.9857H17.4794C20.2958 28.9857 22.5861 26.6943 22.5861 23.8789V14.1621C22.5861 11.5567 20.6184 9.42503 18.094 9.11659ZM11.4998 1.14862C14.5098 1.14862 16.9598 3.59753 16.9598 6.60862V9.05425H6.04639L6.03983 6.60862C6.03983 3.59862 8.48982 1.14862 11.4998 1.14862ZM21.4519 23.8789C21.4519 26.0686 19.6701 27.8514 17.4794 27.8514H5.52029C3.33061 27.8514 1.54779 26.0697 1.54779 23.8789V14.1621C1.54779 11.9724 3.32951 10.1896 5.52029 10.1896H17.4794C19.669 10.1896 21.4519 11.9713 21.4519 14.1621V23.8789Z" fill="#AFB5C0"/>
<path d="M14.7243 16.4481C14.7243 15.4725 14.2889 14.5592 13.531 13.9434C12.7719 13.3276 11.7766 13.0936 10.8065 13.297C9.63833 13.542 8.6627 14.4804 8.37723 15.6322C8.06005 16.9086 8.51395 18.2069 9.51583 18.9867L8.59817 22.8072C8.50848 23.1801 8.5927 23.5673 8.83114 23.8692C9.06848 24.1711 9.42614 24.3439 9.81004 24.3439H13.1908C13.5758 24.3439 13.9324 24.17 14.1708 23.8681C14.4082 23.5662 14.4924 23.179 14.4027 22.8072L13.485 18.9856C14.2572 18.3797 14.7243 17.4412 14.7243 16.4481ZM12.2885 18.9123L13.2969 23.1145C13.2532 23.1703 13.2335 23.1944 13.1897 23.2512H9.80895L9.70176 23.1145L10.7102 18.9123C10.766 18.6815 10.6829 18.4245 10.4761 18.3086C9.63067 17.8306 9.23036 16.8495 9.49176 15.8936C9.69739 15.1444 10.3613 14.5625 11.128 14.4323C11.2549 14.4104 11.3807 14.3995 11.5043 14.3995C11.9833 14.3995 12.4372 14.5592 12.8157 14.8665C13.3068 15.2658 13.5889 15.8575 13.5889 16.4897C13.5889 17.2323 13.1854 17.9279 12.5389 18.2998C12.3279 18.4212 12.2316 18.675 12.2885 18.9123Z" fill="#AFB5C0"/>
</svg>
