<svg width="19" height="19" viewBox="0 0 19 19" fill="none" xmlns="http://www.w3.org/2000/svg">
<g clip-path="url(#clip0_764:149)">
<path d="M15.9155 4.90883C15.9476 4.64739 15.9645 4.38121 15.9645 4.11109C15.9645 1.84062 14.1239 0 11.8534 0H4.98286C4.55068 0 4.18171 0.31209 4.11001 0.738254L1.57841 15.7852C1.48757 16.3251 1.90378 16.8172 2.45126 16.8172H4.96397C5.39615 16.8172 5.77206 16.5053 5.84372 16.0791C5.84372 16.0791 5.84792 16.0541 5.85549 16.0091H5.85552L5.50536 18.0904C5.42535 18.5663 5.79218 19 6.27471 19H8.47296C8.85389 19 9.17911 18.7249 9.24227 18.3493L9.86679 14.6376C9.97444 13.9978 10.5284 13.5293 11.1772 13.5293H11.7547C14.8915 13.5293 17.4344 10.9863 17.4344 7.84952C17.4344 6.63571 16.8344 5.56277 15.9155 4.90883Z" fill="#002987"/>
<path d="M15.9152 4.90894C15.5221 8.10699 12.7964 10.5833 9.4921 10.5833H7.57485C7.14211 10.5833 6.76838 10.8716 6.65116 11.2791L5.50514 18.0905C5.4251 18.5664 5.79193 19.0001 6.27446 19.0001H8.47271C8.85364 19.0001 9.17886 18.725 9.24202 18.3494L9.86654 14.6377C9.97419 13.9979 10.5281 13.5294 11.1769 13.5294H11.7544C14.8913 13.5294 17.4341 10.9865 17.4341 7.84963C17.4341 6.63582 16.8342 5.56288 15.9152 4.90894Z" fill="#0085CC"/>
<path d="M7.57509 10.5832H9.49235C12.7967 10.5832 15.5224 8.10686 15.9155 4.90885C15.3259 4.48929 14.6054 4.2417 13.8266 4.2417H8.82238C8.25264 4.2417 7.76617 4.65313 7.67162 5.21497L6.65137 11.2789C6.7686 10.8714 7.14236 10.5832 7.57509 10.5832Z" fill="#00186A"/>
</g>
<defs>
<clipPath id="clip0_764:149">
<rect width="19" height="19" fill="white"/>
</clipPath>
</defs>
</svg>
