<svg width="20" height="20" viewBox="0 0 20 20" fill="none" xmlns="http://www.w3.org/2000/svg">
<path d="M10 0C4.486 0 0 4.486 0 10C0 15.514 4.486 20 10 20C15.514 20 20 15.514 20 10C20 4.486 15.514 0 10 0ZM10 15C9.448 15 9 14.552 9 14C9 13.448 9.448 13 10 13C10.553 13 11 13.448 11 14C11 14.552 10.553 15 10 15ZM11.369 10.588C11.25 10.663 11.089 10.765 10.988 10.847C11.027 11.339 10.708 11.824 10.218 11.936C10.137 11.955 10.055 11.963 9.976 11.963C9.529 11.963 9.13 11.679 9.025 11.222C8.966 10.965 8.898 10.472 9.103 10.057C9.393 9.469 9.897 9.151 10.303 8.895C10.877 8.534 11 8.417 11 8C11 7.449 10.551 7 10 7C9.449 7 9 7.449 9 8C9 8.552 8.552 9 8 9C7.448 9 7 8.552 7 8C7 6.346 8.346 5 10 5C11.654 5 13 6.346 13 8C13 9.56 11.979 10.204 11.369 10.588Z" fill="#4F5665"/>
</svg>
