<svg width="20" height="14" viewBox="0 0 20 14" fill="none" xmlns="http://www.w3.org/2000/svg">
<path d="M17.5472 0H2.45283C1.1 0 0 1.15056 0 2.56338V11.4366C0 12.8504 1.10094 14 2.45283 14H17.5472C18.9 14 20 12.8494 20 11.4366V2.56338C20 1.14958 18.9 0 17.5472 0ZM18.8679 11.4366C18.8679 12.1977 18.2745 12.8169 17.5472 12.8169H2.45283C1.72453 12.8169 1.13208 12.1977 1.13208 11.4366V4.9631H18.8679V11.4366ZM18.8679 3.77901H1.13208V2.56338C1.13208 1.80225 1.72453 1.1831 2.45283 1.1831H17.5472C18.2745 1.1831 18.8679 1.80225 18.8679 2.56338V3.77901ZM13.2075 10.3896C13.2075 10.0623 13.4613 9.79803 13.7736 9.79803H15.6604C15.9726 9.79803 16.2264 10.0632 16.2264 10.3896C16.2264 10.7159 15.9726 10.9811 15.6604 10.9811H13.7736C13.4613 10.9811 13.2075 10.7159 13.2075 10.3896Z" fill="#AFB5C0"/>
</svg>
