<svg width="24" height="23" viewBox="0 0 24 23" fill="none" xmlns="http://www.w3.org/2000/svg">
<g clip-path="url(#clip0_764:225)">
<path d="M13.8572 18.3696H11.9249C11.5564 18.3696 11.2588 18.6543 11.2588 19.0068C11.2588 19.3593 11.5564 19.644 11.9249 19.644H13.8572C14.2257 19.644 14.5234 19.3593 14.5234 19.0068C14.5234 18.6543 14.2257 18.3696 13.8572 18.3696Z" fill="#C8CDCC"/>
<path d="M23.4052 6.57967L17.1217 0.569394C16.328 -0.189798 15.0383 -0.189798 14.2446 0.569394L3.79419 10.5745H2.03198C0.912299 10.5745 0.000488281 11.4466 0.000488281 12.5176V21.0134C0.000488281 22.0844 0.912299 22.9565 2.03198 22.9565H16.4131C17.5328 22.9565 18.4446 22.0844 18.4446 21.0134V14.0722L23.4005 9.33174C24.1989 8.57254 24.1989 7.33886 23.4052 6.57967ZM15.1895 1.47319C15.4635 1.21109 15.9076 1.21109 16.1816 1.47319L17.2682 2.51256L8.84458 10.5745H5.6745L15.1895 1.47319ZM1.33277 12.5176C1.33277 12.1471 1.64458 11.8488 2.03198 11.8488H16.4131C16.8005 11.8488 17.1123 12.1471 17.1123 12.5176V13.9908H1.33277V12.5176ZM17.117 21.0179C17.117 21.3884 16.8052 21.6867 16.4178 21.6867H2.03198C1.64458 21.6867 1.33277 21.3884 1.33277 21.0179V15.2652H17.117V21.0179ZM22.4651 8.43246L18.4351 12.2872C18.3123 11.3246 17.4572 10.5745 16.4178 10.5745H10.7343L18.2131 3.41636L22.4651 7.48347C22.7343 7.74557 22.7343 8.17035 22.4651 8.43246Z" fill="#C8CDCC"/>
</g>
<defs>
<clipPath id="clip0_764:225">
<rect width="24" height="22.9565" fill="white"/>
</clipPath>
</defs>
</svg>
