<svg width="29" height="19" viewBox="0 0 29 19" fill="none" xmlns="http://www.w3.org/2000/svg">
<path d="M2.96873 0H25.5312C27.1708 0 28.5 1.32915 28.5 2.96873V16.0313C28.5 17.6709 27.1708 19 25.5312 19H2.96873C1.32915 19.0001 0 17.6709 0 16.0313V2.96879C0 1.32915 1.32915 0 2.96873 0Z" fill="#2196F3"/>
<path d="M28.5 3.5625H0V8.31249H28.5V3.5625Z" fill="#455A64"/>
<path d="M8.90626 13.0625H4.15627C3.82835 13.0625 3.5625 12.7967 3.5625 12.4688C3.5625 12.1408 3.82835 11.875 4.15627 11.875H8.90626C9.23417 11.875 9.50003 12.1408 9.50003 12.4688C9.50003 12.7967 9.23417 13.0625 8.90626 13.0625Z" fill="#FAFAFA"/>
<path d="M12.4688 15.4375H4.15627C3.82835 15.4375 3.5625 15.1717 3.5625 14.8438C3.5625 14.5159 3.82835 14.25 4.15627 14.25H12.4688C12.7967 14.25 13.0625 14.5159 13.0625 14.8438C13.0625 15.1717 12.7967 15.4375 12.4688 15.4375Z" fill="#FAFAFA"/>
</svg>
