<svg width="39" height="39" viewBox="0 0 39 39" fill="none" xmlns="http://www.w3.org/2000/svg">
<path d="M19.5 39C30.2696 39 39 30.2696 39 19.5C39 8.73045 30.2696 0 19.5 0C8.73045 0 0 8.73045 0 19.5C0 30.2696 8.73045 39 19.5 39Z" fill="#272727"/>
<path d="M29.7526 13.5637C29.005 13.8866 28.2084 14.1006 27.3779 14.2045C28.2323 13.7023 28.8844 12.913 29.191 11.9617C28.3944 12.4293 27.5149 12.7596 26.5776 12.9439C25.8212 12.1509 24.7431 11.6598 23.5671 11.6598C21.2854 11.6598 19.4485 13.4833 19.4485 15.7188C19.4485 16.0404 19.4761 16.3497 19.544 16.6441C16.1176 16.4795 13.0858 14.8627 11.0492 12.3996C10.6936 13.007 10.485 13.7023 10.485 14.4507C10.485 15.8561 11.22 17.1018 12.3157 17.8231C11.6535 17.8107 11.0039 17.6214 10.4536 17.3233C10.4536 17.3356 10.4536 17.3517 10.4536 17.3678C10.4536 19.3398 11.8822 20.9777 13.7555 21.355C13.42 21.4453 13.0544 21.4886 12.675 21.4886C12.4111 21.4886 12.1447 21.4738 11.8948 21.4194C12.4287 23.0264 13.944 24.2078 15.7458 24.2462C14.3436 25.3262 12.5631 25.9769 10.6358 25.9769C10.2978 25.9769 9.97361 25.962 9.64948 25.9212C11.4751 27.0804 13.6387 27.7423 15.9719 27.7423C23.5558 27.7423 27.7021 21.5567 27.7021 16.195C27.7021 16.0157 27.6958 15.8424 27.687 15.6705C28.5049 15.0989 29.1922 14.3852 29.7526 13.5637Z" fill="white"/>
</svg>
