<svg width="45" height="45" viewBox="0 0 45 45" fill="none" xmlns="http://www.w3.org/2000/svg">
<path d="M22.5 45C34.9264 45 45 34.9264 45 22.5C45 10.0736 34.9264 0 22.5 0C10.0736 0 0 10.0736 0 22.5C0 34.9264 10.0736 45 22.5 45Z" fill="#AFB5C0"/>
<path d="M34.3299 15.6504C33.4673 16.023 32.5482 16.2699 31.5899 16.3898C32.5757 15.8103 33.3281 14.8996 33.6819 13.8019C32.7628 14.3415 31.748 14.7226 30.6664 14.9353C29.7937 14.0203 28.5498 13.4536 27.1928 13.4536C24.5601 13.4536 22.4406 15.5576 22.4406 18.1371C22.4406 18.5081 22.4725 18.865 22.5507 19.2048C18.5973 19.0149 15.0991 17.1492 12.7491 14.3072C12.3387 15.0081 12.0981 15.8103 12.0981 16.6739C12.0981 18.2955 12.9462 19.7329 14.2104 20.5651C13.4464 20.5508 12.6968 20.3324 12.0619 19.9884C12.0619 20.0027 12.0619 20.0212 12.0619 20.0398C12.0619 22.3151 13.7102 24.205 15.8718 24.6404C15.4847 24.7446 15.0628 24.7946 14.625 24.7946C14.3206 24.7946 14.0132 24.7775 13.7248 24.7147C14.3409 26.5689 16.0893 27.9321 18.1682 27.9764C16.5503 29.2225 14.496 29.9733 12.2721 29.9733C11.8821 29.9733 11.508 29.9562 11.134 29.909C13.2405 31.2466 15.737 32.0103 18.4292 32.0103C27.1798 32.0103 31.9639 24.8731 31.9639 18.6866C31.9639 18.4796 31.9567 18.2797 31.9466 18.0814C32.8903 17.4219 33.6833 16.5983 34.3299 15.6504Z" fill="#0B132A"/>
</svg>
