<svg width="29" height="29" viewBox="0 0 29 29" fill="none" xmlns="http://www.w3.org/2000/svg">
<path d="M14.5 0C6.5047 0 0 6.5047 0 14.5C0 18.0017 1.24797 21.2174 3.32243 23.7259C3.32775 23.7331 3.32823 23.7423 3.33403 23.7491C4.83188 25.5553 6.71302 26.94 8.80923 27.8347C8.8334 27.8448 8.85708 27.8559 8.88125 27.8661C9.0509 27.9376 9.22248 28.0039 9.39455 28.0686C9.46222 28.0942 9.52988 28.1203 9.59852 28.145C9.7469 28.1981 9.89625 28.2484 10.0466 28.2967C10.1427 28.3277 10.2389 28.3581 10.3361 28.3871C10.469 28.4268 10.6024 28.4649 10.7368 28.5012C10.8547 28.5331 10.9736 28.5626 11.0925 28.5911C11.2128 28.6201 11.3337 28.6491 11.455 28.6747C11.5903 28.7037 11.7271 28.7293 11.8644 28.7545C11.9746 28.7748 12.0843 28.796 12.1955 28.8139C12.3477 28.8386 12.5009 28.8579 12.6546 28.8777C12.7537 28.8903 12.8523 28.9048 12.9519 28.9154C13.1259 28.9338 13.3013 28.9468 13.4773 28.9589C13.559 28.9647 13.6402 28.9734 13.7223 28.9778C13.979 28.9923 14.2385 29 14.5 29C14.7615 29 15.021 28.9923 15.2786 28.9787C15.3608 28.9744 15.442 28.9657 15.5237 28.9599C15.6996 28.9473 15.8751 28.9347 16.0491 28.9164C16.1487 28.9057 16.2472 28.8912 16.3463 28.8787C16.5 28.8589 16.6532 28.8395 16.8055 28.8149C16.9162 28.797 17.0264 28.7757 17.1366 28.7554C17.2734 28.7303 17.4101 28.7047 17.546 28.6757C17.6673 28.6496 17.7876 28.6211 17.9085 28.5921C18.0274 28.5631 18.1463 28.5336 18.2642 28.5022C18.3986 28.4664 18.532 28.4277 18.6649 28.3881C18.762 28.3591 18.8582 28.3286 18.9544 28.2977C19.1047 28.2494 19.2541 28.1991 19.4025 28.146C19.4706 28.1213 19.5383 28.0952 19.6064 28.0696C19.779 28.0048 19.9501 27.9381 20.1197 27.8671C20.1439 27.8569 20.1676 27.8458 20.1917 27.8356C22.2875 26.941 24.1691 25.5562 25.6669 23.75C25.6727 23.7433 25.6732 23.7336 25.6785 23.7268C27.752 21.2174 29 18.0017 29 14.5C29 6.5047 22.4953 0 14.5 0ZM20.3759 26.6897C20.3686 26.6931 20.3619 26.6969 20.3546 26.7003C20.1821 26.7834 20.0066 26.8617 19.8297 26.9381C19.7896 26.955 19.75 26.9724 19.7098 26.9893C19.5552 27.0541 19.3986 27.1155 19.241 27.1744C19.1753 27.1991 19.1096 27.2233 19.0433 27.2465C18.9037 27.2962 18.7635 27.3441 18.6219 27.3895C18.5339 27.4176 18.4454 27.4441 18.357 27.4702C18.2313 27.5079 18.1052 27.5442 17.9776 27.578C17.8703 27.6065 17.762 27.6326 17.6537 27.6583C17.5402 27.6853 17.4271 27.7129 17.3125 27.737C17.1873 27.7636 17.0612 27.7863 16.9355 27.8091C16.8335 27.8279 16.732 27.8477 16.6291 27.8642C16.4875 27.8864 16.3444 27.9043 16.2018 27.9222C16.1114 27.9338 16.0215 27.9473 15.9302 27.957C15.7673 27.9744 15.603 27.9855 15.4391 27.9971C15.3661 28.0019 15.2936 28.0101 15.2197 28.014C14.9804 28.0266 14.7407 28.0333 14.5 28.0333C14.2593 28.0333 14.0196 28.0266 13.7808 28.014C13.7073 28.0101 13.6348 28.0024 13.5614 27.9971C13.397 27.986 13.2332 27.9744 13.0703 27.957C12.9789 27.9473 12.889 27.9338 12.7987 27.9222C12.6561 27.9043 12.513 27.8864 12.3714 27.8642C12.2684 27.8477 12.1669 27.8279 12.065 27.8091C11.9388 27.7863 11.8127 27.7631 11.688 27.737C11.5734 27.7129 11.4598 27.6853 11.3467 27.6583C11.2385 27.6322 11.1302 27.6065 11.0229 27.578C10.8958 27.5442 10.7691 27.5075 10.6435 27.4702C10.555 27.4441 10.4666 27.4176 10.3786 27.3895C10.237 27.3441 10.0963 27.2962 9.95715 27.2465C9.89093 27.2228 9.8252 27.1986 9.75947 27.1744C9.6019 27.1155 9.4453 27.0541 9.29063 26.9893C9.25052 26.9729 9.21137 26.9555 9.17125 26.9386C8.99435 26.8627 8.8189 26.7839 8.64587 26.7008C8.63862 26.6974 8.63185 26.694 8.6246 26.6901C6.93825 25.8743 5.44862 24.7162 4.2398 23.3097C5.17408 19.8694 7.81888 17.096 11.2215 15.9925C11.2887 16.0336 11.3588 16.0703 11.4279 16.109C11.4685 16.1317 11.5086 16.1559 11.5497 16.1777C11.6938 16.254 11.8397 16.3256 11.9891 16.3898C12.1036 16.4401 12.222 16.4826 12.34 16.5261C12.3632 16.5343 12.3864 16.5435 12.4096 16.5517C13.065 16.7837 13.7663 16.9167 14.5 16.9167C15.2337 16.9167 15.935 16.7837 16.5899 16.5517C16.6131 16.5435 16.6363 16.5343 16.6595 16.5261C16.7775 16.4826 16.8959 16.4401 17.0104 16.3898C17.1598 16.3256 17.3057 16.254 17.4498 16.1777C17.4909 16.1554 17.531 16.1317 17.5716 16.109C17.6407 16.0703 17.7113 16.0336 17.7789 15.9921C21.1816 17.096 23.8259 19.8694 24.7607 23.3092C23.5519 24.7153 22.0622 25.8733 20.3759 26.6897ZM9.18333 10.6333C9.18333 7.70192 11.5686 5.31667 14.5 5.31667C17.4314 5.31667 19.8167 7.70192 19.8167 10.6333C19.8167 12.498 18.8495 14.1389 17.3923 15.0882C17.2018 15.2119 17.0037 15.3226 16.8002 15.4193C16.776 15.4309 16.7523 15.443 16.7282 15.4541C15.3284 16.0907 13.6716 16.0907 12.2718 15.4541C12.2477 15.443 12.2235 15.4309 12.1998 15.4193C11.9958 15.3226 11.7982 15.2119 11.6077 15.0882C10.1505 14.1389 9.18333 12.498 9.18333 10.6333ZM25.4857 22.3895C24.39 19.154 21.8902 16.5392 18.6963 15.297C19.9737 14.1462 20.7833 12.4845 20.7833 10.6333C20.7833 7.1688 17.9645 4.35 14.5 4.35C11.0355 4.35 8.21667 7.1688 8.21667 10.6333C8.21667 12.4845 9.02625 14.1462 10.3042 15.297C7.11032 16.5397 4.61052 19.154 3.5148 22.3895C1.91352 20.1666 0.966667 17.4425 0.966667 14.5C0.966667 7.03782 7.03782 0.966667 14.5 0.966667C21.9622 0.966667 28.0333 7.03782 28.0333 14.5C28.0333 17.4425 27.0865 20.1666 25.4857 22.3895Z" fill="#AFB5C0"/>
</svg>
