<svg width="48" height="34" viewBox="0 0 48 34" fill="none" xmlns="http://www.w3.org/2000/svg">
<path d="M48 30.2653C48 31.8324 46.7297 33.1028 45.1627 33.1028H2.83734C1.27031 33.1029 0 31.8324 0 30.2653V2.83744C0 1.27031 1.27031 0 2.83734 0H45.1627C46.7298 0 48 1.27041 48 2.83744V30.2653Z" fill="white"/>
<path d="M10.6536 16.7423L9.5265 11.3356C9.33385 10.59 8.77322 10.3682 8.07272 10.3389H2.90541L2.85938 10.5859C6.88397 11.5616 9.54694 13.9152 10.6536 16.7423Z" fill="#F79F1A"/>
<path d="M22.627 10.4478H19.2883L17.2031 22.6847H20.5363L22.627 10.4478Z" fill="#2D4990"/>
<path d="M12.6888 22.6723L17.9398 10.4561H14.4062L11.1397 18.8024L10.7911 17.5422C10.1507 16.0262 8.32074 13.8442 6.17236 12.4706L9.1583 22.6765L12.6888 22.6723Z" fill="#2D4990"/>
<path d="M32.1501 18.6843C32.1625 17.295 31.2704 16.2354 29.3482 15.3601C28.18 14.7948 27.4679 14.4178 27.4765 13.8442C27.4765 13.3374 28.0795 12.793 29.386 12.793C30.4792 12.7762 31.2663 13.0149 31.882 13.262L32.1837 13.4003L32.6361 10.7493C31.9743 10.5021 30.9398 10.2383 29.6459 10.2383C26.35 10.2383 24.0299 11.8968 24.0089 14.2755C23.9879 16.0346 25.6676 17.0145 26.9322 17.6007C28.2303 18.1983 28.6659 18.5807 28.6575 19.1168C28.6492 19.9364 27.623 20.3102 26.664 20.3102C25.3281 20.3102 24.6203 20.126 23.5226 19.6687L23.096 19.4727L22.6274 22.2148C23.4058 22.5551 24.8463 22.8524 26.3416 22.8648C29.8467 22.8648 32.125 21.2274 32.1501 18.6843Z" fill="#2D4990"/>
<path d="M36.1161 20.8503C36.4972 20.8503 39.9019 20.8545 40.3879 20.8545C40.4884 21.2806 40.7941 22.6888 40.7941 22.6888H43.8889L41.1877 10.4602H38.6122C37.8122 10.4602 37.2178 10.678 36.8658 11.4735L31.9116 22.6888H35.4171C35.4168 22.6888 35.9863 21.1814 36.1161 20.8503ZM38.4026 14.9244C38.3861 14.9579 38.6792 14.2167 38.8467 13.756L39.0727 14.8112C39.0727 14.8112 39.7095 17.7345 39.8433 18.346H37.0751C37.3516 17.6425 38.4026 14.9244 38.4026 14.9244Z" fill="#2D4990"/>
<path d="M45.1627 0H2.83734C1.27031 0 0 1.27031 0 2.83744V5.78231H48V2.83744C48 1.27031 46.7298 0 45.1627 0Z" fill="#2D4990"/>
<path d="M45.1627 33.1029H2.83734C1.27031 33.1029 0 31.8325 0 30.2654V27.3206H48V30.2654C48 31.8325 46.7298 33.1029 45.1627 33.1029Z" fill="#F79F1A"/>
<path opacity="0.15" d="M2.01722 30.2653V2.83744C2.01722 1.27031 3.28763 0 4.85475 0H2.83725C1.27031 0 0 1.27031 0 2.83744V30.2654C0 31.8325 1.27031 33.1029 2.83734 33.1029H4.85484C3.28772 33.1029 2.01722 31.8324 2.01722 30.2653Z" fill="#202121"/>
</svg>
