<svg width="23" height="15" viewBox="0 0 23 15" fill="none" xmlns="http://www.w3.org/2000/svg">
<path d="M11.336 4.5C9.6306 4.5 8.24463 5.84498 8.24463 7.5C8.24463 9.15502 9.6306 10.5 11.336 10.5C13.0415 10.5 14.4275 9.15502 14.4275 7.5C14.4275 5.84498 13.0414 4.5 11.336 4.5Z" fill="#AFB5C0"/>
<path d="M11.3352 0C6.18282 0 1.78273 3.10997 0 7.5C1.78273 11.89 6.18282 15 11.3352 15C16.4927 15 20.8876 11.89 22.6704 7.5C20.8876 3.10997 16.4927 0 11.3352 0ZM11.3352 12.5C8.49109 12.5 6.18282 10.26 6.18282 7.49995C6.18282 4.73995 8.49109 2.49998 11.3352 2.49998C14.1793 2.49998 16.4876 4.74 16.4876 7.5C16.4876 10.26 14.1793 12.5 11.3352 12.5Z" fill="#AFB5C0"/>
</svg>
