<svg width="39" height="39" viewBox="0 0 39 39" fill="none" xmlns="http://www.w3.org/2000/svg">
<path d="M19.5 39C30.2696 39 39 30.2696 39 19.5C39 8.73045 30.2696 0 19.5 0C8.73045 0 0 8.73045 0 19.5C0 30.2696 8.73045 39 19.5 39Z" fill="#272727"/>
<path d="M30.3804 14.0648C30.1179 13.0924 29.3486 12.3259 28.373 12.0641C26.5908 11.5781 19.4617 11.5781 19.4617 11.5781C19.4617 11.5781 12.3328 11.5781 10.5506 12.0457C9.59377 12.3072 8.8057 13.0926 8.54321 14.0648C8.07422 15.8407 8.07422 19.5239 8.07422 19.5239C8.07422 19.5239 8.07422 23.2256 8.54321 24.983C8.806 25.9552 9.57496 26.7217 10.5507 26.9835C12.3516 27.4696 19.4619 27.4696 19.4619 27.4696C19.4619 27.4696 26.5908 27.4696 28.373 27.0021C29.3488 26.7404 30.1179 25.9739 30.3806 25.0017C30.8495 23.2256 30.8495 19.5426 30.8495 19.5426C30.8495 19.5426 30.8683 15.8407 30.3804 14.0648ZM17.1919 22.9265V16.1212L23.1201 19.5239L17.1919 22.9265Z" fill="#F0F0F1"/>
</svg>
