<svg width="45" height="45" viewBox="0 0 45 45" fill="none" xmlns="http://www.w3.org/2000/svg">
<path d="M22.5 45C34.9264 45 45 34.9264 45 22.5C45 10.0736 34.9264 0 22.5 0C10.0736 0 0 10.0736 0 22.5C0 34.9264 10.0736 45 22.5 45Z" fill="#AFB5C0"/>
<path d="M35.0543 16.2286C34.7514 15.1066 33.8638 14.2222 32.7381 13.9201C30.6817 13.3594 22.4558 13.3594 22.4558 13.3594C22.4558 13.3594 14.2301 13.3594 12.1737 13.8988C11.0697 14.2007 10.1604 15.1068 9.85755 16.2286C9.31641 18.2777 9.31641 22.5276 9.31641 22.5276C9.31641 22.5276 9.31641 26.7987 9.85755 28.8265C10.1608 29.9483 11.048 30.8327 12.1739 31.1348C14.2518 31.6957 22.4561 31.6957 22.4561 31.6957C22.4561 31.6957 30.6817 31.6957 32.7381 31.1563C33.864 30.8544 34.7514 29.9699 35.0546 28.8481C35.5956 26.7987 35.5956 22.5491 35.5956 22.5491C35.5956 22.5491 35.6172 18.2777 35.0543 16.2286ZM19.8368 26.4537V18.6014L26.6771 22.5276L19.8368 26.4537Z" fill="#0B132A"/>
</svg>
